999
dxfrw 0.6.3
  0
SECTION
  2
HEADER
  9
$ACADVER
  1
AC1021
  9
$DWGCODEPAGE
  3
ANSI_1252
  9
$INSBASE
 10
0
 20
0
 30
0
  9
$EXTMIN
 10
0.07494768963904631
 20
0.06169996191573246
 30
0
  9
$EXTMAX
 10
417.3968449761685
 20
159.7167999619157
 30
0
  9
$LIMMIN
 10
0
 20
0
  9
$LIMMAX
 10
420
 20
297
  9
$ORTHOMODE
 70
    0
  9
$REGENMODE
 70
    1
  9
$FILLMODE
 70
    1
  9
$QTEXTMODE
 70
    0
  9
$MIRRTEXT
 70
    0
  9
$LTSCALE
 40
1
  9
$ATTMODE
 70
    0
  9
$TEXTSIZE
 40
2.5
  9
$TRACEWID
 40
15.68
  9
$TEXTSTYLE
  7
STANDARD
  9
$CLAYER
  8
0
  9
$CELTYPE
  6
BYLAYER
  9
$CECOLOR
 62
  256
  9
$CELTSCALE
 40
1
  9
$DISPSILH
 70
    0
  9
$DIMSCALE
 40
2.5
  9
$DIMASZ
 40
2.5
  9
$DIMEXO
 40
0.625
  9
$DIMDLI
 40
3.75
  9
$DIMRND
 40
0
  9
$DIMDLE
 40
0
  9
$DIMEXE
 40
1.25
  9
$DIMTP
 40
0
  9
$DIMTM
 40
0
  9
$DIMTXT
 40
2.5
  9
$DIMCEN
 40
2.5
  9
$DIMTSZ
 40
0
  9
$DIMTOL
 70
    0
  9
$DIMLIM
 70
    0
  9
$DIMTIH
 70
    0
  9
$DIMTOH
 70
    0
  9
$DIMSE1
 70
    0
  9
$DIMSE2
 70
    0
  9
$DIMTAD
 70
    1
  9
$DIMZIN
 70
    8
  9
$DIMBLK
  1

  9
$DIMASO
 70
    1
  9
$DIMSHO
 70
    1
  9
$DIMPOST
  1

  9
$DIMAPOST
  1

  9
$DIMALT
 70
    0
  9
$DIMALTD
 70
    3
  9
$DIMALTF
 40
0.03937
  9
$DIMLFAC
 40
1
  9
$DIMTOFL
 70
    1
  9
$DIMTVP
 40
0
  9
$DIMTIX
 70
    0
  9
$DIMSOXD
 70
    0
  9
$DIMSAH
 70
    0
  9
$DIMBLK1
  1

  9
$DIMBLK2
  1

  9
$DIMSTYLE
  2
Standard
  9
$DIMCLRD
 70
    0
  9
$DIMCLRE
 70
    0
  9
$DIMCLRT
 70
    0
  9
$DIMTFAC
 40
1
  9
$DIMGAP
 40
0.625
  9
$DIMJUST
 70
    0
  9
$DIMSD1
 70
    0
  9
$DIMSD2
 70
    0
  9
$DIMTOLJ
 70
    0
  9
$DIMTZIN
 70
    8
  9
$DIMALTZ
 70
    0
  9
$DIMALTTZ
 70
    0
  9
$DIMUPT
 70
    0
  9
$DIMDEC
 70
    2
  9
$DIMTDEC
 70
    2
  9
$DIMALTU
 70
    2
  9
$DIMALTTD
 70
    3
  9
$DIMTXSTY
  7
STANDARD
  9
$DIMAUNIT
 70
    0
  9
$DIMADEC
 70
    0
  9
$DIMALTRND
 40
0
  9
$DIMAZIN
 70
    0
  9
$DIMDSEP
 70
   44
  9
$DIMATFIT
 70
    3
  9
$DIMFRAC
 70
    0
  9
$DIMLDRBLK
  1
STANDARD
  9
$DIMLUNIT
 70
    2
  9
$DIMLWD
 70
   -2
  9
$DIMLWE
 70
   -2
  9
$DIMTMOVE
 70
    0
  9
$DIMFXL
 40
1
  9
$DIMFXLON
 70
    0
  9
$DIMJOGANG
 40
0.7854
  9
$DIMTFILL
 70
    0
  9
$DIMTFILLCLR
 70
    0
  9
$DIMARCSYM
 70
    0
  9
$DIMLTYPE
  6

  9
$DIMLTEX1
  6

  9
$DIMLTEX2
  6

  9
$LUNITS
 70
    2
  9
$LUPREC
 70
    4
  9
$SKETCHINC
 40
1
  9
$FILLETRAD
 40
0
  9
$AUNITS
 70
    0
  9
$AUPREC
 70
    2
  9
$MENU
  1
.
  9
$ELEVATION
 40
0
  9
$PELEVATION
 40
0
  9
$THICKNESS
 40
0
  9
$LIMCHECK
 70
    0
  9
$CHAMFERA
 40
0
  9
$CHAMFERB
 40
0
  9
$CHAMFERC
 40
0
  9
$CHAMFERD
 40
0
  9
$SKPOLY
 70
    0
  9
$USRTIMER
 70
    1
  9
$ANGBASE
 50
0
  9
$ANGDIR
 70
    0
  9
$PDMODE
 70
   34
  9
$PDSIZE
 40
0
  9
$PLINEWID
 40
0
  9
$SPLFRAME
 70
    0
  9
$SPLINETYPE
 70
    2
  9
$SPLINESEGS
 70
    8
  9
$HANDSEED
  5
20000
  9
$SURFTAB1
 70
    6
  9
$SURFTAB2
 70
    6
  9
$SURFTYPE
 70
    6
  9
$SURFU
 70
    6
  9
$SURFV
 70
    6
  9
$UCSBASE
  2

  9
$UCSNAME
  2

  9
$UCSORG
 10
0
 20
0
 30
0
  9
$UCSXDIR
 10
1
 20
0
 30
0
  9
$UCSYDIR
 10
0
 20
1
 30
0
  9
$UCSORTHOREF
  2

  9
$UCSORTHOVIEW
 70
    0
  9
$UCSORGTOP
 10
0
 20
0
 30
0
  9
$UCSORGBOTTOM
 10
0
 20
0
 30
0
  9
$UCSORGLEFT
 10
0
 20
0
 30
0
  9
$UCSORGRIGHT
 10
0
 20
0
 30
0
  9
$UCSORGFRONT
 10
0
 20
0
 30
0
  9
$UCSORGBACK
 10
0
 20
0
 30
0
  9
$PUCSBASE
  2

  9
$PUCSNAME
  2

  9
$PUCSORG
 10
0
 20
0
 30
0
  9
$PUCSXDIR
 10
1
 20
0
 30
0
  9
$PUCSYDIR
 10
0
 20
1
 30
0
  9
$PUCSORTHOREF
  2

  9
$PUCSORTHOVIEW
 70
    0
  9
$PUCSORGTOP
 10
0
 20
0
 30
0
  9
$PUCSORGBOTTOM
 10
0
 20
0
 30
0
  9
$PUCSORGLEFT
 10
0
 20
0
 30
0
  9
$PUCSORGRIGHT
 10
0
 20
0
 30
0
  9
$PUCSORGFRONT
 10
0
 20
0
 30
0
  9
$PUCSORGBACK
 10
0
 20
0
 30
0
  9
$USERI1
 70
    0
  9
$USERI2
 70
    0
  9
$USERI3
 70
    0
  9
$USERI4
 70
    0
  9
$USERI5
 70
    0
  9
$USERR1
 40
0
  9
$USERR2
 40
0
  9
$USERR3
 40
0
  9
$USERR4
 40
0
  9
$USERR5
 40
0
  9
$WORLDVIEW
 70
    1
  9
$SHADEDGE
 70
    3
  9
$SHADEDIF
 70
   70
  9
$TILEMODE
 70
    1
  9
$MAXACTVP
 70
   64
  9
$PINSBASE
 10
0
 20
0
 30
0
  9
$PLIMCHECK
 70
    0
  9
$PEXTMIN
 10
0
 20
0
 30
0
  9
$PEXTMAX
 10
0
 20
0
 30
0
  9
$GRIDMODE
 70
    1
  9
$SNAPSTYLE
 70
    0
  9
$PLIMMIN
 10
0
 20
0
  9
$PLIMMAX
 10
210
 20
297
  9
$UNITMODE
 70
    0
  9
$VISRETAIN
 70
    1
  9
$PLINEGEN
 70
    0
  9
$PSLTSCALE
 70
    1
  9
$TREEDEPTH
 70
 3020
  9
$CMLSTYLE
  2
Standard
  9
$CMLJUST
 70
    0
  9
$CMLSCALE
 40
20
  9
$PROXYGRAPHICS
 70
    1
  9
$MEASUREMENT
 70
    1
  9
$CELWEIGHT
370
   -1
  9
$ENDCAPS
280
    0
  9
$JOINSTYLE
280
    0
  9
$LWDISPLAY
290
    0
  9
$INSUNITS
 70
    4
  9
$HYPERLINKBASE
  1

  9
$STYLESHEET
  1

  9
$XEDIT
290
    1
  9
$CEPSNTYPE
380
    0
  9
$PSTYLEMODE
290
    1
  9
$EXTNAMES
290
    1
  9
$PSVPSCALE
 40
1
  9
$OLESTARTUP
290
    0
  9
$SORTENTS
280
  127
  9
$INDEXCTL
280
    0
  9
$HIDETEXT
280
    1
  9
$XCLIPFRAME
290
    0
  9
$HALOGAP
280
    0
  9
$OBSCOLOR
 70
  257
  9
$OBSLTYPE
280
    0
  9
$INTERSECTIONDISPLAY
280
    0
  9
$INTERSECTIONCOLOR
 70
  257
  9
$DIMASSOC
280
    1
  9
$PROJECTNAME
  1

  9
$CAMERADISPLAY
290
    0
  9
$LENSLENGTH
 40
50
  9
$CAMERAHEIGHT
 40
0
  9
$STEPSPERSEC
 40
2
  9
$STEPSIZE
 40
50
  9
$3DDWFPREC
 40
2
  9
$PSOLWIDTH
 40
5
  9
$PSOLHEIGHT
 40
80
  9
$LOFTANG1
 40
1.570796326794897
  9
$LOFTANG2
 40
1.570796326794897
  9
$LOFTMAG1
 40
0
  9
$LOFTMAG2
 40
0
  9
$LOFTPARAM
 70
    7
  9
$LOFTNORMALS
280
    1
  9
$LATITUDE
 40
1
  9
$LONGITUDE
 40
1
  9
$NORTHDIRECTION
 40
0
  9
$TIMEZONE
 70
-8000
  9
$LIGHTGLYPHDISPLAY
280
    1
  9
$TILEMODELIGHTSYNCH
280
    1
  9
$SOLIDHIST
280
    1
  9
$SHOWHIST
280
    1
  9
$DWFFRAME
280
    2
  9
$DGNFRAME
280
    0
  9
$REALWORLDSCALE
290
    1
  9
$INTERFERECOLOR
 62
    1
  9
$CSHADOW
280
    0
  9
$SHADOWPLANELOCATION
 40
0
  0
ENDSEC
  0
SECTION
  2
CLASSES
  0
ENDSEC
  0
SECTION
  2
TABLES
  0
TABLE
  2
VPORT
  5
8
330
0
100
AcDbSymbolTable
 70
    1
  0
VPORT
  5
31
330
2
100
AcDbSymbolTableRecord
100
AcDbViewportTableRecord
  2
*ACTIVE
 70
    0
 10
0
 20
0
 11
1
 21
1
 12
178.623785188593
 22
11.85016939595119
 13
0
 23
0
 14
10
 24
10
 15
10
 25
10
 16
0
 26
0
 36
1
 17
0
 27
0
 37
0
 40
3.867575903925113
 41
1.680645161290323
 42
50
 43
0
 44
0
 50
0
 51
0
 71
    0
 72
  100
 73
    1
 74
    3
 75
    0
 76
    1
 77
    0
 78
    0
281
    0
 65
    1
110
0
120
0
130
0
111
1
121
0
131
0
112
0
122
1
132
0
 79
    0
146
0
348
10020
 60
    7
 61
    5
292
1
282
    1
141
0
142
0
 63
  250
421
3358443
  0
ENDTAB
  0
TABLE
  2
LTYPE
  5
5
330
0
100
AcDbSymbolTable
 70
    4
  0
LTYPE
  5
14
330
5
100
AcDbSymbolTableRecord
100
AcDbLinetypeTableRecord
  2
ByBlock
 70
    0
  3

 72
   65
 73
    0
 40
0
  0
LTYPE
  5
15
330
5
100
AcDbSymbolTableRecord
100
AcDbLinetypeTableRecord
  2
ByLayer
 70
    0
  3

 72
   65
 73
    0
 40
0
  0
LTYPE
  5
16
330
5
100
AcDbSymbolTableRecord
100
AcDbLinetypeTableRecord
  2
Continuous
 70
    0
  3
Solid line
 72
   65
 73
    0
 40
0
  0
LTYPE
  5
32
330
5
100
AcDbSymbolTableRecord
100
AcDbLinetypeTableRecord
  2
DOT
 70
    0
  3
Dot . . . . . . . . . . . . . . . . . . . . . .
 72
   65
 73
    2
 40
6.35
 49
0
 74
    0
 49
-6.35
 74
    0
  0
LTYPE
  5
33
330
5
100
AcDbSymbolTableRecord
100
AcDbLinetypeTableRecord
  2
DOTTINY
 70
    0
  3
Dot (.15x) .....................................
 72
   65
 73
    2
 40
0.9525
 49
0
 74
    0
 49
-0.9525
 74
    0
  0
LTYPE
  5
34
330
5
100
AcDbSymbolTableRecord
100
AcDbLinetypeTableRecord
  2
DOT2
 70
    0
  3
Dot (.5x) .....................................
 72
   65
 73
    2
 40
3.175
 49
0
 74
    0
 49
-3.175
 74
    0
  0
LTYPE
  5
35
330
5
100
AcDbSymbolTableRecord
100
AcDbLinetypeTableRecord
  2
DOTX2
 70
    0
  3
Dot (2x) .  .  .  .  .  .  .  .  .  .  .  .  .
 72
   65
 73
    2
 40
12.7
 49
0
 74
    0
 49
-12.7
 74
    0
  0
LTYPE
  5
36
330
5
100
AcDbSymbolTableRecord
100
AcDbLinetypeTableRecord
  2
DASHED
 70
    0
  3
Dashed _ _ _ _ _ _ _ _ _ _ _ _ _ _ _ _ _
 72
   65
 73
    2
 40
19.05
 49
12.7
 74
    0
 49
-6.35
 74
    0
  0
LTYPE
  5
37
330
5
100
AcDbSymbolTableRecord
100
AcDbLinetypeTableRecord
  2
DASHEDTINY
 70
    0
  3
Dashed (.15x) _ _ _ _ _ _ _ _ _ _ _ _ _ _ _ _ _
 72
   65
 73
    2
 40
2.8575
 49
1.905
 74
    0
 49
-0.9525
 74
    0
  0
LTYPE
  5
38
330
5
100
AcDbSymbolTableRecord
100
AcDbLinetypeTableRecord
  2
DASHED2
 70
    0
  3
Dashed (.5x) _ _ _ _ _ _ _ _ _ _ _ _ _ _ _ _ _
 72
   65
 73
    2
 40
9.524999999999999
 49
6.35
 74
    0
 49
-3.175
 74
    0
  0
LTYPE
  5
39
330
5
100
AcDbSymbolTableRecord
100
AcDbLinetypeTableRecord
  2
DASHEDX2
 70
    0
  3
Dashed (2x) ____  ____  ____  ____  ____  ___
 72
   65
 73
    2
 40
38.09999999999999
 49
25.4
 74
    0
 49
-12.7
 74
    0
  0
LTYPE
  5
3A
330
5
100
AcDbSymbolTableRecord
100
AcDbLinetypeTableRecord
  2
DASHDOT
 70
    0
  3
Dash dot __ . __ . __ . __ . __ . __ . __ . __
 72
   65
 73
    4
 40
25.4
 49
12.7
 74
    0
 49
-6.35
 74
    0
 49
0
 74
    0
 49
-6.35
 74
    0
  0
LTYPE
  5
3B
330
5
100
AcDbSymbolTableRecord
100
AcDbLinetypeTableRecord
  2
DASHDOTTINY
 70
    0
  3
Dash dot (.15x) _._._._._._._._._._._._._._._.
 72
   65
 73
    4
 40
3.81
 49
1.905
 74
    0
 49
-0.9525
 74
    0
 49
0
 74
    0
 49
-0.9525
 74
    0
  0
LTYPE
  5
3C
330
5
100
AcDbSymbolTableRecord
100
AcDbLinetypeTableRecord
  2
DASHDOT2
 70
    0
  3
Dash dot (.5x) _._._._._._._._._._._._._._._.
 72
   65
 73
    4
 40
12.7
 49
6.35
 74
    0
 49
-3.175
 74
    0
 49
0
 74
    0
 49
-3.175
 74
    0
  0
LTYPE
  5
3D
330
5
100
AcDbSymbolTableRecord
100
AcDbLinetypeTableRecord
  2
DASHDOTX2
 70
    0
  3
Dash dot (2x) ____  .  ____  .  ____  .  ___
 72
   65
 73
    4
 40
50.8
 49
25.4
 74
    0
 49
-12.7
 74
    0
 49
0
 74
    0
 49
-12.7
 74
    0
  0
LTYPE
  5
3E
330
5
100
AcDbSymbolTableRecord
100
AcDbLinetypeTableRecord
  2
DIVIDE
 70
    0
  3
Divide ____ . . ____ . . ____ . . ____ . . ____
 72
   65
 73
    6
 40
31.75
 49
12.7
 74
    0
 49
-6.35
 74
    0
 49
0
 74
    0
 49
-6.35
 74
    0
 49
0
 74
    0
 49
-6.35
 74
    0
  0
LTYPE
  5
3F
330
5
100
AcDbSymbolTableRecord
100
AcDbLinetypeTableRecord
  2
DIVIDETINY
 70
    0
  3
Divide (.15x) __..__..__..__..__..__..__..__.._
 72
   65
 73
    6
 40
4.7625
 49
1.905
 74
    0
 49
-0.9525
 74
    0
 49
0
 74
    0
 49
-0.9525
 74
    0
 49
0
 74
    0
 49
-0.9525
 74
    0
  0
LTYPE
  5
40
330
5
100
AcDbSymbolTableRecord
100
AcDbLinetypeTableRecord
  2
DIVIDE2
 70
    0
  3
Divide (.5x) __..__..__..__..__..__..__..__.._
 72
   65
 73
    6
 40
15.875
 49
6.35
 74
    0
 49
-3.175
 74
    0
 49
0
 74
    0
 49
-3.175
 74
    0
 49
0
 74
    0
 49
-3.175
 74
    0
  0
LTYPE
  5
41
330
5
100
AcDbSymbolTableRecord
100
AcDbLinetypeTableRecord
  2
DIVIDEX2
 70
    0
  3
Divide (2x) ________  .  .  ________  .  .  _
 72
   65
 73
    6
 40
63.5
 49
25.4
 74
    0
 49
-12.7
 74
    0
 49
0
 74
    0
 49
-12.7
 74
    0
 49
0
 74
    0
 49
-12.7
 74
    0
  0
LTYPE
  5
42
330
5
100
AcDbSymbolTableRecord
100
AcDbLinetypeTableRecord
  2
BORDER
 70
    0
  3
Border __ __ . __ __ . __ __ . __ __ . __ __ .
 72
   65
 73
    6
 40
44.45
 49
12.7
 74
    0
 49
-6.35
 74
    0
 49
12.7
 74
    0
 49
-6.35
 74
    0
 49
0
 74
    0
 49
-6.35
 74
    0
  0
LTYPE
  5
43
330
5
100
AcDbSymbolTableRecord
100
AcDbLinetypeTableRecord
  2
BORDERTINY
 70
    0
  3
Border (.15x) __.__.__.__.__.__.__.__.__.__.__.
 72
   65
 73
    6
 40
6.6675
 49
1.905
 74
    0
 49
-0.9525
 74
    0
 49
1.905
 74
    0
 49
-0.9525
 74
    0
 49
0
 74
    0
 49
-0.9525
 74
    0
  0
LTYPE
  5
44
330
5
100
AcDbSymbolTableRecord
100
AcDbLinetypeTableRecord
  2
BORDER2
 70
    0
  3
Border (.5x) __.__.__.__.__.__.__.__.__.__.__.
 72
   65
 73
    6
 40
22.225
 49
6.35
 74
    0
 49
-3.175
 74
    0
 49
6.35
 74
    0
 49
-3.175
 74
    0
 49
0
 74
    0
 49
-3.175
 74
    0
  0
LTYPE
  5
45
330
5
100
AcDbSymbolTableRecord
100
AcDbLinetypeTableRecord
  2
BORDERX2
 70
    0
  3
Border (2x) ____  ____  .  ____  ____  .  ___
 72
   65
 73
    6
 40
88.89999999999999
 49
25.4
 74
    0
 49
-12.7
 74
    0
 49
25.4
 74
    0
 49
-12.7
 74
    0
 49
0
 74
    0
 49
-12.7
 74
    0
  0
LTYPE
  5
46
330
5
100
AcDbSymbolTableRecord
100
AcDbLinetypeTableRecord
  2
CENTER
 70
    0
  3
Center ____ _ ____ _ ____ _ ____ _ ____ _ ____
 72
   65
 73
    4
 40
50.8
 49
31.75
 74
    0
 49
-6.35
 74
    0
 49
6.35
 74
    0
 49
-6.35
 74
    0
  0
LTYPE
  5
47
330
5
100
AcDbSymbolTableRecord
100
AcDbLinetypeTableRecord
  2
CENTERTINY
 70
    0
  3
Center (.15x) ___ _ ___ _ ___ _ ___ _ ___ _ ___
 72
   65
 73
    4
 40
7.62
 49
4.7625
 74
    0
 49
-0.9525
 74
    0
 49
0.9525
 74
    0
 49
-0.9525
 74
    0
  0
LTYPE
  5
48
330
5
100
AcDbSymbolTableRecord
100
AcDbLinetypeTableRecord
  2
CENTER2
 70
    0
  3
Center (.5x) ___ _ ___ _ ___ _ ___ _ ___ _ ___
 72
   65
 73
    4
 40
28.575
 49
19.05
 74
    0
 49
-3.175
 74
    0
 49
3.175
 74
    0
 49
-3.175
 74
    0
  0
LTYPE
  5
49
330
5
100
AcDbSymbolTableRecord
100
AcDbLinetypeTableRecord
  2
CENTERX2
 70
    0
  3
Center (2x) ________  __  ________  __  _____
 72
   65
 73
    4
 40
101.6
 49
63.5
 74
    0
 49
-12.7
 74
    0
 49
12.7
 74
    0
 49
-12.7
 74
    0
  0
ENDTAB
  0
TABLE
  2
LAYER
  5
2
330
0
100
AcDbSymbolTable
 70
    1
  0
LAYER
  5
10
330
2
100
AcDbSymbolTableRecord
100
AcDbLayerTableRecord
  2
0
 70
    0
 62
    7
  6
CONTINUOUS
370
   -3
390
F
  0
LAYER
  5
4A
330
2
100
AcDbSymbolTableRecord
100
AcDbLayerTableRecord
  2
screw-holes
 70
    0
 62
    7
  6
CONTINUOUS
370
    0
390
F
  0
ENDTAB
  0
TABLE
  2
STYLE
  5
3
330
0
100
AcDbSymbolTable
 70
    3
  0
STYLE
  5
4B
330
2
100
AcDbSymbolTableRecord
100
AcDbTextStyleTableRecord
  2
Standard
 70
    0
 40
0
 41
1
 50
0
 71
    0
 42
1
  3
txt
  4

  0
ENDTAB
  0
TABLE
  2
VIEW
  5
6
330
0
100
AcDbSymbolTable
 70
    0
  0
ENDTAB
  0
TABLE
  2
UCS
  5
7
330
0
100
AcDbSymbolTable
 70
    0
  0
ENDTAB
  0
TABLE
  2
APPID
  5
9
330
0
100
AcDbSymbolTable
 70
    1
  0
APPID
  5
12
330
9
100
AcDbSymbolTableRecord
100
AcDbRegAppTableRecord
  2
ACAD
 70
    0
  0
APPID
  5
4C
330
9
100
AcDbSymbolTableRecord
100
AcDbRegAppTableRecord
  2
LibreCad
 70
    0
  0
ENDTAB
  0
TABLE
  2
DIMSTYLE
  5
A
330
0
100
AcDbSymbolTable
 70
    1
100
AcDbDimStyleTable
 71
    1
  0
DIMSTYLE
105
4D
330
A
100
AcDbSymbolTableRecord
100
AcDbDimStyleTableRecord
  2
Standard
 70
    0
 40
1
 41
2.5
 42
0.625
 43
0.38
 44
1.25
 45
0
 46
0
 47
0
 48
0
 49
1
140
2.5
141
0.09
142
2.5
143
25.4
144
1
145
0
146
1
147
0.625
148
0
 71
    0
 72
    0
 73
    0
 74
    1
 75
    0
 76
    0
 77
    0
 78
    1
 79
    0
170
    0
171
    2
172
    0
173
    0
174
    0
175
    0
176
    0
177
    0
178
    0
179
    0
271
    2
272
    4
273
    2
274
    2
275
    0
276
    0
277
    2
278
    0
279
    0
280
    0
281
    0
282
    0
283
    1
284
    0
285
    0
286
    0
288
    0
289
    3
340
standard
341

371
   -2
372
   -2
  0
ENDTAB
  0
TABLE
  2
BLOCK_RECORD
  5
1
330
0
100
AcDbSymbolTable
 70
    2
  0
BLOCK_RECORD
  5
1F
330
1
100
AcDbSymbolTableRecord
100
AcDbBlockTableRecord
  2
*Model_Space
 70
    0
280
    1
281
    0
  0
BLOCK_RECORD
  5
1E
330
1
100
AcDbSymbolTableRecord
100
AcDbBlockTableRecord
  2
*Paper_Space
 70
    0
280
    1
281
    0
  0
BLOCK_RECORD
  5
4E
330
1
100
AcDbSymbolTableRecord
100
AcDbBlockTableRecord
  2
test
 70
    0
280
    1
281
    0
  0
ENDTAB
  0
ENDSEC
  0
SECTION
  2
BLOCKS
  0
BLOCK
  5
20
330
1F
100
AcDbEntity
  8
0
100
AcDbBlockBegin
  2
*Model_Space
 70
    0
 10
0
 20
0
 30
0
  3
*Model_Space
  1

  0
ENDBLK
  5
21
330
1F
100
AcDbEntity
  8
0
100
AcDbBlockEnd
  0
BLOCK
  5
1C
330
1B
100
AcDbEntity
  8
0
100
AcDbBlockBegin
  2
*Paper_Space
 70
    0
 10
0
 20
0
 30
0
  3
*Paper_Space
  1

  0
ENDBLK
  5
1D
330
1F
100
AcDbEntity
  8
0
100
AcDbBlockEnd
  0
BLOCK
  5
4F
330
4E
100
AcDbEntity
  8
0
100
AcDbBlockBegin
  2
test
 70
    0
 10
0
 20
0
  3
test
  1

  0
LWPOLYLINE
  5
51
100
AcDbEntity
  8
0
  6
ByLayer
 62
    7
370
   -1
100
AcDbPolyline
 90
    2
 70
    0
 43
0
 10
417.3524778761685
 20
4.102893561915733
 10
417.3524778761685
 20
116.7174755619157
  0
SPLINE
  5
52
100
AcDbEntity
  8
0
  6
ByLayer
 62
    7
370
   -1
100
AcDbSpline
210
0
220
0
230
0
 70
    8
 71
    3
 72
    8
 73
    4
 74
    0
 42
1e-07
 43
1e-07
 40
0
 40
0
 40
0
 40
0
 40
1
 40
1
 40
1
 40
1
 10
175.5519728761685
 20
122.9512915619157
 30
0
 10
176.2212878761685
 20
121.5739015619157
 30
0
 10
177.6182818761685
 20
120.6995615619157
 30
0
 10
179.1496818761685
 20
120.6995855619157
 30
0
  0
SPLINE
  5
53
100
AcDbEntity
  8
0
  6
ByLayer
 62
    7
370
   -1
100
AcDbSpline
210
0
220
0
230
0
 70
    8
 71
    3
 72
    8
 73
    4
 74
    0
 42
1e-07
 43
1e-07
 40
0
 40
0
 40
0
 40
0
 40
1
 40
1
 40
1
 40
1
 10
48.19795387616853
 20
120.6388855619157
 30
0
 10
49.72938987616854
 20
120.6388235619157
 30
0
 10
51.12643187616854
 20
121.5131685619157
 30
0
 10
51.79576287616854
 20
122.8905915619157
 30
0
  0
SPLINE
  5
54
100
AcDbEntity
  8
0
  6
ByLayer
 62
    7
370
   -1
100
AcDbSpline
210
0
220
0
230
0
 70
    8
 71
    3
 72
    8
 73
    4
 74
    0
 42
1e-07
 43
1e-07
 40
0
 40
0
 40
0
 40
0
 40
1
 40
1
 40
1
 40
1
 10
72.20511387616854
 20
159.7389835619157
 30
0
 10
70.67373487616854
 20
159.7389355619158
 30
0
 10
69.27677487616853
 20
158.8646175619157
 30
0
 10
68.60740487616853
 20
157.4872775619157
 30
0
  0
LWPOLYLINE
  5
55
100
AcDbEntity
  8
0
  6
ByLayer
 62
    7
370
   -1
100
AcDbPolyline
 90
    2
 70
    0
 43
0
 10
386.6781008761685
 20
0.1085835619157325
 10
413.3182678761685
 20
0.1029835619157325
  0
SPLINE
  5
56
100
AcDbEntity
  8
0
  6
ByLayer
 62
    7
370
   -1
100
AcDbSpline
210
0
220
0
230
0
 70
    8
 71
    3
 72
    8
 73
    4
 74
    0
 42
1e-07
 43
1e-07
 40
0
 40
0
 40
0
 40
0
 40
1
 40
1
 40
1
 40
1
 10
417.3524778761685
 20
116.7174755619157
 30
0
 10
417.3524818761685
 20
117.7803225619157
 30
0
 10
416.9294888761685
 20
118.7994725619157
 30
0
 10
416.1768738761685
 20
119.5499475619157
 30
0
  0
SPLINE
  5
57
100
AcDbEntity
  8
0
  6
ByLayer
 62
    7
370
   -1
100
AcDbSpline
210
0
220
0
230
0
 70
    8
 71
    3
 72
    8
 73
    4
 74
    0
 42
1e-07
 43
1e-07
 40
0
 40
0
 40
0
 40
0
 40
1
 40
1
 40
1
 40
1
 10
416.1768738761685
 20
119.5499475619157
 30
0
 10
415.4242598761685
 20
120.3004235619157
 30
0
 10
414.4039098761685
 20
120.7205145619157
 30
0
 10
413.3410678761685
 20
120.7174855619157
 30
0
  0
LWPOLYLINE
  5
58
100
AcDbEntity
  8
0
  6
ByLayer
 62
    7
370
   -1
100
AcDbPolyline
 90
    2
 70
    0
 43
0
 10
0.05143287616853508
 20
116.6388755619157
 10
0.05143287616853508
 20
4.338594561915733
  0
SPLINE
  5
59
100
AcDbEntity
  8
0
  6
ByLayer
 62
    7
370
   -1
100
AcDbSpline
210
0
220
0
230
0
 70
    8
 71
    3
 72
    8
 73
    4
 74
    0
 42
1e-07
 43
1e-07
 40
0
 40
0
 40
0
 40
0
 40
1
 40
1
 40
1
 40
1
 10
4.051442876168535
 20
120.6388855619157
 30
0
 10
1.842298876168535
 20
120.6388855619157
 30
0
 10
0.05143287616853508
 20
118.8480195619157
 30
0
 10
0.05143287616853508
 20
116.6388755619157
 30
0
  0
LWPOLYLINE
  5
5A
100
AcDbEntity
  8
0
  6
ByLayer
 62
    7
370
   -1
100
AcDbPolyline
 90
    2
 70
    0
 43
0
 10
386.4981008761685
 20
120.7188855619157
 10
179.1496818761685
 20
120.6995855619157
  0
SPLINE
  5
5B
100
AcDbEntity
  8
0
  6
ByLayer
 62
    7
370
   -1
100
AcDbSpline
210
0
220
0
230
0
 70
    8
 71
    3
 72
    8
 73
    4
 74
    0
 42
1e-07
 43
1e-07
 40
0
 40
0
 40
0
 40
0
 40
1
 40
1
 40
1
 40
1
 10
0.05133287616853507
 20
4.338594561915733
 30
0
 10
-0.05651712383146492
 20
3.301494561915733
 30
0
 10
0.2590718761685351
 20
2.264796561915733
 30
0
 10
0.9264998761685351
 20
1.463706561915733
 30
0
  0
SPLINE
  5
5C
100
AcDbEntity
  8
0
  6
ByLayer
 62
    7
370
   -1
100
AcDbSpline
210
0
220
0
230
0
 70
    8
 71
    3
 72
    8
 73
    4
 74
    0
 42
1e-07
 43
1e-07
 40
0
 40
0
 40
0
 40
0
 40
1
 40
1
 40
1
 40
1
 10
0.9264998761685351
 20
1.463706561915733
 30
0
 10
1.593927876168535
 20
0.6626155619157325
 30
0
 10
2.556612876168535
 20
0.1650445619157324
 30
0
 10
3.596141876168535
 20
0.08388356191573246
 30
0
  0
LWPOLYLINE
  5
5D
100
AcDbEntity
  8
0
  6
ByLayer
 62
    7
370
   -1
100
AcDbPolyline
 90
    2
 70
    0
 43
0
 10
3.596141876168535
 20
0.08388356191573246
 10
386.6781008761685
 20
0.1085835619157325
  0
SPLINE
  5
5E
100
AcDbEntity
  8
0
  6
ByLayer
 62
    7
370
   -1
100
AcDbSpline
210
0
220
0
230
0
 70
    8
 71
    3
 72
    8
 73
    4
 74
    0
 42
1e-07
 43
1e-07
 40
0
 40
0
 40
0
 40
0
 40
1
 40
1
 40
1
 40
1
 10
413.3182678761685
 20
0.1029835619157325
 30
0
 10
414.3850148761685
 20
0.09388956191573247
 30
0
 10
415.4111998761685
 20
0.5112855619157325
 30
0
 10
416.1687358761685
 20
1.262399561915732
 30
0
  0
SPLINE
  5
5F
100
AcDbEntity
  8
0
  6
ByLayer
 62
    7
370
   -1
100
AcDbSpline
210
0
220
0
230
0
 70
    8
 71
    3
 72
    8
 73
    4
 74
    0
 42
1e-07
 43
1e-07
 40
0
 40
0
 40
0
 40
0
 40
1
 40
1
 40
1
 40
1
 10
416.1687358761685
 20
1.262399561915732
 30
0
 10
416.9262718761685
 20
2.013513561915733
 30
0
 10
417.3523898761685
 20
3.036107561915733
 30
0
 10
417.3523778761685
 20
4.102893561915733
 30
0
  0
LWPOLYLINE
  5
60
100
AcDbEntity
  8
0
  6
ByLayer
 62
    7
370
   -1
100
AcDbPolyline
 90
    2
 70
    0
 43
0
 10
413.3410678761685
 20
120.7174855619157
 10
386.4981008761685
 20
120.7188855619157
  0
LWPOLYLINE
  5
61
100
AcDbEntity
  8
0
  6
ByLayer
 62
    7
370
   -1
100
AcDbPolyline
 90
    2
 70
    0
 43
0
 10
48.19795387616853
 20
120.6388855619157
 10
4.051442876168535
 20
120.6388855619157
  0
LWPOLYLINE
  5
62
100
AcDbEntity
  8
0
  6
ByLayer
 62
    7
370
   -1
100
AcDbPolyline
 90
    2
 70
    0
 43
0
 10
175.5519728761685
 20
122.9512915619157
 10
158.7960308761685
 20
157.4872775619157
  0
LWPOLYLINE
  5
63
100
AcDbEntity
  8
0
  6
ByLayer
 62
    7
370
   -1
100
AcDbPolyline
 90
    2
 70
    0
 43
0
 10
68.60740487616853
 20
157.4872775619157
 10
51.79576287616854
 20
122.8905915619157
  0
SPLINE
  5
64
100
AcDbEntity
  8
0
  6
ByLayer
 62
    7
370
   -1
100
AcDbSpline
210
0
220
0
230
0
 70
    8
 71
    3
 72
    8
 73
    4
 74
    0
 42
1e-07
 43
1e-07
 40
0
 40
0
 40
0
 40
0
 40
1
 40
1
 40
1
 40
1
 10
158.7960308761685
 20
157.4872775619157
 30
0
 10
158.1266998761685
 20
158.8646995619157
 30
0
 10
156.7296568761685
 20
159.7390455619157
 30
0
 10
155.1982218761685
 20
159.7389835619157
 30
0
  0
LWPOLYLINE
  5
65
100
AcDbEntity
  8
0
  6
ByLayer
 62
    7
370
   -1
100
AcDbPolyline
 90
    2
 70
    0
 43
0
 10
72.20511387616854
 20
159.7389835619157
 10
155.1982218761685
 20
159.7389835619157
  0
ENDBLK
  5
50
330
4E
100
AcDbEntity
  8
0
100
AcDbBlockEnd
  0
ENDSEC
  0
SECTION
  2
ENTITIES
  0
INSERT
  5
66
100
AcDbEntity
  8
0
  6
ByLayer
 62
  256
370
   -1
100
AcDbBlockReference
  2
test
 10
0.0443671
 20
-0.0221836
 30
0
 41
1
 42
1
 43
0
 50
0
 70
    1
 71
    1
 44
0
 45
0
  0
SPLINE
  5
67
100
AcDbEntity
  8
screw-holes
  6
ByLayer
 62
    7
370
   -1
100
AcDbSpline
210
0
220
0
230
0
 70
    8
 71
    3
 72
    8
 73
    4
 74
    0
 42
1e-07
 43
1e-07
 40
0
 40
0
 40
0
 40
0
 40
1
 40
1
 40
1
 40
1
 10
167.88822
 20
124.256611
 30
0
 10
167.443311
 20
124.256611
 30
0
 10
167.04221
 20
123.988604
 30
0
 10
166.87195
 20
123.577561
 30
0
  0
SPLINE
  5
68
100
AcDbEntity
  8
screw-holes
  6
ByLayer
 62
    7
370
   -1
100
AcDbSpline
210
0
220
0
230
0
 70
    8
 71
    3
 72
    8
 73
    4
 74
    0
 42
1e-07
 43
1e-07
 40
0
 40
0
 40
0
 40
0
 40
1
 40
1
 40
1
 40
1
 10
166.87195
 20
123.577561
 30
0
 10
166.701691
 20
123.166518
 30
0
 10
166.795802
 20
122.693387
 30
0
 10
167.110401
 20
122.378789
 30
0
  0
SPLINE
  5
69
100
AcDbEntity
  8
screw-holes
  6
ByLayer
 62
    7
370
   -1
100
AcDbSpline
210
0
220
0
230
0
 70
    8
 71
    3
 72
    8
 73
    4
 74
    0
 42
1e-07
 43
1e-07
 40
0
 40
0
 40
0
 40
0
 40
1
 40
1
 40
1
 40
1
 10
167.110401
 20
122.378789
 30
0
 10
167.424999
 20
122.06419
 30
0
 10
167.89813
 20
121.970079
 30
0
 10
168.309173
 20
122.140338
 30
0
  0
SPLINE
  5
6A
100
AcDbEntity
  8
screw-holes
  6
ByLayer
 62
    7
370
   -1
100
AcDbSpline
210
0
220
0
230
0
 70
    8
 71
    3
 72
    8
 73
    4
 74
    0
 42
1e-07
 43
1e-07
 40
0
 40
0
 40
0
 40
0
 40
1
 40
1
 40
1
 40
1
 10
168.309173
 20
122.140338
 30
0
 10
168.720216
 20
122.310598
 30
0
 10
168.988223
 20
122.711699
 30
0
 10
168.988223
 20
123.156608
 30
0
  0
SPLINE
  5
6B
100
AcDbEntity
  8
screw-holes
  6
ByLayer
 62
    7
370
   -1
100
AcDbSpline
210
0
220
0
230
0
 70
    8
 71
    3
 72
    8
 73
    4
 74
    0
 42
1e-07
 43
1e-07
 40
0
 40
0
 40
0
 40
0
 40
1
 40
1
 40
1
 40
1
 10
168.988223
 20
123.156608
 30
0
 10
168.988223
 20
123.448347
 30
0
 10
168.87233
 20
123.728137
 30
0
 10
168.66604
 20
123.934428
 30
0
  0
SPLINE
  5
6C
100
AcDbEntity
  8
screw-holes
  6
ByLayer
 62
    7
370
   -1
100
AcDbSpline
210
0
220
0
230
0
 70
    8
 71
    3
 72
    8
 73
    4
 74
    0
 42
1e-07
 43
1e-07
 40
0
 40
0
 40
0
 40
0
 40
1
 40
1
 40
1
 40
1
 10
168.66604
 20
123.934428
 30
0
 10
168.459749
 20
124.140718
 30
0
 10
168.179959
 20
124.256611
 30
0
 10
167.88822
 20
124.256611
 30
0
  0
SPLINE
  5
6D
100
AcDbEntity
  8
screw-holes
  6
ByLayer
 62
    7
370
   -1
100
AcDbSpline
210
0
220
0
230
0
 70
    8
 71
    3
 72
    8
 73
    4
 74
    0
 42
1e-07
 43
1e-07
 40
0
 40
0
 40
0
 40
0
 40
1
 40
1
 40
1
 40
1
 10
132.898133
 20
122.156606
 30
0
 10
132.453223
 20
122.156606
 30
0
 10
132.052122
 20
121.888599
 30
0
 10
131.881863
 20
121.477556
 30
0
  0
SPLINE
  5
6E
100
AcDbEntity
  8
screw-holes
  6
ByLayer
 62
    7
370
   -1
100
AcDbSpline
210
0
220
0
230
0
 70
    8
 71
    3
 72
    8
 73
    4
 74
    0
 42
1e-07
 43
1e-07
 40
0
 40
0
 40
0
 40
0
 40
1
 40
1
 40
1
 40
1
 10
131.881863
 20
121.477556
 30
0
 10
131.711603
 20
121.066513
 30
0
 10
131.805715
 20
120.593382
 30
0
 10
132.120313
 20
120.278784
 30
0
  0
SPLINE
  5
6F
100
AcDbEntity
  8
screw-holes
  6
ByLayer
 62
    7
370
   -1
100
AcDbSpline
210
0
220
0
230
0
 70
    8
 71
    3
 72
    8
 73
    4
 74
    0
 42
1e-07
 43
1e-07
 40
0
 40
0
 40
0
 40
0
 40
1
 40
1
 40
1
 40
1
 10
132.120313
 20
120.278784
 30
0
 10
132.434912
 20
119.964185
 30
0
 10
132.908043
 20
119.870073
 30
0
 10
133.319086
 20
120.040333
 30
0
  0
SPLINE
  5
70
100
AcDbEntity
  8
screw-holes
  6
ByLayer
 62
    7
370
   -1
100
AcDbSpline
210
0
220
0
230
0
 70
    8
 71
    3
 72
    8
 73
    4
 74
    0
 42
1e-07
 43
1e-07
 40
0
 40
0
 40
0
 40
0
 40
1
 40
1
 40
1
 40
1
 10
133.319086
 20
120.040333
 30
0
 10
133.730128
 20
120.210593
 30
0
 10
133.998135
 20
120.611693
 30
0
 10
133.998135
 20
121.056603
 30
0
  0
SPLINE
  5
71
100
AcDbEntity
  8
screw-holes
  6
ByLayer
 62
    7
370
   -1
100
AcDbSpline
210
0
220
0
230
0
 70
    8
 71
    3
 72
    8
 73
    4
 74
    0
 42
1e-07
 43
1e-07
 40
0
 40
0
 40
0
 40
0
 40
1
 40
1
 40
1
 40
1
 10
133.998135
 20
121.056603
 30
0
 10
133.998135
 20
121.348342
 30
0
 10
133.882243
 20
121.628132
 30
0
 10
133.675952
 20
121.834422
 30
0
  0
SPLINE
  5
72
100
AcDbEntity
  8
screw-holes
  6
ByLayer
 62
    7
370
   -1
100
AcDbSpline
210
0
220
0
230
0
 70
    8
 71
    3
 72
    8
 73
    4
 74
    0
 42
1e-07
 43
1e-07
 40
0
 40
0
 40
0
 40
0
 40
1
 40
1
 40
1
 40
1
 10
133.675952
 20
121.834422
 30
0
 10
133.469662
 20
122.040713
 30
0
 10
133.189872
 20
122.156606
 30
0
 10
132.898133
 20
122.156606
 30
0
  0
SPLINE
  5
73
100
AcDbEntity
  8
screw-holes
  6
ByLayer
 62
    7
370
   -1
100
AcDbSpline
210
0
220
0
230
0
 70
    8
 71
    3
 72
    8
 73
    4
 74
    0
 42
1e-07
 43
1e-07
 40
0
 40
0
 40
0
 40
0
 40
1
 40
1
 40
1
 40
1
 10
73.81798499999999
 20
152.656682
 30
0
 10
73.373075
 20
152.656682
 30
0
 10
72.971974
 20
152.388675
 30
0
 10
72.801715
 20
151.977632
 30
0
  0
SPLINE
  5
74
100
AcDbEntity
  8
screw-holes
  6
ByLayer
 62
    7
370
   -1
100
AcDbSpline
210
0
220
0
230
0
 70
    8
 71
    3
 72
    8
 73
    4
 74
    0
 42
1e-07
 43
1e-07
 40
0
 40
0
 40
0
 40
0
 40
1
 40
1
 40
1
 40
1
 10
72.801715
 20
151.977632
 30
0
 10
72.631455
 20
151.566589
 30
0
 10
72.725567
 20
151.093459
 30
0
 10
73.040165
 20
150.77886
 30
0
  0
SPLINE
  5
75
100
AcDbEntity
  8
screw-holes
  6
ByLayer
 62
    7
370
   -1
100
AcDbSpline
210
0
220
0
230
0
 70
    8
 71
    3
 72
    8
 73
    4
 74
    0
 42
1e-07
 43
1e-07
 40
0
 40
0
 40
0
 40
0
 40
1
 40
1
 40
1
 40
1
 10
73.040165
 20
150.77886
 30
0
 10
73.354764
 20
150.464261
 30
0
 10
73.827895
 20
150.37015
 30
0
 10
74.238938
 20
150.540409
 30
0
  0
SPLINE
  5
76
100
AcDbEntity
  8
screw-holes
  6
ByLayer
 62
    7
370
   -1
100
AcDbSpline
210
0
220
0
230
0
 70
    8
 71
    3
 72
    8
 73
    4
 74
    0
 42
1e-07
 43
1e-07
 40
0
 40
0
 40
0
 40
0
 40
1
 40
1
 40
1
 40
1
 10
74.238938
 20
150.540409
 30
0
 10
74.64998
 20
150.710669
 30
0
 10
74.91798799999999
 20
151.11177
 30
0
 10
74.91798799999999
 20
151.556679
 30
0
  0
SPLINE
  5
77
100
AcDbEntity
  8
screw-holes
  6
ByLayer
 62
    7
370
   -1
100
AcDbSpline
210
0
220
0
230
0
 70
    8
 71
    3
 72
    8
 73
    4
 74
    0
 42
1e-07
 43
1e-07
 40
0
 40
0
 40
0
 40
0
 40
1
 40
1
 40
1
 40
1
 10
74.91798799999999
 20
151.556679
 30
0
 10
74.91798799999999
 20
151.848418
 30
0
 10
74.80209499999999
 20
152.128208
 30
0
 10
74.595804
 20
152.334499
 30
0
  0
SPLINE
  5
78
100
AcDbEntity
  8
screw-holes
  6
ByLayer
 62
    7
370
   -1
100
AcDbSpline
210
0
220
0
230
0
 70
    8
 71
    3
 72
    8
 73
    4
 74
    0
 42
1e-07
 43
1e-07
 40
0
 40
0
 40
0
 40
0
 40
1
 40
1
 40
1
 40
1
 10
74.595804
 20
152.334499
 30
0
 10
74.38951400000001
 20
152.540789
 30
0
 10
74.109724
 20
152.656682
 30
0
 10
73.81798499999999
 20
152.656682
 30
0
  0
SPLINE
  5
79
100
AcDbEntity
  8
screw-holes
  6
ByLayer
 62
    7
370
   -1
100
AcDbSpline
210
0
220
0
230
0
 70
    8
 71
    3
 72
    8
 73
    4
 74
    0
 42
1e-07
 43
1e-07
 40
0
 40
0
 40
0
 40
0
 40
1
 40
1
 40
1
 40
1
 10
3.79781
 20
109.296574
 30
0
 10
3.3529
 20
109.296574
 30
0
 10
2.951799
 20
109.028567
 30
0
 10
2.781539
 20
108.617524
 30
0
  0
SPLINE
  5
7A
100
AcDbEntity
  8
screw-holes
  6
ByLayer
 62
    7
370
   -1
100
AcDbSpline
210
0
220
0
230
0
 70
    8
 71
    3
 72
    8
 73
    4
 74
    0
 42
1e-07
 43
1e-07
 40
0
 40
0
 40
0
 40
0
 40
1
 40
1
 40
1
 40
1
 10
2.781539
 20
108.617524
 30
0
 10
2.61128
 20
108.206481
 30
0
 10
2.705392
 20
107.73335
 30
0
 10
3.01999
 20
107.418751
 30
0
  0
SPLINE
  5
7B
100
AcDbEntity
  8
screw-holes
  6
ByLayer
 62
    7
370
   -1
100
AcDbSpline
210
0
220
0
230
0
 70
    8
 71
    3
 72
    8
 73
    4
 74
    0
 42
1e-07
 43
1e-07
 40
0
 40
0
 40
0
 40
0
 40
1
 40
1
 40
1
 40
1
 10
3.01999
 20
107.418751
 30
0
 10
3.334589
 20
107.104153
 30
0
 10
3.807719
 20
107.010041
 30
0
 10
4.218762
 20
107.180301
 30
0
  0
SPLINE
  5
7C
100
AcDbEntity
  8
screw-holes
  6
ByLayer
 62
    7
370
   -1
100
AcDbSpline
210
0
220
0
230
0
 70
    8
 71
    3
 72
    8
 73
    4
 74
    0
 42
1e-07
 43
1e-07
 40
0
 40
0
 40
0
 40
0
 40
1
 40
1
 40
1
 40
1
 10
4.218762
 20
107.180301
 30
0
 10
4.629805
 20
107.35056
 30
0
 10
4.897812
 20
107.751661
 30
0
 10
4.897812
 20
108.196571
 30
0
  0
SPLINE
  5
7D
100
AcDbEntity
  8
screw-holes
  6
ByLayer
 62
    7
370
   -1
100
AcDbSpline
210
0
220
0
230
0
 70
    8
 71
    3
 72
    8
 73
    4
 74
    0
 42
1e-07
 43
1e-07
 40
0
 40
0
 40
0
 40
0
 40
1
 40
1
 40
1
 40
1
 10
4.897812
 20
108.196571
 30
0
 10
4.897812
 20
108.48831
 30
0
 10
4.781919
 20
108.7681
 30
0
 10
4.575629
 20
108.97439
 30
0
  0
SPLINE
  5
7E
100
AcDbEntity
  8
screw-holes
  6
ByLayer
 62
    7
370
   -1
100
AcDbSpline
210
0
220
0
230
0
 70
    8
 71
    3
 72
    8
 73
    4
 74
    0
 42
1e-07
 43
1e-07
 40
0
 40
0
 40
0
 40
0
 40
1
 40
1
 40
1
 40
1
 10
4.575629
 20
108.97439
 30
0
 10
4.369338
 20
109.180681
 30
0
 10
4.089548
 20
109.296574
 30
0
 10
3.79781
 20
109.296574
 30
0
  0
SPLINE
  5
7F
100
AcDbEntity
  8
screw-holes
  6
ByLayer
 62
    7
370
   -1
100
AcDbSpline
210
0
220
0
230
0
 70
    8
 71
    3
 72
    8
 73
    4
 74
    0
 42
1e-07
 43
1e-07
 40
0
 40
0
 40
0
 40
0
 40
1
 40
1
 40
1
 40
1
 10
336.038641
 20
60.896452
 30
0
 10
335.593732
 20
60.896452
 30
0
 10
335.192631
 20
60.628445
 30
0
 10
335.022371
 20
60.217403
 30
0
  0
SPLINE
  5
80
100
AcDbEntity
  8
screw-holes
  6
ByLayer
 62
    7
370
   -1
100
AcDbSpline
210
0
220
0
230
0
 70
    8
 71
    3
 72
    8
 73
    4
 74
    0
 42
1e-07
 43
1e-07
 40
0
 40
0
 40
0
 40
0
 40
1
 40
1
 40
1
 40
1
 10
335.022371
 20
60.217403
 30
0
 10
334.852112
 20
59.80636
 30
0
 10
334.946223
 20
59.333229
 30
0
 10
335.260822
 20
59.01863
 30
0
  0
SPLINE
  5
81
100
AcDbEntity
  8
screw-holes
  6
ByLayer
 62
    7
370
   -1
100
AcDbSpline
210
0
220
0
230
0
 70
    8
 71
    3
 72
    8
 73
    4
 74
    0
 42
1e-07
 43
1e-07
 40
0
 40
0
 40
0
 40
0
 40
1
 40
1
 40
1
 40
1
 10
335.260822
 20
59.01863
 30
0
 10
335.57542
 20
58.704032
 30
0
 10
336.048551
 20
58.60992
 30
0
 10
336.459594
 20
58.78018
 30
0
  0
SPLINE
  5
82
100
AcDbEntity
  8
screw-holes
  6
ByLayer
 62
    7
370
   -1
100
AcDbSpline
210
0
220
0
230
0
 70
    8
 71
    3
 72
    8
 73
    4
 74
    0
 42
1e-07
 43
1e-07
 40
0
 40
0
 40
0
 40
0
 40
1
 40
1
 40
1
 40
1
 10
336.459594
 20
58.78018
 30
0
 10
336.870637
 20
58.950439
 30
0
 10
337.138644
 20
59.35154
 30
0
 10
337.138644
 20
59.79645
 30
0
  0
SPLINE
  5
83
100
AcDbEntity
  8
screw-holes
  6
ByLayer
 62
    7
370
   -1
100
AcDbSpline
210
0
220
0
230
0
 70
    8
 71
    3
 72
    8
 73
    4
 74
    0
 42
1e-07
 43
1e-07
 40
0
 40
0
 40
0
 40
0
 40
1
 40
1
 40
1
 40
1
 10
337.138644
 20
59.79645
 30
0
 10
337.138644
 20
60.088189
 30
0
 10
337.022751
 20
60.367979
 30
0
 10
336.816461
 20
60.574269
 30
0
  0
SPLINE
  5
84
100
AcDbEntity
  8
screw-holes
  6
ByLayer
 62
    7
370
   -1
100
AcDbSpline
210
0
220
0
230
0
 70
    8
 71
    3
 72
    8
 73
    4
 74
    0
 42
1e-07
 43
1e-07
 40
0
 40
0
 40
0
 40
0
 40
1
 40
1
 40
1
 40
1
 10
336.816461
 20
60.574269
 30
0
 10
336.61017
 20
60.78056
 30
0
 10
336.33038
 20
60.896452
 30
0
 10
336.038641
 20
60.896452
 30
0
  0
SPLINE
  5
85
100
AcDbEntity
  8
screw-holes
  6
ByLayer
 62
    7
370
   -1
100
AcDbSpline
210
0
220
0
230
0
 70
    8
 71
    3
 72
    8
 73
    4
 74
    0
 42
1e-07
 43
1e-07
 40
0
 40
0
 40
0
 40
0
 40
1
 40
1
 40
1
 40
1
 10
239.958401
 20
42.106405
 30
0
 10
239.513491
 20
42.106405
 30
0
 10
239.11239
 20
41.838398
 30
0
 10
238.942131
 20
41.427355
 30
0
  0
SPLINE
  5
86
100
AcDbEntity
  8
screw-holes
  6
ByLayer
 62
    7
370
   -1
100
AcDbSpline
210
0
220
0
230
0
 70
    8
 71
    3
 72
    8
 73
    4
 74
    0
 42
1e-07
 43
1e-07
 40
0
 40
0
 40
0
 40
0
 40
1
 40
1
 40
1
 40
1
 10
238.942131
 20
41.427355
 30
0
 10
238.771871
 20
41.016313
 30
0
 10
238.865983
 20
40.543182
 30
0
 10
239.180581
 20
40.228583
 30
0
  0
SPLINE
  5
87
100
AcDbEntity
  8
screw-holes
  6
ByLayer
 62
    7
370
   -1
100
AcDbSpline
210
0
220
0
230
0
 70
    8
 71
    3
 72
    8
 73
    4
 74
    0
 42
1e-07
 43
1e-07
 40
0
 40
0
 40
0
 40
0
 40
1
 40
1
 40
1
 40
1
 10
239.180581
 20
40.228583
 30
0
 10
239.49518
 20
39.913985
 30
0
 10
239.968311
 20
39.819873
 30
0
 10
240.379354
 20
39.990133
 30
0
  0
SPLINE
  5
88
100
AcDbEntity
  8
screw-holes
  6
ByLayer
 62
    7
370
   -1
100
AcDbSpline
210
0
220
0
230
0
 70
    8
 71
    3
 72
    8
 73
    4
 74
    0
 42
1e-07
 43
1e-07
 40
0
 40
0
 40
0
 40
0
 40
1
 40
1
 40
1
 40
1
 10
240.379354
 20
39.990133
 30
0
 10
240.790396
 20
40.160392
 30
0
 10
241.058403
 20
40.561493
 30
0
 10
241.058403
 20
41.006403
 30
0
  0
SPLINE
  5
89
100
AcDbEntity
  8
screw-holes
  6
ByLayer
 62
    7
370
   -1
100
AcDbSpline
210
0
220
0
230
0
 70
    8
 71
    3
 72
    8
 73
    4
 74
    0
 42
1e-07
 43
1e-07
 40
0
 40
0
 40
0
 40
0
 40
1
 40
1
 40
1
 40
1
 10
241.058403
 20
41.006403
 30
0
 10
241.058403
 20
41.298142
 30
0
 10
240.942511
 20
41.577932
 30
0
 10
240.73622
 20
41.784222
 30
0
  0
SPLINE
  5
8A
100
AcDbEntity
  8
screw-holes
  6
ByLayer
 62
    7
370
   -1
100
AcDbSpline
210
0
220
0
230
0
 70
    8
 71
    3
 72
    8
 73
    4
 74
    0
 42
1e-07
 43
1e-07
 40
0
 40
0
 40
0
 40
0
 40
1
 40
1
 40
1
 40
1
 10
240.73622
 20
41.784222
 30
0
 10
240.52993
 20
41.990513
 30
0
 10
240.25014
 20
42.106405
 30
0
 10
239.958401
 20
42.106405
 30
0
  0
SPLINE
  5
8B
100
AcDbEntity
  8
screw-holes
  6
ByLayer
 62
    7
370
   -1
100
AcDbSpline
210
0
220
0
230
0
 70
    8
 71
    3
 72
    8
 73
    4
 74
    0
 42
1e-07
 43
1e-07
 40
0
 40
0
 40
0
 40
0
 40
1
 40
1
 40
1
 40
1
 10
278.768498
 20
79.366499
 30
0
 10
278.323588
 20
79.366499
 30
0
 10
277.922487
 20
79.09849199999999
 30
0
 10
277.752228
 20
78.687449
 30
0
  0
SPLINE
  5
8C
100
AcDbEntity
  8
screw-holes
  6
ByLayer
 62
    7
370
   -1
100
AcDbSpline
210
0
220
0
230
0
 70
    8
 71
    3
 72
    8
 73
    4
 74
    0
 42
1e-07
 43
1e-07
 40
0
 40
0
 40
0
 40
0
 40
1
 40
1
 40
1
 40
1
 10
277.752228
 20
78.687449
 30
0
 10
277.581968
 20
78.27640599999999
 30
0
 10
277.67608
 20
77.803275
 30
0
 10
277.990678
 20
77.488677
 30
0
  0
SPLINE
  5
8D
100
AcDbEntity
  8
screw-holes
  6
ByLayer
 62
    7
370
   -1
100
AcDbSpline
210
0
220
0
230
0
 70
    8
 71
    3
 72
    8
 73
    4
 74
    0
 42
1e-07
 43
1e-07
 40
0
 40
0
 40
0
 40
0
 40
1
 40
1
 40
1
 40
1
 10
277.990678
 20
77.488677
 30
0
 10
278.305277
 20
77.17407799999999
 30
0
 10
278.778408
 20
77.079966
 30
0
 10
279.189451
 20
77.250226
 30
0
  0
SPLINE
  5
8E
100
AcDbEntity
  8
screw-holes
  6
ByLayer
 62
    7
370
   -1
100
AcDbSpline
210
0
220
0
230
0
 70
    8
 71
    3
 72
    8
 73
    4
 74
    0
 42
1e-07
 43
1e-07
 40
0
 40
0
 40
0
 40
0
 40
1
 40
1
 40
1
 40
1
 10
279.189451
 20
77.250226
 30
0
 10
279.600494
 20
77.420485
 30
0
 10
279.868501
 20
77.821586
 30
0
 10
279.868501
 20
78.266496
 30
0
  0
SPLINE
  5
8F
100
AcDbEntity
  8
screw-holes
  6
ByLayer
 62
    7
370
   -1
100
AcDbSpline
210
0
220
0
230
0
 70
    8
 71
    3
 72
    8
 73
    4
 74
    0
 42
1e-07
 43
1e-07
 40
0
 40
0
 40
0
 40
0
 40
1
 40
1
 40
1
 40
1
 10
279.868501
 20
78.266496
 30
0
 10
279.868501
 20
78.558235
 30
0
 10
279.752608
 20
78.838025
 30
0
 10
279.546317
 20
79.044315
 30
0
  0
SPLINE
  5
90
100
AcDbEntity
  8
screw-holes
  6
ByLayer
 62
    7
370
   -1
100
AcDbSpline
210
0
220
0
230
0
 70
    8
 71
    3
 72
    8
 73
    4
 74
    0
 42
1e-07
 43
1e-07
 40
0
 40
0
 40
0
 40
0
 40
1
 40
1
 40
1
 40
1
 10
279.546317
 20
79.044315
 30
0
 10
279.340027
 20
79.250606
 30
0
 10
279.060237
 20
79.366499
 30
0
 10
278.768498
 20
79.366499
 30
0
  0
SPLINE
  5
91
100
AcDbEntity
  8
screw-holes
  6
ByLayer
 62
    7
370
   -1
100
AcDbSpline
210
0
220
0
230
0
 70
    8
 71
    3
 72
    8
 73
    4
 74
    0
 42
1e-07
 43
1e-07
 40
0
 40
0
 40
0
 40
0
 40
1
 40
1
 40
1
 40
1
 10
144.578162
 20
87.626519
 30
0
 10
144.133252
 20
87.626519
 30
0
 10
143.732151
 20
87.358512
 30
0
 10
143.561892
 20
86.947469
 30
0
  0
SPLINE
  5
92
100
AcDbEntity
  8
screw-holes
  6
ByLayer
 62
    7
370
   -1
100
AcDbSpline
210
0
220
0
230
0
 70
    8
 71
    3
 72
    8
 73
    4
 74
    0
 42
1e-07
 43
1e-07
 40
0
 40
0
 40
0
 40
0
 40
1
 40
1
 40
1
 40
1
 10
143.561892
 20
86.947469
 30
0
 10
143.391632
 20
86.536427
 30
0
 10
143.485744
 20
86.06329599999999
 30
0
 10
143.800343
 20
85.74869700000001
 30
0
  0
SPLINE
  5
93
100
AcDbEntity
  8
screw-holes
  6
ByLayer
 62
    7
370
   -1
100
AcDbSpline
210
0
220
0
230
0
 70
    8
 71
    3
 72
    8
 73
    4
 74
    0
 42
1e-07
 43
1e-07
 40
0
 40
0
 40
0
 40
0
 40
1
 40
1
 40
1
 40
1
 10
143.800343
 20
85.74869700000001
 30
0
 10
144.114941
 20
85.434099
 30
0
 10
144.588072
 20
85.33998699999999
 30
0
 10
144.999115
 20
85.51024700000001
 30
0
  0
SPLINE
  5
94
100
AcDbEntity
  8
screw-holes
  6
ByLayer
 62
    7
370
   -1
100
AcDbSpline
210
0
220
0
230
0
 70
    8
 71
    3
 72
    8
 73
    4
 74
    0
 42
1e-07
 43
1e-07
 40
0
 40
0
 40
0
 40
0
 40
1
 40
1
 40
1
 40
1
 10
144.999115
 20
85.51024700000001
 30
0
 10
145.410158
 20
85.68050599999999
 30
0
 10
145.678165
 20
86.08160700000001
 30
0
 10
145.678165
 20
86.526517
 30
0
  0
SPLINE
  5
95
100
AcDbEntity
  8
screw-holes
  6
ByLayer
 62
    7
370
   -1
100
AcDbSpline
210
0
220
0
230
0
 70
    8
 71
    3
 72
    8
 73
    4
 74
    0
 42
1e-07
 43
1e-07
 40
0
 40
0
 40
0
 40
0
 40
1
 40
1
 40
1
 40
1
 10
145.678165
 20
86.526517
 30
0
 10
145.678165
 20
86.81825499999999
 30
0
 10
145.562272
 20
87.098045
 30
0
 10
145.355981
 20
87.30433600000001
 30
0
  0
SPLINE
  5
96
100
AcDbEntity
  8
screw-holes
  6
ByLayer
 62
    7
370
   -1
100
AcDbSpline
210
0
220
0
230
0
 70
    8
 71
    3
 72
    8
 73
    4
 74
    0
 42
1e-07
 43
1e-07
 40
0
 40
0
 40
0
 40
0
 40
1
 40
1
 40
1
 40
1
 10
145.355981
 20
87.30433600000001
 30
0
 10
145.149691
 20
87.510627
 30
0
 10
144.869901
 20
87.626519
 30
0
 10
144.578162
 20
87.626519
 30
0
  0
SPLINE
  5
97
100
AcDbEntity
  8
screw-holes
  6
ByLayer
 62
    7
370
   -1
100
AcDbSpline
210
0
220
0
230
0
 70
    8
 71
    3
 72
    8
 73
    4
 74
    0
 42
1e-07
 43
1e-07
 40
0
 40
0
 40
0
 40
0
 40
1
 40
1
 40
1
 40
1
 10
202.978308
 20
61.146453
 30
0
 10
202.533399
 20
61.146453
 30
0
 10
202.132298
 20
60.878446
 30
0
 10
201.962038
 20
60.467403
 30
0
  0
SPLINE
  5
98
100
AcDbEntity
  8
screw-holes
  6
ByLayer
 62
    7
370
   -1
100
AcDbSpline
210
0
220
0
230
0
 70
    8
 71
    3
 72
    8
 73
    4
 74
    0
 42
1e-07
 43
1e-07
 40
0
 40
0
 40
0
 40
0
 40
1
 40
1
 40
1
 40
1
 10
201.962038
 20
60.467403
 30
0
 10
201.791779
 20
60.05636
 30
0
 10
201.88589
 20
59.583229
 30
0
 10
202.200489
 20
59.268631
 30
0
  0
SPLINE
  5
99
100
AcDbEntity
  8
screw-holes
  6
ByLayer
 62
    7
370
   -1
100
AcDbSpline
210
0
220
0
230
0
 70
    8
 71
    3
 72
    8
 73
    4
 74
    0
 42
1e-07
 43
1e-07
 40
0
 40
0
 40
0
 40
0
 40
1
 40
1
 40
1
 40
1
 10
202.200489
 20
59.268631
 30
0
 10
202.515087
 20
58.954032
 30
0
 10
202.988218
 20
58.859921
 30
0
 10
203.399261
 20
59.03018
 30
0
  0
SPLINE
  5
9A
100
AcDbEntity
  8
screw-holes
  6
ByLayer
 62
    7
370
   -1
100
AcDbSpline
210
0
220
0
230
0
 70
    8
 71
    3
 72
    8
 73
    4
 74
    0
 42
1e-07
 43
1e-07
 40
0
 40
0
 40
0
 40
0
 40
1
 40
1
 40
1
 40
1
 10
203.399261
 20
59.03018
 30
0
 10
203.810304
 20
59.20044
 30
0
 10
204.078311
 20
59.601541
 30
0
 10
204.078311
 20
60.04645
 30
0
  0
SPLINE
  5
9B
100
AcDbEntity
  8
screw-holes
  6
ByLayer
 62
    7
370
   -1
100
AcDbSpline
210
0
220
0
230
0
 70
    8
 71
    3
 72
    8
 73
    4
 74
    0
 42
1e-07
 43
1e-07
 40
0
 40
0
 40
0
 40
0
 40
1
 40
1
 40
1
 40
1
 10
204.078311
 20
60.04645
 30
0
 10
204.078311
 20
60.338189
 30
0
 10
203.962418
 20
60.617979
 30
0
 10
203.756128
 20
60.82427
 30
0
  0
SPLINE
  5
9C
100
AcDbEntity
  8
screw-holes
  6
ByLayer
 62
    7
370
   -1
100
AcDbSpline
210
0
220
0
230
0
 70
    8
 71
    3
 72
    8
 73
    4
 74
    0
 42
1e-07
 43
1e-07
 40
0
 40
0
 40
0
 40
0
 40
1
 40
1
 40
1
 40
1
 10
203.756128
 20
60.82427
 30
0
 10
203.549837
 20
61.03056
 30
0
 10
203.270047
 20
61.146453
 30
0
 10
202.978308
 20
61.146453
 30
0
  0
SPLINE
  5
9D
100
AcDbEntity
  8
screw-holes
  6
ByLayer
 62
    7
370
   -1
100
AcDbSpline
210
0
220
0
230
0
 70
    8
 71
    3
 72
    8
 73
    4
 74
    0
 42
1e-07
 43
1e-07
 40
0
 40
0
 40
0
 40
0
 40
1
 40
1
 40
1
 40
1
 10
185.068263
 20
4.696312
 30
0
 10
184.623354
 20
4.696312
 30
0
 10
184.222253
 20
4.428305
 30
0
 10
184.051993
 20
4.017262
 30
0
  0
SPLINE
  5
9E
100
AcDbEntity
  8
screw-holes
  6
ByLayer
 62
    7
370
   -1
100
AcDbSpline
210
0
220
0
230
0
 70
    8
 71
    3
 72
    8
 73
    4
 74
    0
 42
1e-07
 43
1e-07
 40
0
 40
0
 40
0
 40
0
 40
1
 40
1
 40
1
 40
1
 10
184.051993
 20
4.017262
 30
0
 10
183.881734
 20
3.606219
 30
0
 10
183.975845
 20
3.133088
 30
0
 10
184.290444
 20
2.81849
 30
0
  0
SPLINE
  5
9F
100
AcDbEntity
  8
screw-holes
  6
ByLayer
 62
    7
370
   -1
100
AcDbSpline
210
0
220
0
230
0
 70
    8
 71
    3
 72
    8
 73
    4
 74
    0
 42
1e-07
 43
1e-07
 40
0
 40
0
 40
0
 40
0
 40
1
 40
1
 40
1
 40
1
 10
186.168266
 20
3.596309
 30
0
 10
186.168266
 20
3.888048
 30
0
 10
186.052373
 20
4.167838
 30
0
 10
185.846083
 20
4.374128
 30
0
  0
SPLINE
  5
A0
100
AcDbEntity
  8
screw-holes
  6
ByLayer
 62
    7
370
   -1
100
AcDbSpline
210
0
220
0
230
0
 70
    8
 71
    3
 72
    8
 73
    4
 74
    0
 42
1e-07
 43
1e-07
 40
0
 40
0
 40
0
 40
0
 40
1
 40
1
 40
1
 40
1
 10
185.846083
 20
4.374128
 30
0
 10
185.639792
 20
4.580419
 30
0
 10
185.360002
 20
4.696312
 30
0
 10
185.068263
 20
4.696312
 30
0
  0
SPLINE
  5
A1
100
AcDbEntity
  8
screw-holes
  6
ByLayer
 62
    7
370
   -1
100
AcDbSpline
210
0
220
0
230
0
 70
    8
 71
    3
 72
    8
 73
    4
 74
    0
 42
1e-07
 43
1e-07
 40
0
 40
0
 40
0
 40
0
 40
1
 40
1
 40
1
 40
1
 10
240.848403
 20
22.976358
 30
0
 10
240.403493
 20
22.976358
 30
0
 10
240.002392
 20
22.70835
 30
0
 10
239.832133
 20
22.297308
 30
0
  0
SPLINE
  5
A2
100
AcDbEntity
  8
screw-holes
  6
ByLayer
 62
    7
370
   -1
100
AcDbSpline
210
0
220
0
230
0
 70
    8
 71
    3
 72
    8
 73
    4
 74
    0
 42
1e-07
 43
1e-07
 40
0
 40
0
 40
0
 40
0
 40
1
 40
1
 40
1
 40
1
 10
239.832133
 20
22.297308
 30
0
 10
239.661873
 20
21.886265
 30
0
 10
239.755985
 20
21.413134
 30
0
 10
240.070584
 20
21.098535
 30
0
  0
SPLINE
  5
A3
100
AcDbEntity
  8
screw-holes
  6
ByLayer
 62
    7
370
   -1
100
AcDbSpline
210
0
220
0
230
0
 70
    8
 71
    3
 72
    8
 73
    4
 74
    0
 42
1e-07
 43
1e-07
 40
0
 40
0
 40
0
 40
0
 40
1
 40
1
 40
1
 40
1
 10
240.070584
 20
21.098535
 30
0
 10
240.385182
 20
20.783937
 30
0
 10
240.858313
 20
20.689825
 30
0
 10
241.269356
 20
20.860085
 30
0
  0
SPLINE
  5
A4
100
AcDbEntity
  8
screw-holes
  6
ByLayer
 62
    7
370
   -1
100
AcDbSpline
210
0
220
0
230
0
 70
    8
 71
    3
 72
    8
 73
    4
 74
    0
 42
1e-07
 43
1e-07
 40
0
 40
0
 40
0
 40
0
 40
1
 40
1
 40
1
 40
1
 10
241.269356
 20
20.860085
 30
0
 10
241.680399
 20
21.030344
 30
0
 10
241.948406
 20
21.431445
 30
0
 10
241.948406
 20
21.876355
 30
0
  0
SPLINE
  5
A5
100
AcDbEntity
  8
screw-holes
  6
ByLayer
 62
    7
370
   -1
100
AcDbSpline
210
0
220
0
230
0
 70
    8
 71
    3
 72
    8
 73
    4
 74
    0
 42
1e-07
 43
1e-07
 40
0
 40
0
 40
0
 40
0
 40
1
 40
1
 40
1
 40
1
 10
241.948406
 20
21.876355
 30
0
 10
241.948406
 20
22.168094
 30
0
 10
241.832513
 20
22.447884
 30
0
 10
241.626222
 20
22.654174
 30
0
  0
SPLINE
  5
A6
100
AcDbEntity
  8
screw-holes
  6
ByLayer
 62
    7
370
   -1
100
AcDbSpline
210
0
220
0
230
0
 70
    8
 71
    3
 72
    8
 73
    4
 74
    0
 42
1e-07
 43
1e-07
 40
0
 40
0
 40
0
 40
0
 40
1
 40
1
 40
1
 40
1
 10
241.626222
 20
22.654174
 30
0
 10
241.419932
 20
22.860465
 30
0
 10
241.140142
 20
22.976358
 30
0
 10
240.848403
 20
22.976358
 30
0
  0
SPLINE
  5
A7
100
AcDbEntity
  8
screw-holes
  6
ByLayer
 62
    7
370
   -1
100
AcDbSpline
210
0
220
0
230
0
 70
    8
 71
    3
 72
    8
 73
    4
 74
    0
 42
1e-07
 43
1e-07
 40
0
 40
0
 40
0
 40
0
 40
1
 40
1
 40
1
 40
1
 10
298.45228
 20
116.767544
 30
0
 10
298.28202
 20
116.356501
 30
0
 10
298.376132
 20
115.88337
 30
0
 10
298.69073
 20
115.568772
 30
0
  0
SPLINE
  5
A8
100
AcDbEntity
  8
screw-holes
  6
ByLayer
 62
    7
370
   -1
100
AcDbSpline
210
0
220
0
230
0
 70
    8
 71
    3
 72
    8
 73
    4
 74
    0
 42
1e-07
 43
1e-07
 40
0
 40
0
 40
0
 40
0
 40
1
 40
1
 40
1
 40
1
 10
298.69073
 20
115.568772
 30
0
 10
299.005329
 20
115.254173
 30
0
 10
299.47846
 20
115.160062
 30
0
 10
299.889502
 20
115.330321
 30
0
  0
SPLINE
  5
A9
100
AcDbEntity
  8
screw-holes
  6
ByLayer
 62
    7
370
   -1
100
AcDbSpline
210
0
220
0
230
0
 70
    8
 71
    3
 72
    8
 73
    4
 74
    0
 42
1e-07
 43
1e-07
 40
0
 40
0
 40
0
 40
0
 40
1
 40
1
 40
1
 40
1
 10
299.889502
 20
115.330321
 30
0
 10
300.300545
 20
115.500581
 30
0
 10
300.568552
 20
115.901682
 30
0
 10
300.568552
 20
116.346591
 30
0
  0
SPLINE
  5
AA
100
AcDbEntity
  8
screw-holes
  6
ByLayer
 62
    7
370
   -1
100
AcDbSpline
210
0
220
0
230
0
 70
    8
 71
    3
 72
    8
 73
    4
 74
    0
 42
1e-07
 43
1e-07
 40
0
 40
0
 40
0
 40
0
 40
1
 40
1
 40
1
 40
1
 10
300.568552
 20
116.346591
 30
0
 10
300.568552
 20
116.63833
 30
0
 10
300.45266
 20
116.91812
 30
0
 10
300.246369
 20
117.124411
 30
0
  0
SPLINE
  5
AB
100
AcDbEntity
  8
screw-holes
  6
ByLayer
 62
    7
370
   -1
100
AcDbSpline
210
0
220
0
230
0
 70
    8
 71
    3
 72
    8
 73
    4
 74
    0
 42
1e-07
 43
1e-07
 40
0
 40
0
 40
0
 40
0
 40
1
 40
1
 40
1
 40
1
 10
299.318549
 20
5.216313
 30
0
 10
298.87364
 20
5.216313
 30
0
 10
298.472539
 20
4.948306
 30
0
 10
298.302279
 20
4.537263
 30
0
  0
SPLINE
  5
AC
100
AcDbEntity
  8
screw-holes
  6
ByLayer
 62
    7
370
   -1
100
AcDbSpline
210
0
220
0
230
0
 70
    8
 71
    3
 72
    8
 73
    4
 74
    0
 42
1e-07
 43
1e-07
 40
0
 40
0
 40
0
 40
0
 40
1
 40
1
 40
1
 40
1
 10
298.302279
 20
4.537263
 30
0
 10
298.13202
 20
4.12622
 30
0
 10
298.226131
 20
3.653089
 30
0
 10
298.54073
 20
3.338491
 30
0
  0
SPLINE
  5
AD
100
AcDbEntity
  8
screw-holes
  6
ByLayer
 62
    7
370
   -1
100
AcDbSpline
210
0
220
0
230
0
 70
    8
 71
    3
 72
    8
 73
    4
 74
    0
 42
1e-07
 43
1e-07
 40
0
 40
0
 40
0
 40
0
 40
1
 40
1
 40
1
 40
1
 10
298.54073
 20
3.338491
 30
0
 10
298.855328
 20
3.023892
 30
0
 10
299.328459
 20
2.929781
 30
0
 10
299.739502
 20
3.10004
 30
0
  0
SPLINE
  5
AE
100
AcDbEntity
  8
screw-holes
  6
ByLayer
 62
    7
370
   -1
100
AcDbSpline
210
0
220
0
230
0
 70
    8
 71
    3
 72
    8
 73
    4
 74
    0
 42
1e-07
 43
1e-07
 40
0
 40
0
 40
0
 40
0
 40
1
 40
1
 40
1
 40
1
 10
299.739502
 20
3.10004
 30
0
 10
300.150545
 20
3.2703
 30
0
 10
300.418552
 20
3.671401
 30
0
 10
300.418552
 20
4.11631
 30
0
  0
SPLINE
  5
AF
100
AcDbEntity
  8
screw-holes
  6
ByLayer
 62
    7
370
   -1
100
AcDbSpline
210
0
220
0
230
0
 70
    8
 71
    3
 72
    8
 73
    4
 74
    0
 42
1e-07
 43
1e-07
 40
0
 40
0
 40
0
 40
0
 40
1
 40
1
 40
1
 40
1
 10
300.418552
 20
4.11631
 30
0
 10
300.418552
 20
4.408049
 30
0
 10
300.302659
 20
4.687839
 30
0
 10
300.096369
 20
4.89413
 30
0
  0
SPLINE
  5
B0
100
AcDbEntity
  8
screw-holes
  6
ByLayer
 62
    7
370
   -1
100
AcDbSpline
210
0
220
0
230
0
 70
    8
 71
    3
 72
    8
 73
    4
 74
    0
 42
1e-07
 43
1e-07
 40
0
 40
0
 40
0
 40
0
 40
1
 40
1
 40
1
 40
1
 10
300.096369
 20
4.89413
 30
0
 10
299.890078
 20
5.10042
 30
0
 10
299.610288
 20
5.216313
 30
0
 10
299.318549
 20
5.216313
 30
0
  0
SPLINE
  5
B1
100
AcDbEntity
  8
screw-holes
  6
ByLayer
 62
    7
370
   -1
100
AcDbSpline
210
0
220
0
230
0
 70
    8
 71
    3
 72
    8
 73
    4
 74
    0
 42
1e-07
 43
1e-07
 40
0
 40
0
 40
0
 40
0
 40
1
 40
1
 40
1
 40
1
 10
355.482422
 20
116.707544
 30
0
 10
355.312163
 20
116.296501
 30
0
 10
355.406274
 20
115.82337
 30
0
 10
355.720873
 20
115.508772
 30
0
  0
SPLINE
  5
B2
100
AcDbEntity
  8
screw-holes
  6
ByLayer
 62
    7
370
   -1
100
AcDbSpline
210
0
220
0
230
0
 70
    8
 71
    3
 72
    8
 73
    4
 74
    0
 42
1e-07
 43
1e-07
 40
0
 40
0
 40
0
 40
0
 40
1
 40
1
 40
1
 40
1
 10
355.720873
 20
115.508772
 30
0
 10
356.035472
 20
115.194173
 30
0
 10
356.508602
 20
115.100062
 30
0
 10
356.919645
 20
115.270321
 30
0
  0
SPLINE
  5
B3
100
AcDbEntity
  8
screw-holes
  6
ByLayer
 62
    7
370
   -1
100
AcDbSpline
210
0
220
0
230
0
 70
    8
 71
    3
 72
    8
 73
    4
 74
    0
 42
1e-07
 43
1e-07
 40
0
 40
0
 40
0
 40
0
 40
1
 40
1
 40
1
 40
1
 10
356.919645
 20
115.270321
 30
0
 10
357.330688
 20
115.440581
 30
0
 10
357.598695
 20
115.841682
 30
0
 10
357.598695
 20
116.286591
 30
0
  0
SPLINE
  5
B4
100
AcDbEntity
  8
screw-holes
  6
ByLayer
 62
    7
370
   -1
100
AcDbSpline
210
0
220
0
230
0
 70
    8
 71
    3
 72
    8
 73
    4
 74
    0
 42
1e-07
 43
1e-07
 40
0
 40
0
 40
0
 40
0
 40
1
 40
1
 40
1
 40
1
 10
357.598695
 20
116.286591
 30
0
 10
357.598695
 20
116.57833
 30
0
 10
357.482802
 20
116.85812
 30
0
 10
357.276512
 20
117.064411
 30
0
  0
SPLINE
  5
B5
100
AcDbEntity
  8
screw-holes
  6
ByLayer
 62
    7
370
   -1
100
AcDbSpline
210
0
220
0
230
0
 70
    8
 71
    3
 72
    8
 73
    4
 74
    0
 42
1e-07
 43
1e-07
 40
0
 40
0
 40
0
 40
0
 40
1
 40
1
 40
1
 40
1
 10
354.182419
 20
22.297308
 30
0
 10
354.01216
 20
21.886265
 30
0
 10
354.106271
 20
21.413134
 30
0
 10
354.42087
 20
21.098535
 30
0
  0
SPLINE
  5
B6
100
AcDbEntity
  8
screw-holes
  6
ByLayer
 62
    7
370
   -1
100
AcDbSpline
210
0
220
0
230
0
 70
    8
 71
    3
 72
    8
 73
    4
 74
    0
 42
1e-07
 43
1e-07
 40
0
 40
0
 40
0
 40
0
 40
1
 40
1
 40
1
 40
1
 10
354.42087
 20
21.098535
 30
0
 10
354.735468
 20
20.783937
 30
0
 10
355.208599
 20
20.689825
 30
0
 10
355.619642
 20
20.860085
 30
0
  0
SPLINE
  5
B7
100
AcDbEntity
  8
screw-holes
  6
ByLayer
 62
    7
370
   -1
100
AcDbSpline
210
0
220
0
230
0
 70
    8
 71
    3
 72
    8
 73
    4
 74
    0
 42
1e-07
 43
1e-07
 40
0
 40
0
 40
0
 40
0
 40
1
 40
1
 40
1
 40
1
 10
355.619642
 20
20.860085
 30
0
 10
356.030685
 20
21.030344
 30
0
 10
356.298692
 20
21.431445
 30
0
 10
356.298692
 20
21.876355
 30
0
  0
SPLINE
  5
B8
100
AcDbEntity
  8
screw-holes
  6
ByLayer
 62
    7
370
   -1
100
AcDbSpline
210
0
220
0
230
0
 70
    8
 71
    3
 72
    8
 73
    4
 74
    0
 42
1e-07
 43
1e-07
 40
0
 40
0
 40
0
 40
0
 40
1
 40
1
 40
1
 40
1
 10
356.298692
 20
21.876355
 30
0
 10
356.298692
 20
22.168094
 30
0
 10
356.182799
 20
22.447884
 30
0
 10
355.976509
 20
22.654174
 30
0
  0
SPLINE
  5
B9
100
AcDbEntity
  8
screw-holes
  6
ByLayer
 62
    7
370
   -1
100
AcDbSpline
210
0
220
0
230
0
 70
    8
 71
    3
 72
    8
 73
    4
 74
    0
 42
1e-07
 43
1e-07
 40
0
 40
0
 40
0
 40
0
 40
1
 40
1
 40
1
 40
1
 10
355.976509
 20
22.654174
 30
0
 10
355.770218
 20
22.860465
 30
0
 10
355.490428
 20
22.976358
 30
0
 10
355.198689
 20
22.976358
 30
0
  0
SPLINE
  5
BA
100
AcDbEntity
  8
screw-holes
  6
ByLayer
 62
    7
370
   -1
100
AcDbSpline
210
0
220
0
230
0
 70
    8
 71
    3
 72
    8
 73
    4
 74
    0
 42
1e-07
 43
1e-07
 40
0
 40
0
 40
0
 40
0
 40
1
 40
1
 40
1
 40
1
 10
72.927983
 20
10.166325
 30
0
 10
72.483073
 20
10.166325
 30
0
 10
72.08197199999999
 20
9.898318
 30
0
 10
71.91171300000001
 20
9.487276
 30
0
  0
SPLINE
  5
BB
100
AcDbEntity
  8
screw-holes
  6
ByLayer
 62
    7
370
   -1
100
AcDbSpline
210
0
220
0
230
0
 70
    8
 71
    3
 72
    8
 73
    4
 74
    0
 42
1e-07
 43
1e-07
 40
0
 40
0
 40
0
 40
0
 40
1
 40
1
 40
1
 40
1
 10
71.91171300000001
 20
9.487276
 30
0
 10
71.74145300000001
 20
9.076233
 30
0
 10
71.835565
 20
8.603102
 30
0
 10
72.15016300000001
 20
8.288503
 30
0
  0
SPLINE
  5
BC
100
AcDbEntity
  8
screw-holes
  6
ByLayer
 62
    7
370
   -1
100
AcDbSpline
210
0
220
0
230
0
 70
    8
 71
    3
 72
    8
 73
    4
 74
    0
 42
1e-07
 43
1e-07
 40
0
 40
0
 40
0
 40
0
 40
1
 40
1
 40
1
 40
1
 10
72.15016300000001
 20
8.288503
 30
0
 10
72.46476199999999
 20
7.973905
 30
0
 10
72.937893
 20
7.879793
 30
0
 10
73.348935
 20
8.050053
 30
0
  0
SPLINE
  5
BD
100
AcDbEntity
  8
screw-holes
  6
ByLayer
 62
    7
370
   -1
100
AcDbSpline
210
0
220
0
230
0
 70
    8
 71
    3
 72
    8
 73
    4
 74
    0
 42
1e-07
 43
1e-07
 40
0
 40
0
 40
0
 40
0
 40
1
 40
1
 40
1
 40
1
 10
73.348935
 20
8.050053
 30
0
 10
73.759978
 20
8.220312
 30
0
 10
74.027985
 20
8.621413
 30
0
 10
74.027985
 20
9.066323000000001
 30
0
  0
SPLINE
  5
BE
100
AcDbEntity
  8
screw-holes
  6
ByLayer
 62
    7
370
   -1
100
AcDbSpline
210
0
220
0
230
0
 70
    8
 71
    3
 72
    8
 73
    4
 74
    0
 42
1e-07
 43
1e-07
 40
0
 40
0
 40
0
 40
0
 40
1
 40
1
 40
1
 40
1
 10
74.027985
 20
9.066323000000001
 30
0
 10
74.027985
 20
9.358062
 30
0
 10
73.912092
 20
9.637852000000001
 30
0
 10
73.70580200000001
 20
9.844142
 30
0
  0
SPLINE
  5
BF
100
AcDbEntity
  8
screw-holes
  6
ByLayer
 62
    7
370
   -1
100
AcDbSpline
210
0
220
0
230
0
 70
    8
 71
    3
 72
    8
 73
    4
 74
    0
 42
1e-07
 43
1e-07
 40
0
 40
0
 40
0
 40
0
 40
1
 40
1
 40
1
 40
1
 10
73.70580200000001
 20
9.844142
 30
0
 10
73.499511
 20
10.050433
 30
0
 10
73.21972100000001
 20
10.166325
 30
0
 10
72.927983
 20
10.166325
 30
0
  0
SPLINE
  5
C0
100
AcDbEntity
  8
screw-holes
  6
ByLayer
 62
    7
370
   -1
100
AcDbSpline
210
0
220
0
230
0
 70
    8
 71
    3
 72
    8
 73
    4
 74
    0
 42
1e-07
 43
1e-07
 40
0
 40
0
 40
0
 40
0
 40
1
 40
1
 40
1
 40
1
 10
123.078108
 20
99.156548
 30
0
 10
122.633199
 20
99.156548
 30
0
 10
122.232098
 20
98.888541
 30
0
 10
122.061838
 20
98.477498
 30
0
  0
SPLINE
  5
C1
100
AcDbEntity
  8
screw-holes
  6
ByLayer
 62
    7
370
   -1
100
AcDbSpline
210
0
220
0
230
0
 70
    8
 71
    3
 72
    8
 73
    4
 74
    0
 42
1e-07
 43
1e-07
 40
0
 40
0
 40
0
 40
0
 40
1
 40
1
 40
1
 40
1
 10
122.061838
 20
98.477498
 30
0
 10
121.891579
 20
98.066455
 30
0
 10
121.98569
 20
97.59332499999999
 30
0
 10
122.300289
 20
97.27872600000001
 30
0
  0
SPLINE
  5
C2
100
AcDbEntity
  8
screw-holes
  6
ByLayer
 62
    7
370
   -1
100
AcDbSpline
210
0
220
0
230
0
 70
    8
 71
    3
 72
    8
 73
    4
 74
    0
 42
1e-07
 43
1e-07
 40
0
 40
0
 40
0
 40
0
 40
1
 40
1
 40
1
 40
1
 10
122.300289
 20
97.27872600000001
 30
0
 10
122.614887
 20
96.964127
 30
0
 10
123.088018
 20
96.87001600000001
 30
0
 10
123.499061
 20
97.04027499999999
 30
0
  0
SPLINE
  5
C3
100
AcDbEntity
  8
screw-holes
  6
ByLayer
 62
    7
370
   -1
100
AcDbSpline
210
0
220
0
230
0
 70
    8
 71
    3
 72
    8
 73
    4
 74
    0
 42
1e-07
 43
1e-07
 40
0
 40
0
 40
0
 40
0
 40
1
 40
1
 40
1
 40
1
 10
123.499061
 20
97.04027499999999
 30
0
 10
123.910104
 20
97.21053499999999
 30
0
 10
124.178111
 20
97.611636
 30
0
 10
124.178111
 20
98.056545
 30
0
  0
SPLINE
  5
C4
100
AcDbEntity
  8
screw-holes
  6
ByLayer
 62
    7
370
   -1
100
AcDbSpline
210
0
220
0
230
0
 70
    8
 71
    3
 72
    8
 73
    4
 74
    0
 42
1e-07
 43
1e-07
 40
0
 40
0
 40
0
 40
0
 40
1
 40
1
 40
1
 40
1
 10
124.178111
 20
98.056545
 30
0
 10
124.178111
 20
98.34828400000001
 30
0
 10
124.062218
 20
98.628074
 30
0
 10
123.855928
 20
98.83436500000001
 30
0
  0
SPLINE
  5
C5
100
AcDbEntity
  8
screw-holes
  6
ByLayer
 62
    7
370
   -1
100
AcDbSpline
210
0
220
0
230
0
 70
    8
 71
    3
 72
    8
 73
    4
 74
    0
 42
1e-07
 43
1e-07
 40
0
 40
0
 40
0
 40
0
 40
1
 40
1
 40
1
 40
1
 10
123.855928
 20
98.83436500000001
 30
0
 10
123.649637
 20
99.040655
 30
0
 10
123.369847
 20
99.156548
 30
0
 10
123.078108
 20
99.156548
 30
0
  0
SPLINE
  5
C6
100
AcDbEntity
  8
screw-holes
  6
ByLayer
 62
    7
370
   -1
100
AcDbSpline
210
0
220
0
230
0
 70
    8
 71
    3
 72
    8
 73
    4
 74
    0
 42
1e-07
 43
1e-07
 40
0
 40
0
 40
0
 40
0
 40
1
 40
1
 40
1
 40
1
 10
82.36800599999999
 20
87.486519
 30
0
 10
81.923097
 20
87.486519
 30
0
 10
81.521996
 20
87.218512
 30
0
 10
81.351736
 20
86.807469
 30
0
  0
SPLINE
  5
C7
100
AcDbEntity
  8
screw-holes
  6
ByLayer
 62
    7
370
   -1
100
AcDbSpline
210
0
220
0
230
0
 70
    8
 71
    3
 72
    8
 73
    4
 74
    0
 42
1e-07
 43
1e-07
 40
0
 40
0
 40
0
 40
0
 40
1
 40
1
 40
1
 40
1
 10
81.351736
 20
86.807469
 30
0
 10
81.181477
 20
86.39642600000001
 30
0
 10
81.275588
 20
85.923295
 30
0
 10
81.590187
 20
85.60869700000001
 30
0
  0
SPLINE
  5
C8
100
AcDbEntity
  8
screw-holes
  6
ByLayer
 62
    7
370
   -1
100
AcDbSpline
210
0
220
0
230
0
 70
    8
 71
    3
 72
    8
 73
    4
 74
    0
 42
1e-07
 43
1e-07
 40
0
 40
0
 40
0
 40
0
 40
1
 40
1
 40
1
 40
1
 10
81.590187
 20
85.60869700000001
 30
0
 10
81.904785
 20
85.29409800000001
 30
0
 10
82.377916
 20
85.19998699999999
 30
0
 10
82.78895900000001
 20
85.37024599999999
 30
0
  0
SPLINE
  5
C9
100
AcDbEntity
  8
screw-holes
  6
ByLayer
 62
    7
370
   -1
100
AcDbSpline
210
0
220
0
230
0
 70
    8
 71
    3
 72
    8
 73
    4
 74
    0
 42
1e-07
 43
1e-07
 40
0
 40
0
 40
0
 40
0
 40
1
 40
1
 40
1
 40
1
 10
82.78895900000001
 20
85.37024599999999
 30
0
 10
83.200002
 20
85.54050599999999
 30
0
 10
83.468009
 20
85.941607
 30
0
 10
83.468009
 20
86.386516
 30
0
  0
SPLINE
  5
CA
100
AcDbEntity
  8
screw-holes
  6
ByLayer
 62
    7
370
   -1
100
AcDbSpline
210
0
220
0
230
0
 70
    8
 71
    3
 72
    8
 73
    4
 74
    0
 42
1e-07
 43
1e-07
 40
0
 40
0
 40
0
 40
0
 40
1
 40
1
 40
1
 40
1
 10
83.468009
 20
86.386516
 30
0
 10
83.468009
 20
86.67825499999999
 30
0
 10
83.352116
 20
86.958045
 30
0
 10
83.145826
 20
87.16433600000001
 30
0
  0
SPLINE
  5
CB
100
AcDbEntity
  8
screw-holes
  6
ByLayer
 62
    7
370
   -1
100
AcDbSpline
210
0
220
0
230
0
 70
    8
 71
    3
 72
    8
 73
    4
 74
    0
 42
1e-07
 43
1e-07
 40
0
 40
0
 40
0
 40
0
 40
1
 40
1
 40
1
 40
1
 10
83.145826
 20
87.16433600000001
 30
0
 10
82.93953500000001
 20
87.370626
 30
0
 10
82.659745
 20
87.486519
 30
0
 10
82.36800599999999
 20
87.486519
 30
0
  0
SPLINE
  5
CC
100
AcDbEntity
  8
screw-holes
  6
ByLayer
 62
    7
370
   -1
100
AcDbSpline
210
0
220
0
230
0
 70
    8
 71
    3
 72
    8
 73
    4
 74
    0
 42
1e-07
 43
1e-07
 40
0
 40
0
 40
0
 40
0
 40
1
 40
1
 40
1
 40
1
 10
136.768142
 20
47.75642
 30
0
 10
136.323233
 20
47.75642
 30
0
 10
135.922132
 20
47.488412
 30
0
 10
135.751872
 20
47.07737
 30
0
  0
SPLINE
  5
CD
100
AcDbEntity
  8
screw-holes
  6
ByLayer
 62
    7
370
   -1
100
AcDbSpline
210
0
220
0
230
0
 70
    8
 71
    3
 72
    8
 73
    4
 74
    0
 42
1e-07
 43
1e-07
 40
0
 40
0
 40
0
 40
0
 40
1
 40
1
 40
1
 40
1
 10
135.751872
 20
47.07737
 30
0
 10
135.581613
 20
46.666327
 30
0
 10
135.675724
 20
46.193196
 30
0
 10
135.990323
 20
45.878597
 30
0
  0
SPLINE
  5
CE
100
AcDbEntity
  8
screw-holes
  6
ByLayer
 62
    7
370
   -1
100
AcDbSpline
210
0
220
0
230
0
 70
    8
 71
    3
 72
    8
 73
    4
 74
    0
 42
1e-07
 43
1e-07
 40
0
 40
0
 40
0
 40
0
 40
1
 40
1
 40
1
 40
1
 10
135.990323
 20
45.878597
 30
0
 10
136.304922
 20
45.563999
 30
0
 10
136.778052
 20
45.469887
 30
0
 10
137.189095
 20
45.640147
 30
0
  0
SPLINE
  5
CF
100
AcDbEntity
  8
screw-holes
  6
ByLayer
 62
    7
370
   -1
100
AcDbSpline
210
0
220
0
230
0
 70
    8
 71
    3
 72
    8
 73
    4
 74
    0
 42
1e-07
 43
1e-07
 40
0
 40
0
 40
0
 40
0
 40
1
 40
1
 40
1
 40
1
 10
137.189095
 20
45.640147
 30
0
 10
137.600138
 20
45.810406
 30
0
 10
137.868145
 20
46.211507
 30
0
 10
137.868145
 20
46.656417
 30
0
  0
SPLINE
  5
D0
100
AcDbEntity
  8
screw-holes
  6
ByLayer
 62
    7
370
   -1
100
AcDbSpline
210
0
220
0
230
0
 70
    8
 71
    3
 72
    8
 73
    4
 74
    0
 42
1e-07
 43
1e-07
 40
0
 40
0
 40
0
 40
0
 40
1
 40
1
 40
1
 40
1
 10
137.868145
 20
46.656417
 30
0
 10
137.868145
 20
46.948156
 30
0
 10
137.752252
 20
47.227946
 30
0
 10
137.545962
 20
47.434236
 30
0
  0
SPLINE
  5
D1
100
AcDbEntity
  8
screw-holes
  6
ByLayer
 62
    7
370
   -1
100
AcDbSpline
210
0
220
0
230
0
 70
    8
 71
    3
 72
    8
 73
    4
 74
    0
 42
1e-07
 43
1e-07
 40
0
 40
0
 40
0
 40
0
 40
1
 40
1
 40
1
 40
1
 10
137.545962
 20
47.434236
 30
0
 10
137.339671
 20
47.640527
 30
0
 10
137.059881
 20
47.75642
 30
0
 10
136.768142
 20
47.75642
 30
0
  0
SPLINE
  5
D2
100
AcDbEntity
  8
screw-holes
  6
ByLayer
 62
    7
370
   -1
100
AcDbSpline
210
0
220
0
230
0
 70
    8
 71
    3
 72
    8
 73
    4
 74
    0
 42
1e-07
 43
1e-07
 40
0
 40
0
 40
0
 40
0
 40
1
 40
1
 40
1
 40
1
 10
72.797982
 20
47.77642
 30
0
 10
72.35307299999999
 20
47.77642
 30
0
 10
71.951972
 20
47.508413
 30
0
 10
71.781712
 20
47.09737
 30
0
  0
SPLINE
  5
D3
100
AcDbEntity
  8
screw-holes
  6
ByLayer
 62
    7
370
   -1
100
AcDbSpline
210
0
220
0
230
0
 70
    8
 71
    3
 72
    8
 73
    4
 74
    0
 42
1e-07
 43
1e-07
 40
0
 40
0
 40
0
 40
0
 40
1
 40
1
 40
1
 40
1
 10
71.781712
 20
47.09737
 30
0
 10
71.611453
 20
46.686327
 30
0
 10
71.705564
 20
46.213196
 30
0
 10
72.020163
 20
45.898597
 30
0
  0
SPLINE
  5
D4
100
AcDbEntity
  8
screw-holes
  6
ByLayer
 62
    7
370
   -1
100
AcDbSpline
210
0
220
0
230
0
 70
    8
 71
    3
 72
    8
 73
    4
 74
    0
 42
1e-07
 43
1e-07
 40
0
 40
0
 40
0
 40
0
 40
1
 40
1
 40
1
 40
1
 10
72.020163
 20
45.898597
 30
0
 10
72.334761
 20
45.583999
 30
0
 10
72.807892
 20
45.489887
 30
0
 10
73.218935
 20
45.660147
 30
0
  0
SPLINE
  5
D5
100
AcDbEntity
  8
screw-holes
  6
ByLayer
 62
    7
370
   -1
100
AcDbSpline
210
0
220
0
230
0
 70
    8
 71
    3
 72
    8
 73
    4
 74
    0
 42
1e-07
 43
1e-07
 40
0
 40
0
 40
0
 40
0
 40
1
 40
1
 40
1
 40
1
 10
73.218935
 20
45.660147
 30
0
 10
73.62997799999999
 20
45.830406
 30
0
 10
73.89798500000001
 20
46.231507
 30
0
 10
73.89798500000001
 20
46.676417
 30
0
  0
SPLINE
  5
D6
100
AcDbEntity
  8
screw-holes
  6
ByLayer
 62
    7
370
   -1
100
AcDbSpline
210
0
220
0
230
0
 70
    8
 71
    3
 72
    8
 73
    4
 74
    0
 42
1e-07
 43
1e-07
 40
0
 40
0
 40
0
 40
0
 40
1
 40
1
 40
1
 40
1
 10
73.89798500000001
 20
46.676417
 30
0
 10
73.89798500000001
 20
46.968156
 30
0
 10
73.78209200000001
 20
47.247946
 30
0
 10
73.575802
 20
47.454236
 30
0
  0
SPLINE
  5
D7
100
AcDbEntity
  8
screw-holes
  6
ByLayer
 62
    7
370
   -1
100
AcDbSpline
210
0
220
0
230
0
 70
    8
 71
    3
 72
    8
 73
    4
 74
    0
 42
1e-07
 43
1e-07
 40
0
 40
0
 40
0
 40
0
 40
1
 40
1
 40
1
 40
1
 10
73.575802
 20
47.454236
 30
0
 10
73.369511
 20
47.660527
 30
0
 10
73.089721
 20
47.77642
 30
0
 10
72.797982
 20
47.77642
 30
0
  0
SPLINE
  5
D8
100
AcDbEntity
  8
screw-holes
  6
ByLayer
 62
    7
370
   -1
100
AcDbSpline
210
0
220
0
230
0
 70
    8
 71
    3
 72
    8
 73
    4
 74
    0
 42
1e-07
 43
1e-07
 40
0
 40
0
 40
0
 40
0
 40
1
 40
1
 40
1
 40
1
 10
32.197881
 20
10.016325
 30
0
 10
31.590366
 20
10.016325
 30
0
 10
31.097878
 20
9.523837
 30
0
 10
31.097878
 20
8.916321999999999
 30
0
  0
SPLINE
  5
D9
100
AcDbEntity
  8
screw-holes
  6
ByLayer
 62
    7
370
   -1
100
AcDbSpline
210
0
220
0
230
0
 70
    8
 71
    3
 72
    8
 73
    4
 74
    0
 42
1e-07
 43
1e-07
 40
0
 40
0
 40
0
 40
0
 40
1
 40
1
 40
1
 40
1
 10
31.097878
 20
8.916321999999999
 30
0
 10
31.097878
 20
8.308808000000001
 30
0
 10
31.590366
 20
7.81632
 30
0
 10
32.197881
 20
7.81632
 30
0
  0
SPLINE
  5
DA
100
AcDbEntity
  8
screw-holes
  6
ByLayer
 62
    7
370
   -1
100
AcDbSpline
210
0
220
0
230
0
 70
    8
 71
    3
 72
    8
 73
    4
 74
    0
 42
1e-07
 43
1e-07
 40
0
 40
0
 40
0
 40
0
 40
1
 40
1
 40
1
 40
1
 10
32.197881
 20
7.81632
 30
0
 10
32.805395
 20
7.81632
 30
0
 10
33.297883
 20
8.308808000000001
 30
0
 10
33.297883
 20
8.916321999999999
 30
0
  0
SPLINE
  5
DB
100
AcDbEntity
  8
screw-holes
  6
ByLayer
 62
    7
370
   -1
100
AcDbSpline
210
0
220
0
230
0
 70
    8
 71
    3
 72
    8
 73
    4
 74
    0
 42
1e-07
 43
1e-07
 40
0
 40
0
 40
0
 40
0
 40
1
 40
1
 40
1
 40
1
 10
33.297883
 20
8.916321999999999
 30
0
 10
33.297883
 20
9.208061000000001
 30
0
 10
33.181991
 20
9.487850999999999
 30
0
 10
32.9757
 20
9.694141999999999
 30
0
  0
SPLINE
  5
DC
100
AcDbEntity
  8
screw-holes
  6
ByLayer
 62
    7
370
   -1
100
AcDbSpline
210
0
220
0
230
0
 70
    8
 71
    3
 72
    8
 73
    4
 74
    0
 42
1e-07
 43
1e-07
 40
0
 40
0
 40
0
 40
0
 40
1
 40
1
 40
1
 40
1
 10
32.9757
 20
9.694141999999999
 30
0
 10
32.769409
 20
9.900432
 30
0
 10
32.489619
 20
10.016325
 30
0
 10
32.197881
 20
10.016325
 30
0
  0
SPLINE
  5
DD
100
AcDbEntity
  8
screw-holes
  6
ByLayer
 62
    7
370
   -1
100
AcDbSpline
210
0
220
0
230
0
 70
    8
 71
    3
 72
    8
 73
    4
 74
    0
 42
1e-07
 43
1e-07
 40
0
 40
0
 40
0
 40
0
 40
1
 40
1
 40
1
 40
1
 10
184.290444
 20
2.81849
 30
0
 10
184.605042
 20
2.503891
 30
0
 10
185.078173
 20
2.409779
 30
0
 10
185.489216
 20
2.580039
 30
0
  0
SPLINE
  5
DE
100
AcDbEntity
  8
screw-holes
  6
ByLayer
 62
    7
370
   -1
100
AcDbSpline
210
0
220
0
230
0
 70
    8
 71
    3
 72
    8
 73
    4
 74
    0
 42
1e-07
 43
1e-07
 40
0
 40
0
 40
0
 40
0
 40
1
 40
1
 40
1
 40
1
 10
185.489216
 20
2.580039
 30
0
 10
185.900259
 20
2.750298
 30
0
 10
186.168266
 20
3.151399
 30
0
 10
186.168266
 20
3.596309
 30
0
  0
SPLINE
  5
DF
100
AcDbEntity
  8
screw-holes
  6
ByLayer
 62
    7
370
   -1
100
AcDbSpline
210
0
220
0
230
0
 70
    8
 71
    3
 72
    8
 73
    4
 74
    0
 42
1e-07
 43
1e-07
 40
0
 40
0
 40
0
 40
0
 40
1
 40
1
 40
1
 40
1
 10
299.46855
 20
117.446594
 30
0
 10
299.02364
 20
117.446594
 30
0
 10
298.622539
 20
117.178587
 30
0
 10
298.45228
 20
116.767544
 30
0
  0
SPLINE
  5
E0
100
AcDbEntity
  8
screw-holes
  6
ByLayer
 62
    7
370
   -1
100
AcDbSpline
210
0
220
0
230
0
 70
    8
 71
    3
 72
    8
 73
    4
 74
    0
 42
1e-07
 43
1e-07
 40
0
 40
0
 40
0
 40
0
 40
1
 40
1
 40
1
 40
1
 10
300.246369
 20
117.124411
 30
0
 10
300.040079
 20
117.330701
 30
0
 10
299.760289
 20
117.446594
 30
0
 10
299.46855
 20
117.446594
 30
0
  0
SPLINE
  5
E1
100
AcDbEntity
  8
screw-holes
  6
ByLayer
 62
    7
370
   -1
100
AcDbSpline
210
0
220
0
230
0
 70
    8
 71
    3
 72
    8
 73
    4
 74
    0
 42
1e-07
 43
1e-07
 40
0
 40
0
 40
0
 40
0
 40
1
 40
1
 40
1
 40
1
 10
356.498692
 20
117.386594
 30
0
 10
356.053783
 20
117.386594
 30
0
 10
355.652682
 20
117.118587
 30
0
 10
355.482422
 20
116.707544
 30
0
  0
SPLINE
  5
E2
100
AcDbEntity
  8
screw-holes
  6
ByLayer
 62
    7
370
   -1
100
AcDbSpline
210
0
220
0
230
0
 70
    8
 71
    3
 72
    8
 73
    4
 74
    0
 42
1e-07
 43
1e-07
 40
0
 40
0
 40
0
 40
0
 40
1
 40
1
 40
1
 40
1
 10
357.276512
 20
117.064411
 30
0
 10
357.070221
 20
117.270701
 30
0
 10
356.790431
 20
117.386594
 30
0
 10
356.498692
 20
117.386594
 30
0
  0
SPLINE
  5
E3
100
AcDbEntity
  8
screw-holes
  6
ByLayer
 62
    7
370
   -1
100
AcDbSpline
210
0
220
0
230
0
 70
    8
 71
    3
 72
    8
 73
    4
 74
    0
 42
1e-07
 43
1e-07
 40
0
 40
0
 40
0
 40
0
 40
1
 40
1
 40
1
 40
1
 10
406.488818
 20
112.146581
 30
0
 10
405.881303
 20
112.146581
 30
0
 10
405.388815
 20
111.654093
 30
0
 10
405.388815
 20
111.046578
 30
0
  0
SPLINE
  5
E4
100
AcDbEntity
  8
screw-holes
  6
ByLayer
 62
    7
370
   -1
100
AcDbSpline
210
0
220
0
230
0
 70
    8
 71
    3
 72
    8
 73
    4
 74
    0
 42
1e-07
 43
1e-07
 40
0
 40
0
 40
0
 40
0
 40
1
 40
1
 40
1
 40
1
 10
405.388815
 20
111.046578
 30
0
 10
405.388815
 20
110.439063
 30
0
 10
405.881303
 20
109.946575
 30
0
 10
406.488818
 20
109.946575
 30
0
  0
SPLINE
  5
E5
100
AcDbEntity
  8
screw-holes
  6
ByLayer
 62
    7
370
   -1
100
AcDbSpline
210
0
220
0
230
0
 70
    8
 71
    3
 72
    8
 73
    4
 74
    0
 42
1e-07
 43
1e-07
 40
0
 40
0
 40
0
 40
0
 40
1
 40
1
 40
1
 40
1
 10
406.488818
 20
109.946575
 30
0
 10
407.096332
 20
109.946575
 30
0
 10
407.58882
 20
110.439063
 30
0
 10
407.58882
 20
111.046578
 30
0
  0
SPLINE
  5
E6
100
AcDbEntity
  8
screw-holes
  6
ByLayer
 62
    7
370
   -1
100
AcDbSpline
210
0
220
0
230
0
 70
    8
 71
    3
 72
    8
 73
    4
 74
    0
 42
1e-07
 43
1e-07
 40
0
 40
0
 40
0
 40
0
 40
1
 40
1
 40
1
 40
1
 10
407.58882
 20
111.046578
 30
0
 10
407.58882
 20
111.338317
 30
0
 10
407.472927
 20
111.618107
 30
0
 10
407.266637
 20
111.824397
 30
0
  0
SPLINE
  5
E7
100
AcDbEntity
  8
screw-holes
  6
ByLayer
 62
    7
370
   -1
100
AcDbSpline
210
0
220
0
230
0
 70
    8
 71
    3
 72
    8
 73
    4
 74
    0
 42
1e-07
 43
1e-07
 40
0
 40
0
 40
0
 40
0
 40
1
 40
1
 40
1
 40
1
 10
407.266637
 20
111.824397
 30
0
 10
407.060346
 20
112.030688
 30
0
 10
406.780556
 20
112.146581
 30
0
 10
406.488818
 20
112.146581
 30
0
  0
SPLINE
  5
E8
100
AcDbEntity
  8
screw-holes
  6
ByLayer
 62
    7
370
   -1
100
AcDbSpline
210
0
220
0
230
0
 70
    8
 71
    3
 72
    8
 73
    4
 74
    0
 42
1e-07
 43
1e-07
 40
0
 40
0
 40
0
 40
0
 40
1
 40
1
 40
1
 40
1
 10
404.968814
 20
13.446334
 30
0
 10
404.523904
 20
13.446334
 30
0
 10
404.122803
 20
13.178327
 30
0
 10
403.952544
 20
12.767284
 30
0
  0
SPLINE
  5
E9
100
AcDbEntity
  8
screw-holes
  6
ByLayer
 62
    7
370
   -1
100
AcDbSpline
210
0
220
0
230
0
 70
    8
 71
    3
 72
    8
 73
    4
 74
    0
 42
1e-07
 43
1e-07
 40
0
 40
0
 40
0
 40
0
 40
1
 40
1
 40
1
 40
1
 10
403.952544
 20
12.767284
 30
0
 10
403.782284
 20
12.356241
 30
0
 10
403.876396
 20
11.88311
 30
0
 10
404.190994
 20
11.568511
 30
0
  0
SPLINE
  5
EA
100
AcDbEntity
  8
screw-holes
  6
ByLayer
 62
    7
370
   -1
100
AcDbSpline
210
0
220
0
230
0
 70
    8
 71
    3
 72
    8
 73
    4
 74
    0
 42
1e-07
 43
1e-07
 40
0
 40
0
 40
0
 40
0
 40
1
 40
1
 40
1
 40
1
 10
404.190994
 20
11.568511
 30
0
 10
404.505593
 20
11.253913
 30
0
 10
404.978724
 20
11.159801
 30
0
 10
405.389767
 20
11.330061
 30
0
  0
SPLINE
  5
EB
100
AcDbEntity
  8
screw-holes
  6
ByLayer
 62
    7
370
   -1
100
AcDbSpline
210
0
220
0
230
0
 70
    8
 71
    3
 72
    8
 73
    4
 74
    0
 42
1e-07
 43
1e-07
 40
0
 40
0
 40
0
 40
0
 40
1
 40
1
 40
1
 40
1
 10
405.389767
 20
11.330061
 30
0
 10
405.800809
 20
11.50032
 30
0
 10
406.068816
 20
11.901421
 30
0
 10
406.068816
 20
12.346331
 30
0
  0
SPLINE
  5
EC
100
AcDbEntity
  8
screw-holes
  6
ByLayer
 62
    7
370
   -1
100
AcDbSpline
210
0
220
0
230
0
 70
    8
 71
    3
 72
    8
 73
    4
 74
    0
 42
1e-07
 43
1e-07
 40
0
 40
0
 40
0
 40
0
 40
1
 40
1
 40
1
 40
1
 10
406.068816
 20
12.346331
 30
0
 10
406.068816
 20
12.63807
 30
0
 10
405.952924
 20
12.91786
 30
0
 10
405.746633
 20
13.12415
 30
0
  0
SPLINE
  5
ED
100
AcDbEntity
  8
screw-holes
  6
ByLayer
 62
    7
370
   -1
100
AcDbSpline
210
0
220
0
230
0
 70
    8
 71
    3
 72
    8
 73
    4
 74
    0
 42
1e-07
 43
1e-07
 40
0
 40
0
 40
0
 40
0
 40
1
 40
1
 40
1
 40
1
 10
405.746633
 20
13.12415
 30
0
 10
405.540343
 20
13.330441
 30
0
 10
405.260553
 20
13.446334
 30
0
 10
404.968814
 20
13.446334
 30
0
  0
SPLINE
  5
EE
100
AcDbEntity
  8
screw-holes
  6
ByLayer
 62
    7
370
   -1
100
AcDbSpline
210
0
220
0
230
0
 70
    8
 71
    3
 72
    8
 73
    4
 74
    0
 42
1e-07
 43
1e-07
 40
0
 40
0
 40
0
 40
0
 40
1
 40
1
 40
1
 40
1
 10
355.198689
 20
22.976358
 30
0
 10
354.75378
 20
22.976358
 30
0
 10
354.352679
 20
22.70835
 30
0
 10
354.182419
 20
22.297308
 30
0
  0
ENDSEC
  0
SECTION
  2
OBJECTS
  0
DICTIONARY
  5
C
330
0
100
AcDbDictionary
281
    1
  3
ACAD_GROUP
350
D
  0
DICTIONARY
  5
D
330
C
100
AcDbDictionary
281
    1
  0
PLOTSETTINGS
  5
EF
100
AcDbPlotSettings
  6
1x1
 40
0
 41
0
 42
0
 43
0
  0
ENDSEC
  0
EOF
