999
FreeCAD v0.21 33771 (Git)
  0
SECTION
  2
HEADER
  9
$ACADVER
  1
AC1014
  9
$ACADMAINTVER
 70
     9
  9
$DWGCODEPAGE
  3
ANSI_1252
  9
$TEXTSTYLE
  7
STANDARD
  9
$DIMSTYLE
  2
STANDARD
  9
$DIMTXSTY
  7
STANDARD
  9
$CMLSTYLE
  2
STANDARD
  9
$LUNITS
 70
2
  9
$INSUNITS
 70
4
  9
$PEXTMAX
 10
50
 20
50
 30
50
  9
$PEXTMIN
 10
0
 20
0
 30
0
  9
$HANDSEED
  5
FFFF
  0
ENDSEC
  0
SECTION
  2
CLASSES
  0
CLASS
  1
ACDBDICTIONARYWDFLT
  2
AcDbDictionaryWithDefault
  3
ObjectDBX Classes
 90
        0
280
     0
281
     0
  0
CLASS
  1
XRECORD
  2
AcDbXrecord
  3
ObjectDBX Classes
 90
        0
280
     0
281
     0
  0
CLASS
  1
LWPOLYLINE
  2
AcDbPolyline
  3
ObjectDBX Classes
 90
        0
280
     0
281
     1
  0
ENDSEC
  0
SECTION
  2
TABLES
  0
TABLE
  2
VPORT
  5
20
330
0
100
AcDbSymbolTable
 70
     1
  0
VPORT
  5
21
330
20
100
AcDbSymbolTableRecord
100
AcDbViewportTableRecord
  2
*ACTIVE
 70
     0
  0
ENDTAB
  0
TABLE
  2
LTYPE
  5
22
330
0
100
AcDbSymbolTable
 70
     1
  0
LTYPE
  5
23
330
21
100
AcDbSymbolTableRecord
100
AcDbLinetypeTableRecord
  2
BYBLOCK
 70
     0
  3

 72
    65
 73
     0
 40
0.0
  0
LTYPE
  5
24
330
21
100
AcDbSymbolTableRecord
100
AcDbLinetypeTableRecord
  2
BYLAYER
 70
     0
  3

 72
    65
 73
     0
 40
0.0
  0
LTYPE
  5
25
330
21
100
AcDbSymbolTableRecord
100
AcDbLinetypeTableRecord
  2
CONTINUOUS
 70
     0
  3
Solid line
 72
    65
 73
     0
 40
0.0
  0
ENDTAB
  0
TABLE
  2
LAYER
  5
A3F
330
0
100
AcDbSymbolTable
 70
46
  0
LAYER
  5
A40
330
A3F
100
AcDbSymbolTableRecord
100
AcDbLayerTableRecord
  2
0
 70
   0
 62
   7
  6
CONTINUOUS
  0
LAYER
  5
A41
330
A3F
100
AcDbSymbolTableRecord
100
AcDbLayerTableRecord
  2
none
 70
    0
 62
    7
  6
CONTINUOUS
  0
LAYER
  5
A42
330
A3F
100
AcDbSymbolTableRecord
100
AcDbLayerTableRecord
  2
circle8
 70
    0
 62
    7
  6
CONTINUOUS
  0
LAYER
  5
A43
330
A3F
100
AcDbSymbolTableRecord
100
AcDbLayerTableRecord
  2
circle12
 70
    0
 62
    7
  6
CONTINUOUS
  0
LAYER
  5
A44
330
A3F
100
AcDbSymbolTableRecord
100
AcDbLayerTableRecord
  2
circle16
 70
    0
 62
    7
  6
CONTINUOUS
  0
LAYER
  5
A45
330
A3F
100
AcDbSymbolTableRecord
100
AcDbLayerTableRecord
  2
circle20
 70
    0
 62
    7
  6
CONTINUOUS
  0
LAYER
  5
A46
330
A3F
100
AcDbSymbolTableRecord
100
AcDbLayerTableRecord
  2
circle24
 70
    0
 62
    7
  6
CONTINUOUS
  0
LAYER
  5
A47
330
A3F
100
AcDbSymbolTableRecord
100
AcDbLayerTableRecord
  2
circle28
 70
    0
 62
    7
  6
CONTINUOUS
  0
LAYER
  5
A48
330
A3F
100
AcDbSymbolTableRecord
100
AcDbLayerTableRecord
  2
circle32
 70
    0
 62
    7
  6
CONTINUOUS
  0
LAYER
  5
A49
330
A3F
100
AcDbSymbolTableRecord
100
AcDbLayerTableRecord
  2
circle36
 70
    0
 62
    7
  6
CONTINUOUS
  0
LAYER
  5
A4A
330
A3F
100
AcDbSymbolTableRecord
100
AcDbLayerTableRecord
  2
circle40
 70
    0
 62
    7
  6
CONTINUOUS
  0
LAYER
  5
A4B
330
A3F
100
AcDbSymbolTableRecord
100
AcDbLayerTableRecord
  2
circle44
 70
    0
 62
    7
  6
CONTINUOUS
  0
LAYER
  5
A4C
330
A3F
100
AcDbSymbolTableRecord
100
AcDbLayerTableRecord
  2
circle48
 70
    0
 62
    7
  6
CONTINUOUS
  0
LAYER
  5
A4D
330
A3F
100
AcDbSymbolTableRecord
100
AcDbLayerTableRecord
  2
circle52
 70
    0
 62
    7
  6
CONTINUOUS
  0
LAYER
  5
A4E
330
A3F
100
AcDbSymbolTableRecord
100
AcDbLayerTableRecord
  2
circle56
 70
    0
 62
    7
  6
CONTINUOUS
  0
LAYER
  5
A4F
330
A3F
100
AcDbSymbolTableRecord
100
AcDbLayerTableRecord
  2
circle60
 70
    0
 62
    7
  6
CONTINUOUS
  0
LAYER
  5
A50
330
A3F
100
AcDbSymbolTableRecord
100
AcDbLayerTableRecord
  2
circle64
 70
    0
 62
    7
  6
CONTINUOUS
  0
LAYER
  5
A51
330
A3F
100
AcDbSymbolTableRecord
100
AcDbLayerTableRecord
  2
circle68
 70
    0
 62
    7
  6
CONTINUOUS
  0
LAYER
  5
A52
330
A3F
100
AcDbSymbolTableRecord
100
AcDbLayerTableRecord
  2
circle72
 70
    0
 62
    7
  6
CONTINUOUS
  0
LAYER
  5
A53
330
A3F
100
AcDbSymbolTableRecord
100
AcDbLayerTableRecord
  2
circle76
 70
    0
 62
    7
  6
CONTINUOUS
  0
LAYER
  5
A54
330
A3F
100
AcDbSymbolTableRecord
100
AcDbLayerTableRecord
  2
circle80
 70
    0
 62
    7
  6
CONTINUOUS
  0
LAYER
  5
A55
330
A3F
100
AcDbSymbolTableRecord
100
AcDbLayerTableRecord
  2
circle84
 70
    0
 62
    7
  6
CONTINUOUS
  0
LAYER
  5
A56
330
A3F
100
AcDbSymbolTableRecord
100
AcDbLayerTableRecord
  2
circle88
 70
    0
 62
    7
  6
CONTINUOUS
  0
LAYER
  5
A57
330
A3F
100
AcDbSymbolTableRecord
100
AcDbLayerTableRecord
  2
circle96
 70
    0
 62
    7
  6
CONTINUOUS
  0
LAYER
  5
A58
330
A3F
100
AcDbSymbolTableRecord
100
AcDbLayerTableRecord
  2
circle100
 70
    0
 62
    7
  6
CONTINUOUS
  0
LAYER
  5
A59
330
A3F
100
AcDbSymbolTableRecord
100
AcDbLayerTableRecord
  2
path3568
 70
    0
 62
    7
  6
CONTINUOUS
  0
LAYER
  5
A5A
330
A3F
100
AcDbSymbolTableRecord
100
AcDbLayerTableRecord
  2
path3572
 70
    0
 62
    7
  6
CONTINUOUS
  0
LAYER
  5
A5B
330
A3F
100
AcDbSymbolTableRecord
100
AcDbLayerTableRecord
  2
path3574
 70
    0
 62
    7
  6
CONTINUOUS
  0
LAYER
  5
A5C
330
A3F
100
AcDbSymbolTableRecord
100
AcDbLayerTableRecord
  2
path3576
 70
    0
 62
    7
  6
CONTINUOUS
  0
LAYER
  5
A5D
330
A3F
100
AcDbSymbolTableRecord
100
AcDbLayerTableRecord
  2
path3578
 70
    0
 62
    7
  6
CONTINUOUS
  0
LAYER
  5
A5E
330
A3F
100
AcDbSymbolTableRecord
100
AcDbLayerTableRecord
  2
path3580
 70
    0
 62
    7
  6
CONTINUOUS
  0
LAYER
  5
A5F
330
A3F
100
AcDbSymbolTableRecord
100
AcDbLayerTableRecord
  2
path3582
 70
    0
 62
    7
  6
CONTINUOUS
  0
LAYER
  5
A60
330
A3F
100
AcDbSymbolTableRecord
100
AcDbLayerTableRecord
  2
path3584
 70
    0
 62
    7
  6
CONTINUOUS
  0
LAYER
  5
A61
330
A3F
100
AcDbSymbolTableRecord
100
AcDbLayerTableRecord
  2
path3590
 70
    0
 62
    7
  6
CONTINUOUS
  0
LAYER
  5
A62
330
A3F
100
AcDbSymbolTableRecord
100
AcDbLayerTableRecord
  2
path3594
 70
    0
 62
    7
  6
CONTINUOUS
  0
LAYER
  5
A63
330
A3F
100
AcDbSymbolTableRecord
100
AcDbLayerTableRecord
  2
path3596
 70
    0
 62
    7
  6
CONTINUOUS
  0
LAYER
  5
A64
330
A3F
100
AcDbSymbolTableRecord
100
AcDbLayerTableRecord
  2
path3598
 70
    0
 62
    7
  6
CONTINUOUS
  0
LAYER
  5
A65
330
A3F
100
AcDbSymbolTableRecord
100
AcDbLayerTableRecord
  2
path3600
 70
    0
 62
    7
  6
CONTINUOUS
  0
LAYER
  5
A66
330
A3F
100
AcDbSymbolTableRecord
100
AcDbLayerTableRecord
  2
path3602
 70
    0
 62
    7
  6
CONTINUOUS
  0
LAYER
  5
A67
330
A3F
100
AcDbSymbolTableRecord
100
AcDbLayerTableRecord
  2
Line
 70
    0
 62
    7
  6
CONTINUOUS
  0
LAYER
  5
A68
330
A3F
100
AcDbSymbolTableRecord
100
AcDbLayerTableRecord
  2
Line001
 70
    0
 62
    7
  6
CONTINUOUS
  0
LAYER
  5
A69
330
A3F
100
AcDbSymbolTableRecord
100
AcDbLayerTableRecord
  2
BezCurve
 70
    0
 62
    7
  6
CONTINUOUS
  0
LAYER
  5
A6A
330
A3F
100
AcDbSymbolTableRecord
100
AcDbLayerTableRecord
  2
path3570
 70
    0
 62
    7
  6
CONTINUOUS
  0
LAYER
  5
A6B
330
A3F
100
AcDbSymbolTableRecord
100
AcDbLayerTableRecord
  2
BezCurve001
 70
    0
 62
    7
  6
CONTINUOUS
  0
LAYER
  5
A6C
330
A3F
100
AcDbSymbolTableRecord
100
AcDbLayerTableRecord
  2
Line002
 70
    0
 62
    7
  6
CONTINUOUS
  0
LAYER
  5
A6D
330
A3F
100
AcDbSymbolTableRecord
100
AcDbLayerTableRecord
  2
Surface
 70
    0
 62
    7
  6
CONTINUOUS
  0
ENDTAB
  0
TABLE
  2
STYLE
  5
70
330
0
100
AcDbSymbolTable
 70
     2
  0
STYLE
  5
71
330
70
100
AcDbSymbolTableRecord
100
AcDbTextStyleTableRecord
  2
STANDARD
 70
     0
 40
0.0
 41
1.0
 50
0.0
 71
     0
 42
2.5
  3
arial.ttf
  4

  0
STYLE
  5
72
330
70
100
AcDbSymbolTableRecord
100
AcDbTextStyleTableRecord
  2
ANNOTATIVE
 70
     0
 40
0.0
 41
1.0
 50
0.0
 71
     0
 42
2.5
  3
arial.ttf
  4

  0
ENDTAB
  0
TABLE
  2
VIEW
  5
73
330
0
100
AcDbSymbolTable
 70
     0
  0
ENDTAB
  0
TABLE
  2
UCS
  5
74
330
0
100
AcDbSymbolTable
 70
     0
  0
ENDTAB
  0
TABLE
  2
APPID
  5
75
330
0
100
AcDbSymbolTable
 70
     2
  0
APPID
  5
76
330
75
100
AcDbSymbolTableRecord
100
AcDbRegAppTableRecord
  2
ACAD
 70
     0
  0
APPID
  5
77
330
75
100
AcDbSymbolTableRecord
100
AcDbRegAppTableRecord
  2
ACADANNOTATIVE
 70
     0
  0
ENDTAB
  0
TABLE
  2
DIMSTYLE
  5
78
330
0
100
AcDbSymbolTable
 70
     2
  0
DIMSTYLE
105
79
330
78
100
AcDbSymbolTableRecord
100
AcDbDimStyleTableRecord
  2
STANDARD
 70
     0
  3

  4

  5

  6

  7

 40
0.0
 41
2.5
 42
0.625
 43
3.75
 44
1.25
 45
0.0
 46
0.0
 47
0.0
 48
0.0
140
2.5
141
2.5
142
0.0
143
0.03937007874016
144
1.0
145
0.0
146
1.0
147
0.625
 71
     0
 72
     0
 73
     0
 74
     0
 75
     0
 76
     0
 77
     1
 78
     8
170
     0
171
     3
172
     1
173
     0
174
     0
175
     0
176
     0
177
     0
178
     0
270
     2
271
     2
272
     2
273
     2
274
     3
340
71
275
     0
280
     0
281
     0
282
     0
283
     0
284
     8
285
     0
286
     0
287
     3
288
     0
  0
ENDTAB
  0
TABLE
  2
BLOCK_RECORD
  5
A01
330
0
100
AcDbSymbolTable
  70
5
  0
BLOCK_RECORD
  5
A02
330
A01
100
AcDbSymbolTableRecord
100
AcDbBlockTableRecord
  2
*MODEL_SPACE
  0
BLOCK_RECORD
  5
A03
330
A01
100
AcDbSymbolTableRecord
100
AcDbBlockTableRecord
  2
*PAPER_SPACE
  0
ENDTAB
  0
ENDSEC
  0
SECTION
  2
BLOCKS
  0
BLOCK
  5
A04
330
A02
100
AcDbEntity
  8
0
100
AcDbBlockBegin
  2
*MODEL_SPACE
 70
   0
 10
0
 20
0
 30
0
  3
*MODEL_SPACE
  1
 
  0
ENDBLK
  5
A05
330
A02
100
AcDbEntity
  8
0
100
AcDbBlockEnd
  0
BLOCK
  5
A06
330
A03
100
AcDbEntity
 67
1
  8
0
100
AcDbBlockBegin
  2
*PAPER_SPACE
 70
   0
 10
0
 20
0
 30
0
  3
*PAPER_SPACE
  1
 
  0
ENDBLK
  5
A07
330
A03
100
AcDbEntity
 67
    1
  8
0
100
AcDbBlockEnd
  0
ENDSEC
  0
SECTION
  2
ENTITIES
  0
SPLINE
  5
A08
330
A02
100
AcDbEntity
  8
circle8
100
AcDbSpline
210
0
220
0
230
1
 70
9
 71
3
 72
41
 73
37
 74
0
 40
0
 40
0
 40
0
 40
0
 40
0.523599
 40
0.523599
 40
0.523599
 40
1.0472
 40
1.0472
 40
1.0472
 40
1.5708
 40
1.5708
 40
1.5708
 40
2.0944
 40
2.0944
 40
2.0944
 40
2.61799
 40
2.61799
 40
2.61799
 40
3.14159
 40
3.14159
 40
3.14159
 40
3.66519
 40
3.66519
 40
3.66519
 40
4.18879
 40
4.18879
 40
4.18879
 40
4.71239
 40
4.71239
 40
4.71239
 40
5.23599
 40
5.23599
 40
5.23599
 40
5.75959
 40
5.75959
 40
5.75959
 40
6.28319
 40
6.28319
 40
6.28319
 40
6.28319
 10
4.8978
 20
-51.5951
 30
0
 10
4.89812
 20
-51.4369
 30
0
 10
4.86246
 20
-51.2556
 30
0
 10
4.77088
 20
-51.0821
 30
0
 10
4.68071
 20
-50.9091
 30
0
 10
4.53205
 20
-50.7479
 30
0
 10
4.3478
 20
-50.6425
 30
0
 10
4.16439
 20
-50.5356
 30
0
 10
3.95047
 20
-50.4875
 30
0
 10
3.75549
 20
-50.4959
 30
0
 10
3.55951
 20
-50.5033
 30
0
 10
3.38463
 20
-50.5631
 30
0
 10
3.2478
 20
-50.6425
 30
0
 10
3.11065
 20
-50.7213
 30
0
 10
2.97142
 20
-50.8428
 30
0
 10
2.86703
 20
-51.0089
 30
0
 10
2.76221
 20
-51.1735
 30
0
 10
2.69696
 20
-51.3828
 30
0
 10
2.6978
 20
-51.5951
 30
0
 10
2.69696
 20
-51.8074
 30
0
 10
2.76221
 20
-52.0167
 30
0
 10
2.86703
 20
-52.1813
 30
0
 10
2.97142
 20
-52.3474
 30
0
 10
3.11065
 20
-52.4689
 30
0
 10
3.2478
 20
-52.5477
 30
0
 10
3.38463
 20
-52.6271
 30
0
 10
3.55951
 20
-52.6869
 30
0
 10
3.75549
 20
-52.6943
 30
0
 10
3.95047
 20
-52.7027
 30
0
 10
4.16439
 20
-52.6546
 30
0
 10
4.3478
 20
-52.5477
 30
0
 10
4.53205
 20
-52.4423
 30
0
 10
4.68071
 20
-52.2811
 30
0
 10
4.77088
 20
-52.1081
 30
0
 10
4.86246
 20
-51.9346
 30
0
 10
4.89812
 20
-51.7533
 30
0
 10
4.8978
 20
-51.5951
 30
0
  0
SPLINE
  5
A09
330
A02
100
AcDbEntity
  8
circle12
100
AcDbSpline
210
0
220
0
230
1
 70
9
 71
3
 72
41
 73
37
 74
0
 40
0
 40
0
 40
0
 40
0
 40
0.523599
 40
0.523599
 40
0.523599
 40
1.0472
 40
1.0472
 40
1.0472
 40
1.5708
 40
1.5708
 40
1.5708
 40
2.0944
 40
2.0944
 40
2.0944
 40
2.61799
 40
2.61799
 40
2.61799
 40
3.14159
 40
3.14159
 40
3.14159
 40
3.66519
 40
3.66519
 40
3.66519
 40
4.18879
 40
4.18879
 40
4.18879
 40
4.71239
 40
4.71239
 40
4.71239
 40
5.23599
 40
5.23599
 40
5.23599
 40
5.75959
 40
5.75959
 40
5.75959
 40
6.28319
 40
6.28319
 40
6.28319
 40
6.28319
 10
337.138
 20
-99.9951
 30
0
 10
337.138
 20
-99.8369
 30
0
 10
337.102
 20
-99.6556
 30
0
 10
337.011
 20
-99.4821
 30
0
 10
336.921
 20
-99.3091
 30
0
 10
336.772
 20
-99.1479
 30
0
 10
336.588
 20
-99.0425
 30
0
 10
336.404
 20
-98.9356
 30
0
 10
336.19
 20
-98.8875
 30
0
 10
335.995
 20
-98.8959
 30
0
 10
335.8
 20
-98.9033
 30
0
 10
335.625
 20
-98.9631
 30
0
 10
335.488
 20
-99.0425
 30
0
 10
335.351
 20
-99.1213
 30
0
 10
335.211
 20
-99.2428
 30
0
 10
335.107
 20
-99.4089
 30
0
 10
335.002
 20
-99.5735
 30
0
 10
334.937
 20
-99.7828
 30
0
 10
334.938
 20
-99.9951
 30
0
 10
334.937
 20
-100.207
 30
0
 10
335.002
 20
-100.417
 30
0
 10
335.107
 20
-100.581
 30
0
 10
335.211
 20
-100.747
 30
0
 10
335.351
 20
-100.869
 30
0
 10
335.488
 20
-100.948
 30
0
 10
335.625
 20
-101.027
 30
0
 10
335.8
 20
-101.087
 30
0
 10
335.995
 20
-101.094
 30
0
 10
336.19
 20
-101.103
 30
0
 10
336.404
 20
-101.055
 30
0
 10
336.588
 20
-100.948
 30
0
 10
336.772
 20
-100.842
 30
0
 10
336.921
 20
-100.681
 30
0
 10
337.011
 20
-100.508
 30
0
 10
337.102
 20
-100.335
 30
0
 10
337.138
 20
-100.153
 30
0
 10
337.138
 20
-99.9951
 30
0
  0
SPLINE
  5
A0A
330
A02
100
AcDbEntity
  8
circle16
100
AcDbSpline
210
0
220
0
230
1
 70
9
 71
3
 72
41
 73
37
 74
0
 40
0
 40
0
 40
0
 40
0
 40
0.523599
 40
0.523599
 40
0.523599
 40
1.0472
 40
1.0472
 40
1.0472
 40
1.5708
 40
1.5708
 40
1.5708
 40
2.0944
 40
2.0944
 40
2.0944
 40
2.61799
 40
2.61799
 40
2.61799
 40
3.14159
 40
3.14159
 40
3.14159
 40
3.66519
 40
3.66519
 40
3.66519
 40
4.18879
 40
4.18879
 40
4.18879
 40
4.71239
 40
4.71239
 40
4.71239
 40
5.23599
 40
5.23599
 40
5.23599
 40
5.75959
 40
5.75959
 40
5.75959
 40
6.28319
 40
6.28319
 40
6.28319
 40
6.28319
 10
241.058
 20
-118.785
 30
0
 10
241.058
 20
-118.627
 30
0
 10
241.022
 20
-118.446
 30
0
 10
240.931
 20
-118.272
 30
0
 10
240.841
 20
-118.099
 30
0
 10
240.692
 20
-117.938
 30
0
 10
240.508
 20
-117.832
 30
0
 10
240.324
 20
-117.726
 30
0
 10
240.11
 20
-117.677
 30
0
 10
239.915
 20
-117.686
 30
0
 10
239.72
 20
-117.693
 30
0
 10
239.545
 20
-117.753
 30
0
 10
239.408
 20
-117.832
 30
0
 10
239.271
 20
-117.911
 30
0
 10
239.131
 20
-118.033
 30
0
 10
239.027
 20
-118.199
 30
0
 10
238.922
 20
-118.363
 30
0
 10
238.857
 20
-118.573
 30
0
 10
238.858
 20
-118.785
 30
0
 10
238.857
 20
-118.997
 30
0
 10
238.922
 20
-119.207
 30
0
 10
239.027
 20
-119.371
 30
0
 10
239.131
 20
-119.537
 30
0
 10
239.271
 20
-119.659
 30
0
 10
239.408
 20
-119.738
 30
0
 10
239.545
 20
-119.817
 30
0
 10
239.72
 20
-119.877
 30
0
 10
239.915
 20
-119.884
 30
0
 10
240.11
 20
-119.893
 30
0
 10
240.324
 20
-119.845
 30
0
 10
240.508
 20
-119.738
 30
0
 10
240.692
 20
-119.632
 30
0
 10
240.841
 20
-119.471
 30
0
 10
240.931
 20
-119.298
 30
0
 10
241.022
 20
-119.125
 30
0
 10
241.058
 20
-118.943
 30
0
 10
241.058
 20
-118.785
 30
0
  0
SPLINE
  5
A0B
330
A02
100
AcDbEntity
  8
circle20
100
AcDbSpline
210
0
220
0
230
1
 70
9
 71
3
 72
41
 73
37
 74
0
 40
0
 40
0
 40
0
 40
0
 40
0.523599
 40
0.523599
 40
0.523599
 40
1.0472
 40
1.0472
 40
1.0472
 40
1.5708
 40
1.5708
 40
1.5708
 40
2.0944
 40
2.0944
 40
2.0944
 40
2.61799
 40
2.61799
 40
2.61799
 40
3.14159
 40
3.14159
 40
3.14159
 40
3.66519
 40
3.66519
 40
3.66519
 40
4.18879
 40
4.18879
 40
4.18879
 40
4.71239
 40
4.71239
 40
4.71239
 40
5.23599
 40
5.23599
 40
5.23599
 40
5.75959
 40
5.75959
 40
5.75959
 40
6.28319
 40
6.28319
 40
6.28319
 40
6.28319
 10
279.868
 20
-81.5251
 30
0
 10
279.868
 20
-81.3669
 30
0
 10
279.832
 20
-81.1856
 30
0
 10
279.741
 20
-81.0121
 30
0
 10
279.651
 20
-80.8391
 30
0
 10
279.502
 20
-80.6779
 30
0
 10
279.318
 20
-80.5725
 30
0
 10
279.134
 20
-80.4656
 30
0
 10
278.92
 20
-80.4175
 30
0
 10
278.725
 20
-80.4259
 30
0
 10
278.53
 20
-80.4333
 30
0
 10
278.355
 20
-80.4931
 30
0
 10
278.218
 20
-80.5725
 30
0
 10
278.081
 20
-80.6513
 30
0
 10
277.941
 20
-80.7728
 30
0
 10
277.837
 20
-80.9389
 30
0
 10
277.732
 20
-81.1035
 30
0
 10
277.667
 20
-81.3128
 30
0
 10
277.668
 20
-81.5251
 30
0
 10
277.667
 20
-81.7374
 30
0
 10
277.732
 20
-81.9467
 30
0
 10
277.837
 20
-82.1113
 30
0
 10
277.941
 20
-82.2774
 30
0
 10
278.081
 20
-82.3989
 30
0
 10
278.218
 20
-82.4777
 30
0
 10
278.355
 20
-82.5571
 30
0
 10
278.53
 20
-82.6169
 30
0
 10
278.725
 20
-82.6243
 30
0
 10
278.92
 20
-82.6327
 30
0
 10
279.134
 20
-82.5846
 30
0
 10
279.318
 20
-82.4777
 30
0
 10
279.502
 20
-82.3723
 30
0
 10
279.651
 20
-82.2111
 30
0
 10
279.741
 20
-82.0381
 30
0
 10
279.832
 20
-81.8646
 30
0
 10
279.868
 20
-81.6833
 30
0
 10
279.868
 20
-81.5251
 30
0
  0
SPLINE
  5
A0C
330
A02
100
AcDbEntity
  8
circle24
100
AcDbSpline
210
0
220
0
230
1
 70
9
 71
3
 72
41
 73
37
 74
0
 40
0
 40
0
 40
0
 40
0
 40
0.523599
 40
0.523599
 40
0.523599
 40
1.0472
 40
1.0472
 40
1.0472
 40
1.5708
 40
1.5708
 40
1.5708
 40
2.0944
 40
2.0944
 40
2.0944
 40
2.61799
 40
2.61799
 40
2.61799
 40
3.14159
 40
3.14159
 40
3.14159
 40
3.66519
 40
3.66519
 40
3.66519
 40
4.18879
 40
4.18879
 40
4.18879
 40
4.71239
 40
4.71239
 40
4.71239
 40
5.23599
 40
5.23599
 40
5.23599
 40
5.75959
 40
5.75959
 40
5.75959
 40
6.28319
 40
6.28319
 40
6.28319
 40
6.28319
 10
145.678
 20
-73.2651
 30
0
 10
145.678
 20
-73.1069
 30
0
 10
145.642
 20
-72.9256
 30
0
 10
145.551
 20
-72.7521
 30
0
 10
145.461
 20
-72.5791
 30
0
 10
145.312
 20
-72.4179
 30
0
 10
145.128
 20
-72.3125
 30
0
 10
144.944
 20
-72.2056
 30
0
 10
144.73
 20
-72.1575
 30
0
 10
144.535
 20
-72.1659
 30
0
 10
144.34
 20
-72.1733
 30
0
 10
144.165
 20
-72.2331
 30
0
 10
144.028
 20
-72.3125
 30
0
 10
143.891
 20
-72.3913
 30
0
 10
143.751
 20
-72.5128
 30
0
 10
143.647
 20
-72.6789
 30
0
 10
143.542
 20
-72.8435
 30
0
 10
143.477
 20
-73.0528
 30
0
 10
143.478
 20
-73.2651
 30
0
 10
143.477
 20
-73.4774
 30
0
 10
143.542
 20
-73.6867
 30
0
 10
143.647
 20
-73.8513
 30
0
 10
143.751
 20
-74.0174
 30
0
 10
143.891
 20
-74.1389
 30
0
 10
144.028
 20
-74.2177
 30
0
 10
144.165
 20
-74.2971
 30
0
 10
144.34
 20
-74.3569
 30
0
 10
144.535
 20
-74.3643
 30
0
 10
144.73
 20
-74.3727
 30
0
 10
144.944
 20
-74.3246
 30
0
 10
145.128
 20
-74.2177
 30
0
 10
145.312
 20
-74.1123
 30
0
 10
145.461
 20
-73.9511
 30
0
 10
145.551
 20
-73.7781
 30
0
 10
145.642
 20
-73.6046
 30
0
 10
145.678
 20
-73.4233
 30
0
 10
145.678
 20
-73.2651
 30
0
  0
SPLINE
  5
A0D
330
A02
100
AcDbEntity
  8
circle28
100
AcDbSpline
210
0
220
0
230
1
 70
9
 71
3
 72
41
 73
37
 74
0
 40
0
 40
0
 40
0
 40
0
 40
0.523599
 40
0.523599
 40
0.523599
 40
1.0472
 40
1.0472
 40
1.0472
 40
1.5708
 40
1.5708
 40
1.5708
 40
2.0944
 40
2.0944
 40
2.0944
 40
2.61799
 40
2.61799
 40
2.61799
 40
3.14159
 40
3.14159
 40
3.14159
 40
3.66519
 40
3.66519
 40
3.66519
 40
4.18879
 40
4.18879
 40
4.18879
 40
4.71239
 40
4.71239
 40
4.71239
 40
5.23599
 40
5.23599
 40
5.23599
 40
5.75959
 40
5.75959
 40
5.75959
 40
6.28319
 40
6.28319
 40
6.28319
 40
6.28319
 10
204.078
 20
-99.7451
 30
0
 10
204.078
 20
-99.5869
 30
0
 10
204.042
 20
-99.4056
 30
0
 10
203.951
 20
-99.2321
 30
0
 10
203.861
 20
-99.0591
 30
0
 10
203.712
 20
-98.8979
 30
0
 10
203.528
 20
-98.7925
 30
0
 10
203.344
 20
-98.6856
 30
0
 10
203.13
 20
-98.6375
 30
0
 10
202.935
 20
-98.6459
 30
0
 10
202.74
 20
-98.6533
 30
0
 10
202.565
 20
-98.7131
 30
0
 10
202.428
 20
-98.7925
 30
0
 10
202.291
 20
-98.8713
 30
0
 10
202.151
 20
-98.9928
 30
0
 10
202.047
 20
-99.1589
 30
0
 10
201.942
 20
-99.3235
 30
0
 10
201.877
 20
-99.5328
 30
0
 10
201.878
 20
-99.7451
 30
0
 10
201.877
 20
-99.9574
 30
0
 10
201.942
 20
-100.167
 30
0
 10
202.047
 20
-100.331
 30
0
 10
202.151
 20
-100.497
 30
0
 10
202.291
 20
-100.619
 30
0
 10
202.428
 20
-100.698
 30
0
 10
202.565
 20
-100.777
 30
0
 10
202.74
 20
-100.837
 30
0
 10
202.935
 20
-100.844
 30
0
 10
203.13
 20
-100.853
 30
0
 10
203.344
 20
-100.805
 30
0
 10
203.528
 20
-100.698
 30
0
 10
203.712
 20
-100.592
 30
0
 10
203.861
 20
-100.431
 30
0
 10
203.951
 20
-100.258
 30
0
 10
204.042
 20
-100.085
 30
0
 10
204.078
 20
-99.9033
 30
0
 10
204.078
 20
-99.7451
 30
0
  0
SPLINE
  5
A0E
330
A02
100
AcDbEntity
  8
circle32
100
AcDbSpline
210
0
220
0
230
1
 70
9
 71
3
 72
41
 73
37
 74
0
 40
0
 40
0
 40
0
 40
0
 40
0.523599
 40
0.523599
 40
0.523599
 40
1.0472
 40
1.0472
 40
1.0472
 40
1.5708
 40
1.5708
 40
1.5708
 40
2.0944
 40
2.0944
 40
2.0944
 40
2.61799
 40
2.61799
 40
2.61799
 40
3.14159
 40
3.14159
 40
3.14159
 40
3.66519
 40
3.66519
 40
3.66519
 40
4.18879
 40
4.18879
 40
4.18879
 40
4.71239
 40
4.71239
 40
4.71239
 40
5.23599
 40
5.23599
 40
5.23599
 40
5.75959
 40
5.75959
 40
5.75959
 40
6.28319
 40
6.28319
 40
6.28319
 40
6.28319
 10
186.168
 20
-156.195
 30
0
 10
186.168
 20
-156.037
 30
0
 10
186.132
 20
-155.856
 30
0
 10
186.041
 20
-155.682
 30
0
 10
185.951
 20
-155.509
 30
0
 10
185.802
 20
-155.348
 30
0
 10
185.618
 20
-155.242
 30
0
 10
185.434
 20
-155.136
 30
0
 10
185.22
 20
-155.087
 30
0
 10
185.025
 20
-155.096
 30
0
 10
184.83
 20
-155.103
 30
0
 10
184.655
 20
-155.163
 30
0
 10
184.518
 20
-155.242
 30
0
 10
184.381
 20
-155.321
 30
0
 10
184.241
 20
-155.443
 30
0
 10
184.137
 20
-155.609
 30
0
 10
184.032
 20
-155.773
 30
0
 10
183.967
 20
-155.983
 30
0
 10
183.968
 20
-156.195
 30
0
 10
183.967
 20
-156.407
 30
0
 10
184.032
 20
-156.617
 30
0
 10
184.137
 20
-156.781
 30
0
 10
184.241
 20
-156.947
 30
0
 10
184.381
 20
-157.069
 30
0
 10
184.518
 20
-157.148
 30
0
 10
184.655
 20
-157.227
 30
0
 10
184.83
 20
-157.287
 30
0
 10
185.025
 20
-157.294
 30
0
 10
185.22
 20
-157.303
 30
0
 10
185.434
 20
-157.255
 30
0
 10
185.618
 20
-157.148
 30
0
 10
185.802
 20
-157.042
 30
0
 10
185.951
 20
-156.881
 30
0
 10
186.041
 20
-156.708
 30
0
 10
186.132
 20
-156.535
 30
0
 10
186.168
 20
-156.353
 30
0
 10
186.168
 20
-156.195
 30
0
  0
SPLINE
  5
A0F
330
A02
100
AcDbEntity
  8
circle36
100
AcDbSpline
210
0
220
0
230
1
 70
9
 71
3
 72
41
 73
37
 74
0
 40
0
 40
0
 40
0
 40
0
 40
0.523599
 40
0.523599
 40
0.523599
 40
1.0472
 40
1.0472
 40
1.0472
 40
1.5708
 40
1.5708
 40
1.5708
 40
2.0944
 40
2.0944
 40
2.0944
 40
2.61799
 40
2.61799
 40
2.61799
 40
3.14159
 40
3.14159
 40
3.14159
 40
3.66519
 40
3.66519
 40
3.66519
 40
4.18879
 40
4.18879
 40
4.18879
 40
4.71239
 40
4.71239
 40
4.71239
 40
5.23599
 40
5.23599
 40
5.23599
 40
5.75959
 40
5.75959
 40
5.75959
 40
6.28319
 40
6.28319
 40
6.28319
 40
6.28319
 10
241.948
 20
-137.915
 30
0
 10
241.948
 20
-137.757
 30
0
 10
241.912
 20
-137.576
 30
0
 10
241.821
 20
-137.402
 30
0
 10
241.731
 20
-137.229
 30
0
 10
241.582
 20
-137.068
 30
0
 10
241.398
 20
-136.962
 30
0
 10
241.214
 20
-136.856
 30
0
 10
241
 20
-136.807
 30
0
 10
240.805
 20
-136.816
 30
0
 10
240.61
 20
-136.823
 30
0
 10
240.435
 20
-136.883
 30
0
 10
240.298
 20
-136.962
 30
0
 10
240.161
 20
-137.041
 30
0
 10
240.021
 20
-137.163
 30
0
 10
239.917
 20
-137.329
 30
0
 10
239.812
 20
-137.493
 30
0
 10
239.747
 20
-137.703
 30
0
 10
239.748
 20
-137.915
 30
0
 10
239.747
 20
-138.127
 30
0
 10
239.812
 20
-138.337
 30
0
 10
239.917
 20
-138.501
 30
0
 10
240.021
 20
-138.667
 30
0
 10
240.161
 20
-138.789
 30
0
 10
240.298
 20
-138.868
 30
0
 10
240.435
 20
-138.947
 30
0
 10
240.61
 20
-139.007
 30
0
 10
240.805
 20
-139.014
 30
0
 10
241
 20
-139.023
 30
0
 10
241.214
 20
-138.975
 30
0
 10
241.398
 20
-138.868
 30
0
 10
241.582
 20
-138.762
 30
0
 10
241.731
 20
-138.601
 30
0
 10
241.821
 20
-138.428
 30
0
 10
241.912
 20
-138.255
 30
0
 10
241.948
 20
-138.073
 30
0
 10
241.948
 20
-137.915
 30
0
  0
SPLINE
  5
A10
330
A02
100
AcDbEntity
  8
circle40
100
AcDbSpline
210
0
220
0
230
1
 70
9
 71
3
 72
41
 73
37
 74
0
 40
0
 40
0
 40
0
 40
0
 40
0.523599
 40
0.523599
 40
0.523599
 40
1.0472
 40
1.0472
 40
1.0472
 40
1.5708
 40
1.5708
 40
1.5708
 40
2.0944
 40
2.0944
 40
2.0944
 40
2.61799
 40
2.61799
 40
2.61799
 40
3.14159
 40
3.14159
 40
3.14159
 40
3.66519
 40
3.66519
 40
3.66519
 40
4.18879
 40
4.18879
 40
4.18879
 40
4.71239
 40
4.71239
 40
4.71239
 40
5.23599
 40
5.23599
 40
5.23599
 40
5.75959
 40
5.75959
 40
5.75959
 40
6.28319
 40
6.28319
 40
6.28319
 40
6.28319
 10
300.568
 20
-43.4451
 30
0
 10
300.568
 20
-43.2869
 30
0
 10
300.532
 20
-43.1056
 30
0
 10
300.441
 20
-42.9321
 30
0
 10
300.351
 20
-42.7591
 30
0
 10
300.202
 20
-42.5979
 30
0
 10
300.018
 20
-42.4925
 30
0
 10
299.834
 20
-42.3856
 30
0
 10
299.62
 20
-42.3375
 30
0
 10
299.425
 20
-42.3459
 30
0
 10
299.23
 20
-42.3533
 30
0
 10
299.055
 20
-42.4131
 30
0
 10
298.918
 20
-42.4925
 30
0
 10
298.781
 20
-42.5713
 30
0
 10
298.641
 20
-42.6928
 30
0
 10
298.537
 20
-42.8589
 30
0
 10
298.432
 20
-43.0235
 30
0
 10
298.367
 20
-43.2328
 30
0
 10
298.368
 20
-43.4451
 30
0
 10
298.367
 20
-43.6574
 30
0
 10
298.432
 20
-43.8667
 30
0
 10
298.537
 20
-44.0313
 30
0
 10
298.641
 20
-44.1974
 30
0
 10
298.781
 20
-44.3189
 30
0
 10
298.918
 20
-44.3977
 30
0
 10
299.055
 20
-44.4771
 30
0
 10
299.23
 20
-44.5369
 30
0
 10
299.425
 20
-44.5443
 30
0
 10
299.62
 20
-44.5527
 30
0
 10
299.834
 20
-44.5046
 30
0
 10
300.018
 20
-44.3977
 30
0
 10
300.202
 20
-44.2923
 30
0
 10
300.351
 20
-44.1311
 30
0
 10
300.441
 20
-43.9581
 30
0
 10
300.532
 20
-43.7846
 30
0
 10
300.568
 20
-43.6033
 30
0
 10
300.568
 20
-43.4451
 30
0
  0
SPLINE
  5
A11
330
A02
100
AcDbEntity
  8
circle44
100
AcDbSpline
210
0
220
0
230
1
 70
9
 71
3
 72
41
 73
37
 74
0
 40
0
 40
0
 40
0
 40
0
 40
0.523599
 40
0.523599
 40
0.523599
 40
1.0472
 40
1.0472
 40
1.0472
 40
1.5708
 40
1.5708
 40
1.5708
 40
2.0944
 40
2.0944
 40
2.0944
 40
2.61799
 40
2.61799
 40
2.61799
 40
3.14159
 40
3.14159
 40
3.14159
 40
3.66519
 40
3.66519
 40
3.66519
 40
4.18879
 40
4.18879
 40
4.18879
 40
4.71239
 40
4.71239
 40
4.71239
 40
5.23599
 40
5.23599
 40
5.23599
 40
5.75959
 40
5.75959
 40
5.75959
 40
6.28319
 40
6.28319
 40
6.28319
 40
6.28319
 10
300.418
 20
-155.675
 30
0
 10
300.418
 20
-155.517
 30
0
 10
300.382
 20
-155.336
 30
0
 10
300.291
 20
-155.162
 30
0
 10
300.201
 20
-154.989
 30
0
 10
300.052
 20
-154.828
 30
0
 10
299.868
 20
-154.722
 30
0
 10
299.684
 20
-154.616
 30
0
 10
299.47
 20
-154.567
 30
0
 10
299.275
 20
-154.576
 30
0
 10
299.08
 20
-154.583
 30
0
 10
298.905
 20
-154.643
 30
0
 10
298.768
 20
-154.722
 30
0
 10
298.631
 20
-154.801
 30
0
 10
298.491
 20
-154.923
 30
0
 10
298.387
 20
-155.089
 30
0
 10
298.282
 20
-155.253
 30
0
 10
298.217
 20
-155.463
 30
0
 10
298.218
 20
-155.675
 30
0
 10
298.217
 20
-155.887
 30
0
 10
298.282
 20
-156.097
 30
0
 10
298.387
 20
-156.261
 30
0
 10
298.491
 20
-156.427
 30
0
 10
298.631
 20
-156.549
 30
0
 10
298.768
 20
-156.628
 30
0
 10
298.905
 20
-156.707
 30
0
 10
299.08
 20
-156.767
 30
0
 10
299.275
 20
-156.774
 30
0
 10
299.47
 20
-156.783
 30
0
 10
299.684
 20
-156.735
 30
0
 10
299.868
 20
-156.628
 30
0
 10
300.052
 20
-156.522
 30
0
 10
300.201
 20
-156.361
 30
0
 10
300.291
 20
-156.188
 30
0
 10
300.382
 20
-156.015
 30
0
 10
300.418
 20
-155.833
 30
0
 10
300.418
 20
-155.675
 30
0
  0
SPLINE
  5
A12
330
A02
100
AcDbEntity
  8
circle48
100
AcDbSpline
210
0
220
0
230
1
 70
9
 71
3
 72
41
 73
37
 74
0
 40
0
 40
0
 40
0
 40
0
 40
0.523599
 40
0.523599
 40
0.523599
 40
1.0472
 40
1.0472
 40
1.0472
 40
1.5708
 40
1.5708
 40
1.5708
 40
2.0944
 40
2.0944
 40
2.0944
 40
2.61799
 40
2.61799
 40
2.61799
 40
3.14159
 40
3.14159
 40
3.14159
 40
3.66519
 40
3.66519
 40
3.66519
 40
4.18879
 40
4.18879
 40
4.18879
 40
4.71239
 40
4.71239
 40
4.71239
 40
5.23599
 40
5.23599
 40
5.23599
 40
5.75959
 40
5.75959
 40
5.75959
 40
6.28319
 40
6.28319
 40
6.28319
 40
6.28319
 10
357.598
 20
-43.5051
 30
0
 10
357.598
 20
-43.3469
 30
0
 10
357.562
 20
-43.1656
 30
0
 10
357.471
 20
-42.9921
 30
0
 10
357.381
 20
-42.8191
 30
0
 10
357.232
 20
-42.6579
 30
0
 10
357.048
 20
-42.5525
 30
0
 10
356.864
 20
-42.4456
 30
0
 10
356.65
 20
-42.3975
 30
0
 10
356.455
 20
-42.4059
 30
0
 10
356.26
 20
-42.4133
 30
0
 10
356.085
 20
-42.4731
 30
0
 10
355.948
 20
-42.5525
 30
0
 10
355.811
 20
-42.6313
 30
0
 10
355.671
 20
-42.7528
 30
0
 10
355.567
 20
-42.9189
 30
0
 10
355.462
 20
-43.0835
 30
0
 10
355.397
 20
-43.2928
 30
0
 10
355.398
 20
-43.5051
 30
0
 10
355.397
 20
-43.7174
 30
0
 10
355.462
 20
-43.9267
 30
0
 10
355.567
 20
-44.0913
 30
0
 10
355.671
 20
-44.2574
 30
0
 10
355.811
 20
-44.3789
 30
0
 10
355.948
 20
-44.4577
 30
0
 10
356.085
 20
-44.5371
 30
0
 10
356.26
 20
-44.5969
 30
0
 10
356.455
 20
-44.6043
 30
0
 10
356.65
 20
-44.6127
 30
0
 10
356.864
 20
-44.5646
 30
0
 10
357.048
 20
-44.4577
 30
0
 10
357.232
 20
-44.3523
 30
0
 10
357.381
 20
-44.1911
 30
0
 10
357.471
 20
-44.0181
 30
0
 10
357.562
 20
-43.8446
 30
0
 10
357.598
 20
-43.6633
 30
0
 10
357.598
 20
-43.5051
 30
0
  0
SPLINE
  5
A13
330
A02
100
AcDbEntity
  8
circle52
100
AcDbSpline
210
0
220
0
230
1
 70
9
 71
3
 72
41
 73
37
 74
0
 40
0
 40
0
 40
0
 40
0
 40
0.523599
 40
0.523599
 40
0.523599
 40
1.0472
 40
1.0472
 40
1.0472
 40
1.5708
 40
1.5708
 40
1.5708
 40
2.0944
 40
2.0944
 40
2.0944
 40
2.61799
 40
2.61799
 40
2.61799
 40
3.14159
 40
3.14159
 40
3.14159
 40
3.66519
 40
3.66519
 40
3.66519
 40
4.18879
 40
4.18879
 40
4.18879
 40
4.71239
 40
4.71239
 40
4.71239
 40
5.23599
 40
5.23599
 40
5.23599
 40
5.75959
 40
5.75959
 40
5.75959
 40
6.28319
 40
6.28319
 40
6.28319
 40
6.28319
 10
356.298
 20
-137.915
 30
0
 10
356.298
 20
-137.757
 30
0
 10
356.262
 20
-137.576
 30
0
 10
356.171
 20
-137.402
 30
0
 10
356.081
 20
-137.229
 30
0
 10
355.932
 20
-137.068
 30
0
 10
355.748
 20
-136.962
 30
0
 10
355.564
 20
-136.856
 30
0
 10
355.35
 20
-136.807
 30
0
 10
355.155
 20
-136.816
 30
0
 10
354.96
 20
-136.823
 30
0
 10
354.785
 20
-136.883
 30
0
 10
354.648
 20
-136.962
 30
0
 10
354.511
 20
-137.041
 30
0
 10
354.371
 20
-137.163
 30
0
 10
354.267
 20
-137.329
 30
0
 10
354.162
 20
-137.493
 30
0
 10
354.097
 20
-137.703
 30
0
 10
354.098
 20
-137.915
 30
0
 10
354.097
 20
-138.127
 30
0
 10
354.162
 20
-138.337
 30
0
 10
354.267
 20
-138.501
 30
0
 10
354.371
 20
-138.667
 30
0
 10
354.511
 20
-138.789
 30
0
 10
354.648
 20
-138.868
 30
0
 10
354.785
 20
-138.947
 30
0
 10
354.96
 20
-139.007
 30
0
 10
355.155
 20
-139.014
 30
0
 10
355.35
 20
-139.023
 30
0
 10
355.564
 20
-138.975
 30
0
 10
355.748
 20
-138.868
 30
0
 10
355.932
 20
-138.762
 30
0
 10
356.081
 20
-138.601
 30
0
 10
356.171
 20
-138.428
 30
0
 10
356.262
 20
-138.255
 30
0
 10
356.298
 20
-138.073
 30
0
 10
356.298
 20
-137.915
 30
0
  0
SPLINE
  5
A14
330
A02
100
AcDbEntity
  8
circle56
100
AcDbSpline
210
0
220
0
230
1
 70
9
 71
3
 72
41
 73
37
 74
0
 40
0
 40
0
 40
0
 40
0
 40
0.523599
 40
0.523599
 40
0.523599
 40
1.0472
 40
1.0472
 40
1.0472
 40
1.5708
 40
1.5708
 40
1.5708
 40
2.0944
 40
2.0944
 40
2.0944
 40
2.61799
 40
2.61799
 40
2.61799
 40
3.14159
 40
3.14159
 40
3.14159
 40
3.66519
 40
3.66519
 40
3.66519
 40
4.18879
 40
4.18879
 40
4.18879
 40
4.71239
 40
4.71239
 40
4.71239
 40
5.23599
 40
5.23599
 40
5.23599
 40
5.75959
 40
5.75959
 40
5.75959
 40
6.28319
 40
6.28319
 40
6.28319
 40
6.28319
 10
74.0278
 20
-150.725
 30
0
 10
74.0281
 20
-150.567
 30
0
 10
73.9925
 20
-150.386
 30
0
 10
73.9009
 20
-150.212
 30
0
 10
73.8107
 20
-150.039
 30
0
 10
73.662
 20
-149.878
 30
0
 10
73.4778
 20
-149.772
 30
0
 10
73.2944
 20
-149.666
 30
0
 10
73.0805
 20
-149.617
 30
0
 10
72.8855
 20
-149.626
 30
0
 10
72.6895
 20
-149.633
 30
0
 10
72.5146
 20
-149.693
 30
0
 10
72.3778
 20
-149.772
 30
0
 10
72.2406
 20
-149.851
 30
0
 10
72.1014
 20
-149.973
 30
0
 10
71.997
 20
-150.139
 30
0
 10
71.8922
 20
-150.303
 30
0
 10
71.827
 20
-150.513
 30
0
 10
71.8278
 20
-150.725
 30
0
 10
71.827
 20
-150.937
 30
0
 10
71.8922
 20
-151.147
 30
0
 10
71.997
 20
-151.311
 30
0
 10
72.1014
 20
-151.477
 30
0
 10
72.2406
 20
-151.599
 30
0
 10
72.3778
 20
-151.678
 30
0
 10
72.5146
 20
-151.757
 30
0
 10
72.6895
 20
-151.817
 30
0
 10
72.8855
 20
-151.824
 30
0
 10
73.0805
 20
-151.833
 30
0
 10
73.2944
 20
-151.785
 30
0
 10
73.4778
 20
-151.678
 30
0
 10
73.662
 20
-151.572
 30
0
 10
73.8107
 20
-151.411
 30
0
 10
73.9009
 20
-151.238
 30
0
 10
73.9925
 20
-151.065
 30
0
 10
74.0281
 20
-150.883
 30
0
 10
74.0278
 20
-150.725
 30
0
  0
SPLINE
  5
A15
330
A02
100
AcDbEntity
  8
circle60
100
AcDbSpline
210
0
220
0
230
1
 70
9
 71
3
 72
41
 73
37
 74
0
 40
0
 40
0
 40
0
 40
0
 40
0.523599
 40
0.523599
 40
0.523599
 40
1.0472
 40
1.0472
 40
1.0472
 40
1.5708
 40
1.5708
 40
1.5708
 40
2.0944
 40
2.0944
 40
2.0944
 40
2.61799
 40
2.61799
 40
2.61799
 40
3.14159
 40
3.14159
 40
3.14159
 40
3.66519
 40
3.66519
 40
3.66519
 40
4.18879
 40
4.18879
 40
4.18879
 40
4.71239
 40
4.71239
 40
4.71239
 40
5.23599
 40
5.23599
 40
5.23599
 40
5.75959
 40
5.75959
 40
5.75959
 40
6.28319
 40
6.28319
 40
6.28319
 40
6.28319
 10
124.178
 20
-61.7351
 30
0
 10
124.178
 20
-61.5769
 30
0
 10
124.142
 20
-61.3956
 30
0
 10
124.051
 20
-61.2221
 30
0
 10
123.961
 20
-61.0491
 30
0
 10
123.812
 20
-60.8879
 30
0
 10
123.628
 20
-60.7825
 30
0
 10
123.444
 20
-60.6756
 30
0
 10
123.23
 20
-60.6275
 30
0
 10
123.035
 20
-60.6359
 30
0
 10
122.84
 20
-60.6433
 30
0
 10
122.665
 20
-60.7031
 30
0
 10
122.528
 20
-60.7825
 30
0
 10
122.391
 20
-60.8613
 30
0
 10
122.251
 20
-60.9828
 30
0
 10
122.147
 20
-61.1489
 30
0
 10
122.042
 20
-61.3135
 30
0
 10
121.977
 20
-61.5228
 30
0
 10
121.978
 20
-61.7351
 30
0
 10
121.977
 20
-61.9474
 30
0
 10
122.042
 20
-62.1567
 30
0
 10
122.147
 20
-62.3213
 30
0
 10
122.251
 20
-62.4874
 30
0
 10
122.391
 20
-62.6089
 30
0
 10
122.528
 20
-62.6877
 30
0
 10
122.665
 20
-62.7671
 30
0
 10
122.84
 20
-62.8269
 30
0
 10
123.035
 20
-62.8343
 30
0
 10
123.23
 20
-62.8427
 30
0
 10
123.444
 20
-62.7946
 30
0
 10
123.628
 20
-62.6877
 30
0
 10
123.812
 20
-62.5823
 30
0
 10
123.961
 20
-62.4211
 30
0
 10
124.051
 20
-62.2481
 30
0
 10
124.142
 20
-62.0746
 30
0
 10
124.178
 20
-61.8933
 30
0
 10
124.178
 20
-61.7351
 30
0
  0
SPLINE
  5
A16
330
A02
100
AcDbEntity
  8
circle64
100
AcDbSpline
210
0
220
0
230
1
 70
9
 71
3
 72
41
 73
37
 74
0
 40
0
 40
0
 40
0
 40
0
 40
0.523599
 40
0.523599
 40
0.523599
 40
1.0472
 40
1.0472
 40
1.0472
 40
1.5708
 40
1.5708
 40
1.5708
 40
2.0944
 40
2.0944
 40
2.0944
 40
2.61799
 40
2.61799
 40
2.61799
 40
3.14159
 40
3.14159
 40
3.14159
 40
3.66519
 40
3.66519
 40
3.66519
 40
4.18879
 40
4.18879
 40
4.18879
 40
4.71239
 40
4.71239
 40
4.71239
 40
5.23599
 40
5.23599
 40
5.23599
 40
5.75959
 40
5.75959
 40
5.75959
 40
6.28319
 40
6.28319
 40
6.28319
 40
6.28319
 10
83.4678
 20
-73.4051
 30
0
 10
83.4681
 20
-73.2469
 30
0
 10
83.4325
 20
-73.0656
 30
0
 10
83.3409
 20
-72.8921
 30
0
 10
83.2507
 20
-72.7191
 30
0
 10
83.102
 20
-72.5579
 30
0
 10
82.9178
 20
-72.4525
 30
0
 10
82.7344
 20
-72.3456
 30
0
 10
82.5205
 20
-72.2975
 30
0
 10
82.3255
 20
-72.3059
 30
0
 10
82.1295
 20
-72.3133
 30
0
 10
81.9546
 20
-72.3731
 30
0
 10
81.8178
 20
-72.4525
 30
0
 10
81.6806
 20
-72.5313
 30
0
 10
81.5414
 20
-72.6528
 30
0
 10
81.437
 20
-72.8189
 30
0
 10
81.3322
 20
-72.9835
 30
0
 10
81.267
 20
-73.1928
 30
0
 10
81.2678
 20
-73.4051
 30
0
 10
81.267
 20
-73.6174
 30
0
 10
81.3322
 20
-73.8267
 30
0
 10
81.437
 20
-73.9913
 30
0
 10
81.5414
 20
-74.1574
 30
0
 10
81.6806
 20
-74.2789
 30
0
 10
81.8178
 20
-74.3577
 30
0
 10
81.9546
 20
-74.4371
 30
0
 10
82.1295
 20
-74.4969
 30
0
 10
82.3255
 20
-74.5043
 30
0
 10
82.5205
 20
-74.5127
 30
0
 10
82.7344
 20
-74.4646
 30
0
 10
82.9178
 20
-74.3577
 30
0
 10
83.102
 20
-74.2523
 30
0
 10
83.2507
 20
-74.0911
 30
0
 10
83.3409
 20
-73.9181
 30
0
 10
83.4325
 20
-73.7446
 30
0
 10
83.4681
 20
-73.5633
 30
0
 10
83.4678
 20
-73.4051
 30
0
  0
SPLINE
  5
A17
330
A02
100
AcDbEntity
  8
circle68
100
AcDbSpline
210
0
220
0
230
1
 70
9
 71
3
 72
41
 73
37
 74
0
 40
0
 40
0
 40
0
 40
0
 40
0.523599
 40
0.523599
 40
0.523599
 40
1.0472
 40
1.0472
 40
1.0472
 40
1.5708
 40
1.5708
 40
1.5708
 40
2.0944
 40
2.0944
 40
2.0944
 40
2.61799
 40
2.61799
 40
2.61799
 40
3.14159
 40
3.14159
 40
3.14159
 40
3.66519
 40
3.66519
 40
3.66519
 40
4.18879
 40
4.18879
 40
4.18879
 40
4.71239
 40
4.71239
 40
4.71239
 40
5.23599
 40
5.23599
 40
5.23599
 40
5.75959
 40
5.75959
 40
5.75959
 40
6.28319
 40
6.28319
 40
6.28319
 40
6.28319
 10
168.988
 20
-36.6351
 30
0
 10
168.988
 20
-36.4769
 30
0
 10
168.952
 20
-36.2956
 30
0
 10
168.861
 20
-36.1221
 30
0
 10
168.771
 20
-35.9491
 30
0
 10
168.622
 20
-35.7879
 30
0
 10
168.438
 20
-35.6825
 30
0
 10
168.254
 20
-35.5756
 30
0
 10
168.04
 20
-35.5275
 30
0
 10
167.845
 20
-35.5359
 30
0
 10
167.65
 20
-35.5433
 30
0
 10
167.475
 20
-35.6031
 30
0
 10
167.338
 20
-35.6825
 30
0
 10
167.201
 20
-35.7613
 30
0
 10
167.061
 20
-35.8828
 30
0
 10
166.957
 20
-36.0489
 30
0
 10
166.852
 20
-36.2135
 30
0
 10
166.787
 20
-36.4228
 30
0
 10
166.788
 20
-36.6351
 30
0
 10
166.787
 20
-36.8474
 30
0
 10
166.852
 20
-37.0567
 30
0
 10
166.957
 20
-37.2213
 30
0
 10
167.061
 20
-37.3874
 30
0
 10
167.201
 20
-37.5089
 30
0
 10
167.338
 20
-37.5877
 30
0
 10
167.475
 20
-37.6671
 30
0
 10
167.65
 20
-37.7269
 30
0
 10
167.845
 20
-37.7343
 30
0
 10
168.04
 20
-37.7427
 30
0
 10
168.254
 20
-37.6946
 30
0
 10
168.438
 20
-37.5877
 30
0
 10
168.622
 20
-37.4823
 30
0
 10
168.771
 20
-37.3211
 30
0
 10
168.861
 20
-37.1481
 30
0
 10
168.952
 20
-36.9746
 30
0
 10
168.988
 20
-36.7933
 30
0
 10
168.988
 20
-36.6351
 30
0
  0
SPLINE
  5
A18
330
A02
100
AcDbEntity
  8
circle72
100
AcDbSpline
210
0
220
0
230
1
 70
9
 71
3
 72
41
 73
37
 74
0
 40
0
 40
0
 40
0
 40
0
 40
0.523599
 40
0.523599
 40
0.523599
 40
1.0472
 40
1.0472
 40
1.0472
 40
1.5708
 40
1.5708
 40
1.5708
 40
2.0944
 40
2.0944
 40
2.0944
 40
2.61799
 40
2.61799
 40
2.61799
 40
3.14159
 40
3.14159
 40
3.14159
 40
3.66519
 40
3.66519
 40
3.66519
 40
4.18879
 40
4.18879
 40
4.18879
 40
4.71239
 40
4.71239
 40
4.71239
 40
5.23599
 40
5.23599
 40
5.23599
 40
5.75959
 40
5.75959
 40
5.75959
 40
6.28319
 40
6.28319
 40
6.28319
 40
6.28319
 10
74.9178
 20
-8.2351
 30
0
 10
74.9181
 20
-8.07691
 30
0
 10
74.8825
 20
-7.89557
 30
0
 10
74.7909
 20
-7.72215
 30
0
 10
74.7007
 20
-7.54906
 30
0
 10
74.552
 20
-7.38788
 30
0
 10
74.3678
 20
-7.28247
 30
0
 10
74.1844
 20
-7.17561
 30
0
 10
73.9705
 20
-7.12745
 30
0
 10
73.7755
 20
-7.13591
 30
0
 10
73.5795
 20
-7.14331
 30
0
 10
73.4046
 20
-7.2031
 30
0
 10
73.2678
 20
-7.28247
 30
0
 10
73.1306
 20
-7.36129
 30
0
 10
72.9914
 20
-7.48284
 30
0
 10
72.887
 20
-7.64887
 30
0
 10
72.7822
 20
-7.8135
 30
0
 10
72.717
 20
-8.02283
 30
0
 10
72.7178
 20
-8.2351
 30
0
 10
72.717
 20
-8.44737
 30
0
 10
72.7822
 20
-8.6567
 30
0
 10
72.887
 20
-8.82133
 30
0
 10
72.9914
 20
-8.98736
 30
0
 10
73.1306
 20
-9.10891
 30
0
 10
73.2678
 20
-9.18773
 30
0
 10
73.4046
 20
-9.2671
 30
0
 10
73.5795
 20
-9.32689
 30
0
 10
73.7755
 20
-9.33429
 30
0
 10
73.9705
 20
-9.34275
 30
0
 10
74.1844
 20
-9.29459
 30
0
 10
74.3678
 20
-9.18773
 30
0
 10
74.552
 20
-9.08232
 30
0
 10
74.7007
 20
-8.92114
 30
0
 10
74.7909
 20
-8.74805
 30
0
 10
74.8825
 20
-8.57463
 30
0
 10
74.9181
 20
-8.39329
 30
0
 10
74.9178
 20
-8.2351
 30
0
  0
SPLINE
  5
A19
330
A02
100
AcDbEntity
  8
circle76
100
AcDbSpline
210
0
220
0
230
1
 70
9
 71
3
 72
41
 73
37
 74
0
 40
0
 40
0
 40
0
 40
0
 40
0.523599
 40
0.523599
 40
0.523599
 40
1.0472
 40
1.0472
 40
1.0472
 40
1.5708
 40
1.5708
 40
1.5708
 40
2.0944
 40
2.0944
 40
2.0944
 40
2.61799
 40
2.61799
 40
2.61799
 40
3.14159
 40
3.14159
 40
3.14159
 40
3.66519
 40
3.66519
 40
3.66519
 40
4.18879
 40
4.18879
 40
4.18879
 40
4.71239
 40
4.71239
 40
4.71239
 40
5.23599
 40
5.23599
 40
5.23599
 40
5.75959
 40
5.75959
 40
5.75959
 40
6.28319
 40
6.28319
 40
6.28319
 40
6.28319
 10
133.998
 20
-38.7351
 30
0
 10
133.998
 20
-38.5769
 30
0
 10
133.962
 20
-38.3956
 30
0
 10
133.871
 20
-38.2221
 30
0
 10
133.781
 20
-38.0491
 30
0
 10
133.632
 20
-37.8879
 30
0
 10
133.448
 20
-37.7825
 30
0
 10
133.264
 20
-37.6756
 30
0
 10
133.05
 20
-37.6275
 30
0
 10
132.855
 20
-37.6359
 30
0
 10
132.66
 20
-37.6433
 30
0
 10
132.485
 20
-37.7031
 30
0
 10
132.348
 20
-37.7825
 30
0
 10
132.211
 20
-37.8613
 30
0
 10
132.071
 20
-37.9828
 30
0
 10
131.967
 20
-38.1489
 30
0
 10
131.862
 20
-38.3135
 30
0
 10
131.797
 20
-38.5228
 30
0
 10
131.798
 20
-38.7351
 30
0
 10
131.797
 20
-38.9474
 30
0
 10
131.862
 20
-39.1567
 30
0
 10
131.967
 20
-39.3213
 30
0
 10
132.071
 20
-39.4874
 30
0
 10
132.211
 20
-39.6089
 30
0
 10
132.348
 20
-39.6877
 30
0
 10
132.485
 20
-39.7671
 30
0
 10
132.66
 20
-39.8269
 30
0
 10
132.855
 20
-39.8343
 30
0
 10
133.05
 20
-39.8427
 30
0
 10
133.264
 20
-39.7946
 30
0
 10
133.448
 20
-39.6877
 30
0
 10
133.632
 20
-39.5823
 30
0
 10
133.781
 20
-39.4211
 30
0
 10
133.871
 20
-39.2481
 30
0
 10
133.962
 20
-39.0746
 30
0
 10
133.998
 20
-38.8933
 30
0
 10
133.998
 20
-38.7351
 30
0
  0
SPLINE
  5
A1A
330
A02
100
AcDbEntity
  8
circle80
100
AcDbSpline
210
0
220
0
230
1
 70
9
 71
3
 72
41
 73
37
 74
0
 40
0
 40
0
 40
0
 40
0
 40
0.523599
 40
0.523599
 40
0.523599
 40
1.0472
 40
1.0472
 40
1.0472
 40
1.5708
 40
1.5708
 40
1.5708
 40
2.0944
 40
2.0944
 40
2.0944
 40
2.61799
 40
2.61799
 40
2.61799
 40
3.14159
 40
3.14159
 40
3.14159
 40
3.66519
 40
3.66519
 40
3.66519
 40
4.18879
 40
4.18879
 40
4.18879
 40
4.71239
 40
4.71239
 40
4.71239
 40
5.23599
 40
5.23599
 40
5.23599
 40
5.75959
 40
5.75959
 40
5.75959
 40
6.28319
 40
6.28319
 40
6.28319
 40
6.28319
 10
137.868
 20
-113.135
 30
0
 10
137.868
 20
-112.977
 30
0
 10
137.832
 20
-112.796
 30
0
 10
137.741
 20
-112.622
 30
0
 10
137.651
 20
-112.449
 30
0
 10
137.502
 20
-112.288
 30
0
 10
137.318
 20
-112.182
 30
0
 10
137.134
 20
-112.076
 30
0
 10
136.92
 20
-112.027
 30
0
 10
136.725
 20
-112.036
 30
0
 10
136.53
 20
-112.043
 30
0
 10
136.355
 20
-112.103
 30
0
 10
136.218
 20
-112.182
 30
0
 10
136.081
 20
-112.261
 30
0
 10
135.941
 20
-112.383
 30
0
 10
135.837
 20
-112.549
 30
0
 10
135.732
 20
-112.713
 30
0
 10
135.667
 20
-112.923
 30
0
 10
135.668
 20
-113.135
 30
0
 10
135.667
 20
-113.347
 30
0
 10
135.732
 20
-113.557
 30
0
 10
135.837
 20
-113.721
 30
0
 10
135.941
 20
-113.887
 30
0
 10
136.081
 20
-114.009
 30
0
 10
136.218
 20
-114.088
 30
0
 10
136.355
 20
-114.167
 30
0
 10
136.53
 20
-114.227
 30
0
 10
136.725
 20
-114.234
 30
0
 10
136.92
 20
-114.243
 30
0
 10
137.134
 20
-114.195
 30
0
 10
137.318
 20
-114.088
 30
0
 10
137.502
 20
-113.982
 30
0
 10
137.651
 20
-113.821
 30
0
 10
137.741
 20
-113.648
 30
0
 10
137.832
 20
-113.475
 30
0
 10
137.868
 20
-113.293
 30
0
 10
137.868
 20
-113.135
 30
0
  0
SPLINE
  5
A1B
330
A02
100
AcDbEntity
  8
circle84
100
AcDbSpline
210
0
220
0
230
1
 70
9
 71
3
 72
41
 73
37
 74
0
 40
0
 40
0
 40
0
 40
0
 40
0.523599
 40
0.523599
 40
0.523599
 40
1.0472
 40
1.0472
 40
1.0472
 40
1.5708
 40
1.5708
 40
1.5708
 40
2.0944
 40
2.0944
 40
2.0944
 40
2.61799
 40
2.61799
 40
2.61799
 40
3.14159
 40
3.14159
 40
3.14159
 40
3.66519
 40
3.66519
 40
3.66519
 40
4.18879
 40
4.18879
 40
4.18879
 40
4.71239
 40
4.71239
 40
4.71239
 40
5.23599
 40
5.23599
 40
5.23599
 40
5.75959
 40
5.75959
 40
5.75959
 40
6.28319
 40
6.28319
 40
6.28319
 40
6.28319
 10
73.8978
 20
-113.115
 30
0
 10
73.8981
 20
-112.957
 30
0
 10
73.8625
 20
-112.776
 30
0
 10
73.7709
 20
-112.602
 30
0
 10
73.6807
 20
-112.429
 30
0
 10
73.532
 20
-112.268
 30
0
 10
73.3478
 20
-112.162
 30
0
 10
73.1644
 20
-112.056
 30
0
 10
72.9505
 20
-112.007
 30
0
 10
72.7555
 20
-112.016
 30
0
 10
72.5595
 20
-112.023
 30
0
 10
72.3846
 20
-112.083
 30
0
 10
72.2478
 20
-112.162
 30
0
 10
72.1106
 20
-112.241
 30
0
 10
71.9714
 20
-112.363
 30
0
 10
71.867
 20
-112.529
 30
0
 10
71.7622
 20
-112.693
 30
0
 10
71.697
 20
-112.903
 30
0
 10
71.6978
 20
-113.115
 30
0
 10
71.697
 20
-113.327
 30
0
 10
71.7622
 20
-113.537
 30
0
 10
71.867
 20
-113.701
 30
0
 10
71.9714
 20
-113.867
 30
0
 10
72.1106
 20
-113.989
 30
0
 10
72.2478
 20
-114.068
 30
0
 10
72.3846
 20
-114.147
 30
0
 10
72.5595
 20
-114.207
 30
0
 10
72.7555
 20
-114.214
 30
0
 10
72.9505
 20
-114.223
 30
0
 10
73.1644
 20
-114.175
 30
0
 10
73.3478
 20
-114.068
 30
0
 10
73.532
 20
-113.962
 30
0
 10
73.6807
 20
-113.801
 30
0
 10
73.7709
 20
-113.628
 30
0
 10
73.8625
 20
-113.455
 30
0
 10
73.8981
 20
-113.273
 30
0
 10
73.8978
 20
-113.115
 30
0
  0
SPLINE
  5
A1C
330
A02
100
AcDbEntity
  8
circle88
100
AcDbSpline
210
0
220
0
230
1
 70
9
 71
3
 72
41
 73
37
 74
0
 40
0
 40
0
 40
0
 40
0
 40
0.523599
 40
0.523599
 40
0.523599
 40
1.0472
 40
1.0472
 40
1.0472
 40
1.5708
 40
1.5708
 40
1.5708
 40
2.0944
 40
2.0944
 40
2.0944
 40
2.61799
 40
2.61799
 40
2.61799
 40
3.14159
 40
3.14159
 40
3.14159
 40
3.66519
 40
3.66519
 40
3.66519
 40
4.18879
 40
4.18879
 40
4.18879
 40
4.71239
 40
4.71239
 40
4.71239
 40
5.23599
 40
5.23599
 40
5.23599
 40
5.75959
 40
5.75959
 40
5.75959
 40
6.28319
 40
6.28319
 40
6.28319
 40
6.28319
 10
33.2978
 20
-150.875
 30
0
 10
33.2981
 20
-150.717
 30
0
 10
33.2625
 20
-150.536
 30
0
 10
33.1709
 20
-150.362
 30
0
 10
33.0807
 20
-150.189
 30
0
 10
32.932
 20
-150.028
 30
0
 10
32.7478
 20
-149.922
 30
0
 10
32.5644
 20
-149.816
 30
0
 10
32.3505
 20
-149.767
 30
0
 10
32.1555
 20
-149.776
 30
0
 10
31.9595
 20
-149.783
 30
0
 10
31.7846
 20
-149.843
 30
0
 10
31.6478
 20
-149.922
 30
0
 10
31.5106
 20
-150.001
 30
0
 10
31.3714
 20
-150.123
 30
0
 10
31.267
 20
-150.289
 30
0
 10
31.1622
 20
-150.453
 30
0
 10
31.097
 20
-150.663
 30
0
 10
31.0978
 20
-150.875
 30
0
 10
31.097
 20
-151.087
 30
0
 10
31.1622
 20
-151.297
 30
0
 10
31.267
 20
-151.461
 30
0
 10
31.3714
 20
-151.627
 30
0
 10
31.5106
 20
-151.749
 30
0
 10
31.6478
 20
-151.828
 30
0
 10
31.7846
 20
-151.907
 30
0
 10
31.9595
 20
-151.967
 30
0
 10
32.1555
 20
-151.974
 30
0
 10
32.3505
 20
-151.983
 30
0
 10
32.5644
 20
-151.935
 30
0
 10
32.7478
 20
-151.828
 30
0
 10
32.932
 20
-151.722
 30
0
 10
33.0807
 20
-151.561
 30
0
 10
33.1709
 20
-151.388
 30
0
 10
33.2625
 20
-151.215
 30
0
 10
33.2981
 20
-151.033
 30
0
 10
33.2978
 20
-150.875
 30
0
  0
SPLINE
  5
A1D
330
A02
100
AcDbEntity
  8
circle96
100
AcDbSpline
210
0
220
0
230
1
 70
9
 71
3
 72
41
 73
37
 74
0
 40
0
 40
0
 40
0
 40
0
 40
0.523599
 40
0.523599
 40
0.523599
 40
1.0472
 40
1.0472
 40
1.0472
 40
1.5708
 40
1.5708
 40
1.5708
 40
2.0944
 40
2.0944
 40
2.0944
 40
2.61799
 40
2.61799
 40
2.61799
 40
3.14159
 40
3.14159
 40
3.14159
 40
3.66519
 40
3.66519
 40
3.66519
 40
4.18879
 40
4.18879
 40
4.18879
 40
4.71239
 40
4.71239
 40
4.71239
 40
5.23599
 40
5.23599
 40
5.23599
 40
5.75959
 40
5.75959
 40
5.75959
 40
6.28319
 40
6.28319
 40
6.28319
 40
6.28319
 10
407.588
 20
-48.7451
 30
0
 10
407.588
 20
-48.5869
 30
0
 10
407.552
 20
-48.4056
 30
0
 10
407.461
 20
-48.2321
 30
0
 10
407.371
 20
-48.0591
 30
0
 10
407.222
 20
-47.8979
 30
0
 10
407.038
 20
-47.7925
 30
0
 10
406.854
 20
-47.6856
 30
0
 10
406.64
 20
-47.6375
 30
0
 10
406.445
 20
-47.6459
 30
0
 10
406.25
 20
-47.6533
 30
0
 10
406.075
 20
-47.7131
 30
0
 10
405.938
 20
-47.7925
 30
0
 10
405.801
 20
-47.8713
 30
0
 10
405.661
 20
-47.9928
 30
0
 10
405.557
 20
-48.1589
 30
0
 10
405.452
 20
-48.3235
 30
0
 10
405.387
 20
-48.5328
 30
0
 10
405.388
 20
-48.7451
 30
0
 10
405.387
 20
-48.9574
 30
0
 10
405.452
 20
-49.1667
 30
0
 10
405.557
 20
-49.3313
 30
0
 10
405.661
 20
-49.4974
 30
0
 10
405.801
 20
-49.6189
 30
0
 10
405.938
 20
-49.6977
 30
0
 10
406.075
 20
-49.7771
 30
0
 10
406.25
 20
-49.8369
 30
0
 10
406.445
 20
-49.8443
 30
0
 10
406.64
 20
-49.8527
 30
0
 10
406.854
 20
-49.8046
 30
0
 10
407.038
 20
-49.6977
 30
0
 10
407.222
 20
-49.5923
 30
0
 10
407.371
 20
-49.4311
 30
0
 10
407.461
 20
-49.2581
 30
0
 10
407.552
 20
-49.0846
 30
0
 10
407.588
 20
-48.9033
 30
0
 10
407.588
 20
-48.7451
 30
0
  0
SPLINE
  5
A1E
330
A02
100
AcDbEntity
  8
circle100
100
AcDbSpline
210
0
220
0
230
1
 70
9
 71
3
 72
41
 73
37
 74
0
 40
0
 40
0
 40
0
 40
0
 40
0.523599
 40
0.523599
 40
0.523599
 40
1.0472
 40
1.0472
 40
1.0472
 40
1.5708
 40
1.5708
 40
1.5708
 40
2.0944
 40
2.0944
 40
2.0944
 40
2.61799
 40
2.61799
 40
2.61799
 40
3.14159
 40
3.14159
 40
3.14159
 40
3.66519
 40
3.66519
 40
3.66519
 40
4.18879
 40
4.18879
 40
4.18879
 40
4.71239
 40
4.71239
 40
4.71239
 40
5.23599
 40
5.23599
 40
5.23599
 40
5.75959
 40
5.75959
 40
5.75959
 40
6.28319
 40
6.28319
 40
6.28319
 40
6.28319
 10
406.068
 20
-147.445
 30
0
 10
406.068
 20
-147.287
 30
0
 10
406.032
 20
-147.106
 30
0
 10
405.941
 20
-146.932
 30
0
 10
405.851
 20
-146.759
 30
0
 10
405.702
 20
-146.598
 30
0
 10
405.518
 20
-146.492
 30
0
 10
405.334
 20
-146.386
 30
0
 10
405.12
 20
-146.337
 30
0
 10
404.925
 20
-146.346
 30
0
 10
404.73
 20
-146.353
 30
0
 10
404.555
 20
-146.413
 30
0
 10
404.418
 20
-146.492
 30
0
 10
404.281
 20
-146.571
 30
0
 10
404.141
 20
-146.693
 30
0
 10
404.037
 20
-146.859
 30
0
 10
403.932
 20
-147.023
 30
0
 10
403.867
 20
-147.233
 30
0
 10
403.868
 20
-147.445
 30
0
 10
403.867
 20
-147.657
 30
0
 10
403.932
 20
-147.867
 30
0
 10
404.037
 20
-148.031
 30
0
 10
404.141
 20
-148.197
 30
0
 10
404.281
 20
-148.319
 30
0
 10
404.418
 20
-148.398
 30
0
 10
404.555
 20
-148.477
 30
0
 10
404.73
 20
-148.537
 30
0
 10
404.925
 20
-148.544
 30
0
 10
405.12
 20
-148.553
 30
0
 10
405.334
 20
-148.505
 30
0
 10
405.518
 20
-148.398
 30
0
 10
405.702
 20
-148.292
 30
0
 10
405.851
 20
-148.131
 30
0
 10
405.941
 20
-147.958
 30
0
 10
406.032
 20
-147.785
 30
0
 10
406.068
 20
-147.603
 30
0
 10
406.068
 20
-147.445
 30
0
  0
SPLINE
  5
A1F
330
A02
100
AcDbEntity
  8
path3568
100
AcDbSpline
210
0
220
0
230
1
 70
8
 71
1
 72
4
 73
2
 74
0
 40
0
 40
0
 40
112.614
 40
112.614
 10
417.396
 20
-155.711
 30
0
 10
417.396
 20
-43.0964
 30
0
  0
SPLINE
  5
A20
330
A02
100
AcDbEntity
  8
path3572
100
AcDbSpline
210
0
220
0
230
1
 70
8
 71
3
 72
11
 73
7
 74
0
 40
0
 40
0
 40
0
 40
0
 40
0.559242
 40
0.559242
 40
0.559242
 40
1.11848
 40
1.11848
 40
1.11848
 40
1.11848
 10
175.596
 20
-36.8626
 30
0
 10
175.902
 20
-37.4995
 30
0
 10
176.419
 20
-38.1002
 30
0
 10
177.071
 20
-38.505
 30
0
 10
177.721
 20
-38.9148
 30
0
 10
178.487
 20
-39.1177
 30
0
 10
179.194
 20
-39.1143
 30
0
  0
SPLINE
  5
A21
330
A02
100
AcDbEntity
  8
path3574
100
AcDbSpline
210
0
220
0
230
1
 70
8
 71
3
 72
11
 73
7
 74
0
 40
0
 40
0
 40
0
 40
0
 40
0.559254
 40
0.559254
 40
0.559254
 40
1.11851
 40
1.11851
 40
1.11851
 40
1.11851
 10
48.2422
 20
-39.175
 30
0
 10
48.9487
 20
-39.1784
 30
0
 10
49.7152
 20
-38.9756
 30
0
 10
50.3644
 20
-38.5657
 30
0
 10
51.0168
 20
-38.1609
 30
0
 10
51.5343
 20
-37.5602
 30
0
 10
51.84
 20
-36.9233
 30
0
  0
SPLINE
  5
A22
330
A02
100
AcDbEntity
  8
path3576
100
AcDbSpline
210
0
220
0
230
1
 70
8
 71
3
 72
11
 73
7
 74
0
 40
0
 40
0
 40
0
 40
0
 40
0.559195
 40
0.559195
 40
0.559195
 40
1.11839
 40
1.11839
 40
1.11839
 40
1.11839
 10
72.2493
 20
-0.075
 30
0
 10
71.5428
 20
-0.0716233
 30
0
 10
70.7764
 20
-0.274529
 30
0
 10
70.1272
 20
-0.684367
 30
0
 10
69.4748
 20
-1.08912
 30
0
 10
68.9574
 20
-1.68978
 30
0
 10
68.6516
 20
-2.3267
 30
0
  0
SPLINE
  5
A23
330
A02
100
AcDbEntity
  8
path3578
100
AcDbSpline
210
0
220
0
230
1
 70
8
 71
1
 72
4
 73
2
 74
0
 40
0
 40
0
 40
112.3
 40
112.3
 10
0.0958
 20
-43.175
 30
0
 10
0.0958
 20
-155.475
 30
0
  0
SPLINE
  5
A24
330
A02
100
AcDbEntity
  8
path3580
100
AcDbSpline
210
0
220
0
230
1
 70
8
 71
3
 72
17
 73
13
 74
0
 40
0
 40
0
 40
0
 40
0
 40
0.393413
 40
0.393413
 40
0.393413
 40
0.786825
 40
0.786825
 40
0.786825
 40
1.18024
 40
1.18024
 40
1.18024
 40
1.57365
 40
1.57365
 40
1.57365
 40
1.57365
 10
417.396
 20
-43.0964
 30
0
 10
417.396
 20
-42.6249
 30
0
 10
417.31
 20
-42.1154
 30
0
 10
417.114
 20
-41.6217
 30
0
 10
416.919
 20
-41.1283
 30
0
 10
416.613
 20
-40.6543
 30
0
 10
416.22
 20
-40.2639
 30
0
 10
415.829
 20
-39.8722
 30
0
 10
415.354
 20
-39.5672
 30
0
 10
414.86
 20
-39.374
 30
0
 10
414.366
 20
-39.1791
 30
0
 10
413.856
 20
-39.0945
 30
0
 10
413.384
 20
-39.0964
 30
0
  0
SPLINE
  5
A25
330
A02
100
AcDbEntity
  8
path3582
100
AcDbSpline
210
0
220
0
230
1
 70
8
 71
1
 72
4
 73
2
 74
0
 40
0
 40
0
 40
207.348
 40
207.348
 10
386.541
 20
-39.095
 30
0
 10
179.194
 20
-39.1143
 30
0
  0
SPLINE
  5
A26
330
A02
100
AcDbEntity
  8
path3584
100
AcDbSpline
210
0
220
0
230
1
 70
8
 71
3
 72
17
 73
13
 74
0
 40
0
 40
0
 40
0
 40
0
 40
0.392699
 40
0.392699
 40
0.392699
 40
0.785398
 40
0.785398
 40
0.785398
 40
1.1781
 40
1.1781
 40
1.1781
 40
1.5708
 40
1.5708
 40
1.5708
 40
1.5708
 10
4.0958
 20
-39.175
 30
0
 10
3.62496
 20
-39.1744
 30
0
 10
3.11631
 20
-39.2602
 30
0
 10
2.62342
 20
-39.4558
 30
0
 10
2.13084
 20
-39.6498
 30
0
 10
1.65755
 20
-39.9551
 30
0
 10
1.26737
 20
-40.3466
 30
0
 10
0.875898
 20
-40.7367
 30
0
 10
0.570601
 20
-41.21
 30
0
 10
0.376647
 20
-41.7026
 30
0
 10
0.181038
 20
-42.1955
 30
0
 10
0.0952303
 20
-42.7042
 30
0
 10
0.0958
 20
-43.175
 30
0
  0
SPLINE
  5
A27
330
A02
100
AcDbEntity
  8
path3590
100
AcDbSpline
210
0
220
0
230
1
 70
8
 71
1
 72
4
 73
2
 74
0
 40
0
 40
0
 40
26.8429
 40
26.8429
 10
413.384
 20
-39.0964
 30
0
 10
386.541
 20
-39.095
 30
0
  0
SPLINE
  5
A28
330
A02
100
AcDbEntity
  8
path3594
100
AcDbSpline
210
0
220
0
230
1
 70
8
 71
1
 72
4
 73
2
 74
0
 40
0
 40
0
 40
44.1464
 40
44.1464
 10
48.2422
 20
-39.175
 30
0
 10
4.0958
 20
-39.175
 30
0
  0
SPLINE
  5
A29
330
A02
100
AcDbEntity
  8
path3596
100
AcDbSpline
210
0
220
0
230
1
 70
8
 71
1
 72
4
 73
2
 74
0
 40
0
 40
0
 40
38.386
 40
38.386
 10
175.596
 20
-36.8626
 30
0
 10
158.84
 20
-2.3267
 30
0
  0
SPLINE
  5
A2A
330
A02
100
AcDbEntity
  8
path3598
100
AcDbSpline
210
0
220
0
230
1
 70
8
 71
1
 72
4
 73
2
 74
0
 40
0
 40
0
 40
38.465
 40
38.465
 10
68.6516
 20
-2.3267
 30
0
 10
51.84
 20
-36.9233
 30
0
  0
SPLINE
  5
A2B
330
A02
100
AcDbEntity
  8
path3600
100
AcDbSpline
210
0
220
0
230
1
 70
8
 71
1
 72
4
 73
2
 74
0
 40
0
 40
0
 40
82.9929
 40
82.9929
 10
72.2493
 20
-0.075
 30
0
 10
155.242
 20
-0.075
 30
0
  0
SPLINE
  5
A2C
330
A02
100
AcDbEntity
  8
path3602
100
AcDbSpline
210
0
220
0
230
1
 70
8
 71
3
 72
11
 73
7
 74
0
 40
0
 40
0
 40
0
 40
0
 40
0.559254
 40
0.559254
 40
0.559254
 40
1.11851
 40
1.11851
 40
1.11851
 40
1.11851
 10
158.84
 20
-2.3267
 30
0
 10
158.534
 20
-1.68976
 30
0
 10
158.017
 20
-1.08905
 30
0
 10
157.364
 20
-0.684295
 30
0
 10
156.715
 20
-0.274448
 30
0
 10
155.949
 20
-0.0715713
 30
0
 10
155.242
 20
-0.075
 30
0
  0
SPLINE
  5
A2D
330
A02
100
AcDbEntity
  8
path3570
100
AcDbSpline
210
0
220
0
230
1
 70
8
 71
1
 72
4
 73
2
 74
0
 40
0
 40
0
 40
26.6401
 40
26.6401
 10
386.721
 20
-159.705
 30
0
 10
413.362
 20
-159.711
 30
0
  0
LINE
  5
A2E
330
A02
100
AcDbEntity
  8
Line002
100
AcDbLine
 10
3.64362
 20
-159.73
 30
0
 11
386.721
 21
-159.705
 31
0
  0
SPLINE
  5
A2F
330
A02
100
AcDbEntity
  8
Surface
100
AcDbSpline
210
0
220
0
230
1
 70
8
 71
1
 72
4
 73
2
 74
0
 40
0
 40
0
 40
112.3
 40
112.3
 10
0.0958
 20
-43.175
 30
0
 10
0.0958
 20
-155.475
 30
0
  0
SPLINE
  5
A30
330
A02
100
AcDbEntity
  8
Surface
100
AcDbSpline
210
0
220
0
230
1
 70
8
 71
3
 72
17
 73
13
 74
0
 40
0
 40
0
 40
0
 40
0
 40
0.392699
 40
0.392699
 40
0.392699
 40
0.785398
 40
0.785398
 40
0.785398
 40
1.1781
 40
1.1781
 40
1.1781
 40
1.5708
 40
1.5708
 40
1.5708
 40
1.5708
 10
4.0958
 20
-39.175
 30
0
 10
3.62496
 20
-39.1744
 30
0
 10
3.11631
 20
-39.2602
 30
0
 10
2.62342
 20
-39.4558
 30
0
 10
2.13084
 20
-39.6498
 30
0
 10
1.65755
 20
-39.9551
 30
0
 10
1.26737
 20
-40.3466
 30
0
 10
0.875898
 20
-40.7367
 30
0
 10
0.570601
 20
-41.21
 30
0
 10
0.376647
 20
-41.7026
 30
0
 10
0.181038
 20
-42.1955
 30
0
 10
0.0952303
 20
-42.7042
 30
0
 10
0.0958
 20
-43.175
 30
0
  0
SPLINE
  5
A31
330
A02
100
AcDbEntity
  8
Surface
100
AcDbSpline
210
0
220
0
230
1
 70
8
 71
1
 72
4
 73
2
 74
0
 40
0
 40
0
 40
44.1464
 40
44.1464
 10
48.2422
 20
-39.175
 30
0
 10
4.0958
 20
-39.175
 30
0
  0
SPLINE
  5
A32
330
A02
100
AcDbEntity
  8
Surface
100
AcDbSpline
210
0
220
0
230
1
 70
8
 71
3
 72
11
 73
7
 74
0
 40
0
 40
0
 40
0
 40
0
 40
0.559254
 40
0.559254
 40
0.559254
 40
1.11851
 40
1.11851
 40
1.11851
 40
1.11851
 10
48.2422
 20
-39.175
 30
0
 10
48.9487
 20
-39.1784
 30
0
 10
49.7152
 20
-38.9756
 30
0
 10
50.3644
 20
-38.5657
 30
0
 10
51.0168
 20
-38.1609
 30
0
 10
51.5343
 20
-37.5602
 30
0
 10
51.84
 20
-36.9233
 30
0
  0
SPLINE
  5
A33
330
A02
100
AcDbEntity
  8
Surface
100
AcDbSpline
210
0
220
0
230
1
 70
8
 71
1
 72
4
 73
2
 74
0
 40
0
 40
0
 40
38.465
 40
38.465
 10
68.6516
 20
-2.3267
 30
0
 10
51.84
 20
-36.9233
 30
0
  0
SPLINE
  5
A34
330
A02
100
AcDbEntity
  8
Surface
100
AcDbSpline
210
0
220
0
230
1
 70
8
 71
3
 72
11
 73
7
 74
0
 40
0
 40
0
 40
0
 40
0
 40
0.559195
 40
0.559195
 40
0.559195
 40
1.11839
 40
1.11839
 40
1.11839
 40
1.11839
 10
72.2493
 20
-0.075
 30
0
 10
71.5428
 20
-0.0716233
 30
0
 10
70.7764
 20
-0.274529
 30
0
 10
70.1272
 20
-0.684367
 30
0
 10
69.4748
 20
-1.08912
 30
0
 10
68.9574
 20
-1.68978
 30
0
 10
68.6516
 20
-2.3267
 30
0
  0
SPLINE
  5
A35
330
A02
100
AcDbEntity
  8
Surface
100
AcDbSpline
210
0
220
0
230
1
 70
8
 71
1
 72
4
 73
2
 74
0
 40
0
 40
0
 40
82.9929
 40
82.9929
 10
72.2493
 20
-0.075
 30
0
 10
155.242
 20
-0.075
 30
0
  0
SPLINE
  5
A36
330
A02
100
AcDbEntity
  8
Surface
100
AcDbSpline
210
0
220
0
230
1
 70
8
 71
3
 72
11
 73
7
 74
0
 40
0
 40
0
 40
0
 40
0
 40
0.559254
 40
0.559254
 40
0.559254
 40
1.11851
 40
1.11851
 40
1.11851
 40
1.11851
 10
158.84
 20
-2.3267
 30
0
 10
158.534
 20
-1.68976
 30
0
 10
158.017
 20
-1.08905
 30
0
 10
157.364
 20
-0.684295
 30
0
 10
156.715
 20
-0.274448
 30
0
 10
155.949
 20
-0.0715713
 30
0
 10
155.242
 20
-0.075
 30
0
  0
SPLINE
  5
A37
330
A02
100
AcDbEntity
  8
Surface
100
AcDbSpline
210
0
220
0
230
1
 70
8
 71
1
 72
4
 73
2
 74
0
 40
0
 40
0
 40
38.386
 40
38.386
 10
175.596
 20
-36.8626
 30
0
 10
158.84
 20
-2.3267
 30
0
  0
SPLINE
  5
A38
330
A02
100
AcDbEntity
  8
Surface
100
AcDbSpline
210
0
220
0
230
1
 70
8
 71
3
 72
11
 73
7
 74
0
 40
0
 40
0
 40
0
 40
0
 40
0.559242
 40
0.559242
 40
0.559242
 40
1.11848
 40
1.11848
 40
1.11848
 40
1.11848
 10
175.596
 20
-36.8626
 30
0
 10
175.902
 20
-37.4995
 30
0
 10
176.419
 20
-38.1002
 30
0
 10
177.071
 20
-38.505
 30
0
 10
177.721
 20
-38.9148
 30
0
 10
178.487
 20
-39.1177
 30
0
 10
179.194
 20
-39.1143
 30
0
  0
SPLINE
  5
A39
330
A02
100
AcDbEntity
  8
Surface
100
AcDbSpline
210
0
220
0
230
1
 70
8
 71
1
 72
4
 73
2
 74
0
 40
0
 40
0
 40
207.348
 40
207.348
 10
386.541
 20
-39.095
 30
0
 10
179.194
 20
-39.1143
 30
0
  0
SPLINE
  5
A3A
330
A02
100
AcDbEntity
  8
Surface
100
AcDbSpline
210
0
220
0
230
1
 70
8
 71
1
 72
4
 73
2
 74
0
 40
0
 40
0
 40
26.8429
 40
26.8429
 10
413.384
 20
-39.0964
 30
0
 10
386.541
 20
-39.095
 30
0
  0
SPLINE
  5
A3B
330
A02
100
AcDbEntity
  8
Surface
100
AcDbSpline
210
0
220
0
230
1
 70
8
 71
3
 72
17
 73
13
 74
0
 40
0
 40
0
 40
0
 40
0
 40
0.393413
 40
0.393413
 40
0.393413
 40
0.786825
 40
0.786825
 40
0.786825
 40
1.18024
 40
1.18024
 40
1.18024
 40
1.57365
 40
1.57365
 40
1.57365
 40
1.57365
 10
417.396
 20
-43.0964
 30
0
 10
417.396
 20
-42.6249
 30
0
 10
417.31
 20
-42.1154
 30
0
 10
417.114
 20
-41.6217
 30
0
 10
416.919
 20
-41.1283
 30
0
 10
416.613
 20
-40.6543
 30
0
 10
416.22
 20
-40.2639
 30
0
 10
415.829
 20
-39.8722
 30
0
 10
415.354
 20
-39.5672
 30
0
 10
414.86
 20
-39.374
 30
0
 10
414.366
 20
-39.1791
 30
0
 10
413.856
 20
-39.0945
 30
0
 10
413.384
 20
-39.0964
 30
0
  0
SPLINE
  5
A3C
330
A02
100
AcDbEntity
  8
Surface
100
AcDbSpline
210
0
220
0
230
1
 70
8
 71
1
 72
4
 73
2
 74
0
 40
0
 40
0
 40
112.614
 40
112.614
 10
417.396
 20
-155.711
 30
0
 10
417.396
 20
-43.0964
 30
0
  0
SPLINE
  5
A3D
330
A02
100
AcDbEntity
  8
Surface
100
AcDbSpline
210
0
220
0
230
1
 70
8
 71
1
 72
4
 73
2
 74
0
 40
0
 40
0
 40
26.6401
 40
26.6401
 10
386.721
 20
-159.705
 30
0
 10
413.362
 20
-159.711
 30
0
  0
LINE
  5
A3E
330
A02
100
AcDbEntity
  8
Surface
100
AcDbLine
 10
3.64362
 20
-159.73
 30
0
 11
386.721
 21
-159.705
 31
0
  0
ENDSEC
  0
SECTION
  2
OBJECTS
  0
DICTIONARY
  5
F000
330
0
100
AcDbDictionary
  3
ACAD_GROUP
350
F001
  0
DICTIONARY
  5
F001
330
F000
100
AcDbDictionary
  0
ENDSEC
  0
EOF