  0
SECTION
  2
HEADER
  9
$ACADVER
  1
AC1014
  9
$HANDSEED
  5
FFFF
  9
$MEASUREMENT
 70
     1
  0
ENDSEC
  0
SECTION
  2
TABLES
  0
TABLE
  2
VPORT
  5
8
330
0
100
AcDbSymbolTable
 70
     4
  0
VPORT
  5
2E
330
8
100
AcDbSymbolTableRecord
100
AcDbViewportTableRecord
  2
*ACTIVE
 70
     0
 10
0.0
 20
0.0
 11
1.0
 21
1.0
 12
210.0
 22
148.5
 13
0.0
 23
0.0
 14
10.0
 24
10.0
 15
10.0
 25
10.0
 16
0.0
 26
0.0
 36
1.0
 17
0.0
 27
0.0
 37
0.0
 40
341.0
 41
1.24
 42
50.0
 43
0.0
 44
0.0
 50
0.0
 51
0.0
 71
     0
 72
   100
 73
     1
 74
     3
 75
     0
 76
     0
 77
     0
 78
     0
  0
ENDTAB
  0
TABLE
  2
LTYPE
  5
5
330
0
100
AcDbSymbolTable
 70
     1
  0
LTYPE
  5
14
330
5
100
AcDbSymbolTableRecord
100
AcDbLinetypeTableRecord
  2
BYBLOCK
 70
     0
  3

 72
    65
 73
     0
 40
0.0
  0
LTYPE
  5
15
330
5
100
AcDbSymbolTableRecord
100
AcDbLinetypeTableRecord
  2
BYLAYER
 70
     0
  3

 72
    65
 73
     0
 40
0.0
  0
LTYPE
  5
16
330
5
100
AcDbSymbolTableRecord
100
AcDbLinetypeTableRecord
  2
CONTINUOUS
 70
     0
  3
Solid line
 72
    65
 73
     0
 40
0.0
  0
ENDTAB
  0
TABLE
  2
LAYER
  5
2
100
AcDbSymbolTable
 70
1
  0
LAYER
  5
50
100
AcDbSymbolTableRecord
100
AcDbLayerTableRecord
  2
0
 70
0
  6
CONTINUOUS
  0
ENDTAB
  0
TABLE
  2
STYLE
  5
3
330
0
100
AcDbSymbolTable
 70
     1
  0
STYLE
  5
11
330
3
100
AcDbSymbolTableRecord
100
AcDbTextStyleTableRecord
  2
STANDARD
 70
     0
 40
0.0
 41
1.0
 50
0.0
 71
     0
 42
2.5
  3
txt
  4

  0
ENDTAB
  0
TABLE
  2
VIEW
  5
6
330
0
100
AcDbSymbolTable
 70
     0
  0
ENDTAB
  0
TABLE
  2
UCS
  5
7
330
0
100
AcDbSymbolTable
 70
     0
  0
ENDTAB
  0
TABLE
  2
APPID
  5
9
330
0
100
AcDbSymbolTable
 70
     2
  0
APPID
  5
12
330
9
100
AcDbSymbolTableRecord
100
AcDbRegAppTableRecord
  2
ACAD
 70
     0
  0
ENDTAB
  0
TABLE
  2
DIMSTYLE
  5
A
330
0
100
AcDbSymbolTable
 70
     1
  0
DIMSTYLE
105
27
330
A
100
AcDbSymbolTableRecord
100
AcDbDimStyleTableRecord
  2
ISO-25
 70
     0
  3

  4

  5

  6

  7

 40
1.0
 41
2.5
 42
0.625
 43
3.75
 44
1.25
 45
0.0
 46
0.0
 47
0.0
 48
0.0
140
2.5
141
2.5
142
0.0
143
0.03937007874016
144
1.0
145
0.0
146
1.0
147
0.625
 71
     0
 72
     0
 73
     0
 74
     0
 75
     0
 76
     0
 77
     1
 78
     8
170
     0
171
     3
172
     1
173
     0
174
     0
175
     0
176
     0
177
     0
178
     0
270
     2
271
     2
272
     2
273
     2
274
     3
340
11
275
     0
280
     0
281
     0
282
     0
283
     0
284
     8
285
     0
286
     0
287
     3
288
     0
  0
ENDTAB
  0
TABLE
  2
BLOCK_RECORD
  5
1
330
0
100
AcDbSymbolTable
 70
     1
  0
BLOCK_RECORD
  5
1F
330
1
100
AcDbSymbolTableRecord
100
AcDbBlockTableRecord
  2
*MODEL_SPACE
  0
BLOCK_RECORD
  5
1B
330
1
100
AcDbSymbolTableRecord
100
AcDbBlockTableRecord
  2
*PAPER_SPACE
  0
ENDTAB
  0
ENDSEC
  0
SECTION
  2
BLOCKS
  0
BLOCK
  5
20
330
1F
100
AcDbEntity
  8
0
100
AcDbBlockBegin
  2
*MODEL_SPACE
 70
     0
 10
0.0
 20
0.0
 30
0.0
  3
*MODEL_SPACE
  1

  0
ENDBLK
  5
21
330
1F
100
AcDbEntity
  8
0
100
AcDbBlockEnd
  0
BLOCK
  5
1C
330
1B
100
AcDbEntity
 67
     1
  8
0
100
AcDbBlockBegin
  2
*PAPER_SPACE
  1

  0
ENDBLK
  5
1D
330
1B
100
AcDbEntity
 67
     1
  8
0
100
AcDbBlockEnd
  0
ENDSEC
  0
SECTION
  2
ENTITIES
  0
SPLINE
  5
100
100
AcDbEntity
  8
0
 62
7
100
AcDbSpline
 70
8
 71
3
 72
8
 73
4
 74
0
 40
0
 40
0
 40
0
 40
0
 40
1
 40
1
 40
1
 40
1
 10
3.797810
 20
109.296574
 30
0.0
 10
3.352900
 20
109.296574
 30
0.0
 10
2.951799
 20
109.028567
 30
0.0
 10
2.781539
 20
108.617524
 30
0.0
  0
SPLINE
  5
101
100
AcDbEntity
  8
0
 62
7
100
AcDbSpline
 70
8
 71
3
 72
8
 73
4
 74
0
 40
0
 40
0
 40
0
 40
0
 40
1
 40
1
 40
1
 40
1
 10
2.781539
 20
108.617524
 30
0.0
 10
2.611280
 20
108.206481
 30
0.0
 10
2.705392
 20
107.733350
 30
0.0
 10
3.019990
 20
107.418751
 30
0.0
  0
SPLINE
  5
102
100
AcDbEntity
  8
0
 62
7
100
AcDbSpline
 70
8
 71
3
 72
8
 73
4
 74
0
 40
0
 40
0
 40
0
 40
0
 40
1
 40
1
 40
1
 40
1
 10
3.019990
 20
107.418751
 30
0.0
 10
3.334589
 20
107.104153
 30
0.0
 10
3.807719
 20
107.010041
 30
0.0
 10
4.218762
 20
107.180301
 30
0.0
  0
SPLINE
  5
103
100
AcDbEntity
  8
0
 62
7
100
AcDbSpline
 70
8
 71
3
 72
8
 73
4
 74
0
 40
0
 40
0
 40
0
 40
0
 40
1
 40
1
 40
1
 40
1
 10
4.218762
 20
107.180301
 30
0.0
 10
4.629805
 20
107.350560
 30
0.0
 10
4.897812
 20
107.751661
 30
0.0
 10
4.897812
 20
108.196571
 30
0.0
  0
SPLINE
  5
104
100
AcDbEntity
  8
0
 62
7
100
AcDbSpline
 70
8
 71
3
 72
8
 73
4
 74
0
 40
0
 40
0
 40
0
 40
0
 40
1
 40
1
 40
1
 40
1
 10
4.897812
 20
108.196571
 30
0.0
 10
4.897812
 20
108.488310
 30
0.0
 10
4.781919
 20
108.768100
 30
0.0
 10
4.575629
 20
108.974390
 30
0.0
  0
SPLINE
  5
105
100
AcDbEntity
  8
0
 62
7
100
AcDbSpline
 70
8
 71
3
 72
8
 73
4
 74
0
 40
0
 40
0
 40
0
 40
0
 40
1
 40
1
 40
1
 40
1
 10
4.575629
 20
108.974390
 30
0.0
 10
4.369338
 20
109.180681
 30
0.0
 10
4.089548
 20
109.296574
 30
0.0
 10
3.797810
 20
109.296574
 30
0.0
  0
SPLINE
  5
106
100
AcDbEntity
  8
0
 62
7
100
AcDbSpline
 70
8
 71
3
 72
8
 73
4
 74
0
 40
0
 40
0
 40
0
 40
0
 40
1
 40
1
 40
1
 40
1
 10
336.038641
 20
60.896452
 30
0.0
 10
335.593732
 20
60.896452
 30
0.0
 10
335.192631
 20
60.628445
 30
0.0
 10
335.022371
 20
60.217403
 30
0.0
  0
SPLINE
  5
107
100
AcDbEntity
  8
0
 62
7
100
AcDbSpline
 70
8
 71
3
 72
8
 73
4
 74
0
 40
0
 40
0
 40
0
 40
0
 40
1
 40
1
 40
1
 40
1
 10
335.022371
 20
60.217403
 30
0.0
 10
334.852112
 20
59.806360
 30
0.0
 10
334.946223
 20
59.333229
 30
0.0
 10
335.260822
 20
59.018630
 30
0.0
  0
SPLINE
  5
108
100
AcDbEntity
  8
0
 62
7
100
AcDbSpline
 70
8
 71
3
 72
8
 73
4
 74
0
 40
0
 40
0
 40
0
 40
0
 40
1
 40
1
 40
1
 40
1
 10
335.260822
 20
59.018630
 30
0.0
 10
335.575420
 20
58.704032
 30
0.0
 10
336.048551
 20
58.609920
 30
0.0
 10
336.459594
 20
58.780180
 30
0.0
  0
SPLINE
  5
109
100
AcDbEntity
  8
0
 62
7
100
AcDbSpline
 70
8
 71
3
 72
8
 73
4
 74
0
 40
0
 40
0
 40
0
 40
0
 40
1
 40
1
 40
1
 40
1
 10
336.459594
 20
58.780180
 30
0.0
 10
336.870637
 20
58.950439
 30
0.0
 10
337.138644
 20
59.351540
 30
0.0
 10
337.138644
 20
59.796450
 30
0.0
  0
SPLINE
  5
10a
100
AcDbEntity
  8
0
 62
7
100
AcDbSpline
 70
8
 71
3
 72
8
 73
4
 74
0
 40
0
 40
0
 40
0
 40
0
 40
1
 40
1
 40
1
 40
1
 10
337.138644
 20
59.796450
 30
0.0
 10
337.138644
 20
60.088189
 30
0.0
 10
337.022751
 20
60.367979
 30
0.0
 10
336.816461
 20
60.574269
 30
0.0
  0
SPLINE
  5
10b
100
AcDbEntity
  8
0
 62
7
100
AcDbSpline
 70
8
 71
3
 72
8
 73
4
 74
0
 40
0
 40
0
 40
0
 40
0
 40
1
 40
1
 40
1
 40
1
 10
336.816461
 20
60.574269
 30
0.0
 10
336.610170
 20
60.780560
 30
0.0
 10
336.330380
 20
60.896452
 30
0.0
 10
336.038641
 20
60.896452
 30
0.0
  0
LWPOLYLINE
  5
10c
100
AcDbEntity
  8
0
 62
7
100
AcDbPolyline
 90
1
 70
1
 10
3.797810
 20
109.296574
 30
0.0
  0
SPLINE
  5
10d
100
AcDbEntity
  8
0
 62
7
100
AcDbSpline
 70
8
 71
3
 72
8
 73
4
 74
0
 40
0
 40
0
 40
0
 40
0
 40
1
 40
1
 40
1
 40
1
 10
239.958401
 20
42.106405
 30
0.0
 10
239.513491
 20
42.106405
 30
0.0
 10
239.112390
 20
41.838398
 30
0.0
 10
238.942131
 20
41.427355
 30
0.0
  0
SPLINE
  5
10e
100
AcDbEntity
  8
0
 62
7
100
AcDbSpline
 70
8
 71
3
 72
8
 73
4
 74
0
 40
0
 40
0
 40
0
 40
0
 40
1
 40
1
 40
1
 40
1
 10
238.942131
 20
41.427355
 30
0.0
 10
238.771871
 20
41.016313
 30
0.0
 10
238.865983
 20
40.543182
 30
0.0
 10
239.180581
 20
40.228583
 30
0.0
  0
SPLINE
  5
10f
100
AcDbEntity
  8
0
 62
7
100
AcDbSpline
 70
8
 71
3
 72
8
 73
4
 74
0
 40
0
 40
0
 40
0
 40
0
 40
1
 40
1
 40
1
 40
1
 10
239.180581
 20
40.228583
 30
0.0
 10
239.495180
 20
39.913985
 30
0.0
 10
239.968311
 20
39.819873
 30
0.0
 10
240.379354
 20
39.990133
 30
0.0
  0
SPLINE
  5
110
100
AcDbEntity
  8
0
 62
7
100
AcDbSpline
 70
8
 71
3
 72
8
 73
4
 74
0
 40
0
 40
0
 40
0
 40
0
 40
1
 40
1
 40
1
 40
1
 10
240.379354
 20
39.990133
 30
0.0
 10
240.790396
 20
40.160392
 30
0.0
 10
241.058403
 20
40.561493
 30
0.0
 10
241.058403
 20
41.006403
 30
0.0
  0
SPLINE
  5
111
100
AcDbEntity
  8
0
 62
7
100
AcDbSpline
 70
8
 71
3
 72
8
 73
4
 74
0
 40
0
 40
0
 40
0
 40
0
 40
1
 40
1
 40
1
 40
1
 10
241.058403
 20
41.006403
 30
0.0
 10
241.058403
 20
41.298142
 30
0.0
 10
240.942511
 20
41.577932
 30
0.0
 10
240.736220
 20
41.784222
 30
0.0
  0
SPLINE
  5
112
100
AcDbEntity
  8
0
 62
7
100
AcDbSpline
 70
8
 71
3
 72
8
 73
4
 74
0
 40
0
 40
0
 40
0
 40
0
 40
1
 40
1
 40
1
 40
1
 10
240.736220
 20
41.784222
 30
0.0
 10
240.529930
 20
41.990513
 30
0.0
 10
240.250140
 20
42.106405
 30
0.0
 10
239.958401
 20
42.106405
 30
0.0
  0
LWPOLYLINE
  5
113
100
AcDbEntity
  8
0
 62
7
100
AcDbPolyline
 90
1
 70
1
 10
336.038641
 20
60.896452
 30
0.0
  0
SPLINE
  5
114
100
AcDbEntity
  8
0
 62
7
100
AcDbSpline
 70
8
 71
3
 72
8
 73
4
 74
0
 40
0
 40
0
 40
0
 40
0
 40
1
 40
1
 40
1
 40
1
 10
278.768498
 20
79.366499
 30
0.0
 10
278.323588
 20
79.366499
 30
0.0
 10
277.922487
 20
79.098492
 30
0.0
 10
277.752228
 20
78.687449
 30
0.0
  0
SPLINE
  5
115
100
AcDbEntity
  8
0
 62
7
100
AcDbSpline
 70
8
 71
3
 72
8
 73
4
 74
0
 40
0
 40
0
 40
0
 40
0
 40
1
 40
1
 40
1
 40
1
 10
277.752228
 20
78.687449
 30
0.0
 10
277.581968
 20
78.276406
 30
0.0
 10
277.676080
 20
77.803275
 30
0.0
 10
277.990678
 20
77.488677
 30
0.0
  0
SPLINE
  5
116
100
AcDbEntity
  8
0
 62
7
100
AcDbSpline
 70
8
 71
3
 72
8
 73
4
 74
0
 40
0
 40
0
 40
0
 40
0
 40
1
 40
1
 40
1
 40
1
 10
277.990678
 20
77.488677
 30
0.0
 10
278.305277
 20
77.174078
 30
0.0
 10
278.778408
 20
77.079966
 30
0.0
 10
279.189451
 20
77.250226
 30
0.0
  0
SPLINE
  5
117
100
AcDbEntity
  8
0
 62
7
100
AcDbSpline
 70
8
 71
3
 72
8
 73
4
 74
0
 40
0
 40
0
 40
0
 40
0
 40
1
 40
1
 40
1
 40
1
 10
279.189451
 20
77.250226
 30
0.0
 10
279.600494
 20
77.420485
 30
0.0
 10
279.868501
 20
77.821586
 30
0.0
 10
279.868501
 20
78.266496
 30
0.0
  0
SPLINE
  5
118
100
AcDbEntity
  8
0
 62
7
100
AcDbSpline
 70
8
 71
3
 72
8
 73
4
 74
0
 40
0
 40
0
 40
0
 40
0
 40
1
 40
1
 40
1
 40
1
 10
279.868501
 20
78.266496
 30
0.0
 10
279.868501
 20
78.558235
 30
0.0
 10
279.752608
 20
78.838025
 30
0.0
 10
279.546317
 20
79.044315
 30
0.0
  0
SPLINE
  5
119
100
AcDbEntity
  8
0
 62
7
100
AcDbSpline
 70
8
 71
3
 72
8
 73
4
 74
0
 40
0
 40
0
 40
0
 40
0
 40
1
 40
1
 40
1
 40
1
 10
279.546317
 20
79.044315
 30
0.0
 10
279.340027
 20
79.250606
 30
0.0
 10
279.060237
 20
79.366499
 30
0.0
 10
278.768498
 20
79.366499
 30
0.0
  0
LWPOLYLINE
  5
11a
100
AcDbEntity
  8
0
 62
7
100
AcDbPolyline
 90
1
 70
1
 10
239.958401
 20
42.106405
 30
0.0
  0
SPLINE
  5
11b
100
AcDbEntity
  8
0
 62
7
100
AcDbSpline
 70
8
 71
3
 72
8
 73
4
 74
0
 40
0
 40
0
 40
0
 40
0
 40
1
 40
1
 40
1
 40
1
 10
144.578162
 20
87.626519
 30
0.0
 10
144.133252
 20
87.626519
 30
0.0
 10
143.732151
 20
87.358512
 30
0.0
 10
143.561892
 20
86.947469
 30
0.0
  0
SPLINE
  5
11c
100
AcDbEntity
  8
0
 62
7
100
AcDbSpline
 70
8
 71
3
 72
8
 73
4
 74
0
 40
0
 40
0
 40
0
 40
0
 40
1
 40
1
 40
1
 40
1
 10
143.561892
 20
86.947469
 30
0.0
 10
143.391632
 20
86.536427
 30
0.0
 10
143.485744
 20
86.063296
 30
0.0
 10
143.800343
 20
85.748697
 30
0.0
  0
SPLINE
  5
11d
100
AcDbEntity
  8
0
 62
7
100
AcDbSpline
 70
8
 71
3
 72
8
 73
4
 74
0
 40
0
 40
0
 40
0
 40
0
 40
1
 40
1
 40
1
 40
1
 10
143.800343
 20
85.748697
 30
0.0
 10
144.114941
 20
85.434099
 30
0.0
 10
144.588072
 20
85.339987
 30
0.0
 10
144.999115
 20
85.510247
 30
0.0
  0
SPLINE
  5
11e
100
AcDbEntity
  8
0
 62
7
100
AcDbSpline
 70
8
 71
3
 72
8
 73
4
 74
0
 40
0
 40
0
 40
0
 40
0
 40
1
 40
1
 40
1
 40
1
 10
144.999115
 20
85.510247
 30
0.0
 10
145.410158
 20
85.680506
 30
0.0
 10
145.678165
 20
86.081607
 30
0.0
 10
145.678165
 20
86.526517
 30
0.0
  0
SPLINE
  5
11f
100
AcDbEntity
  8
0
 62
7
100
AcDbSpline
 70
8
 71
3
 72
8
 73
4
 74
0
 40
0
 40
0
 40
0
 40
0
 40
1
 40
1
 40
1
 40
1
 10
145.678165
 20
86.526517
 30
0.0
 10
145.678165
 20
86.818255
 30
0.0
 10
145.562272
 20
87.098045
 30
0.0
 10
145.355981
 20
87.304336
 30
0.0
  0
SPLINE
  5
120
100
AcDbEntity
  8
0
 62
7
100
AcDbSpline
 70
8
 71
3
 72
8
 73
4
 74
0
 40
0
 40
0
 40
0
 40
0
 40
1
 40
1
 40
1
 40
1
 10
145.355981
 20
87.304336
 30
0.0
 10
145.149691
 20
87.510627
 30
0.0
 10
144.869901
 20
87.626519
 30
0.0
 10
144.578162
 20
87.626519
 30
0.0
  0
LWPOLYLINE
  5
121
100
AcDbEntity
  8
0
 62
7
100
AcDbPolyline
 90
1
 70
1
 10
278.768498
 20
79.366499
 30
0.0
  0
SPLINE
  5
122
100
AcDbEntity
  8
0
 62
7
100
AcDbSpline
 70
8
 71
3
 72
8
 73
4
 74
0
 40
0
 40
0
 40
0
 40
0
 40
1
 40
1
 40
1
 40
1
 10
202.978308
 20
61.146453
 30
0.0
 10
202.533399
 20
61.146453
 30
0.0
 10
202.132298
 20
60.878446
 30
0.0
 10
201.962038
 20
60.467403
 30
0.0
  0
SPLINE
  5
123
100
AcDbEntity
  8
0
 62
7
100
AcDbSpline
 70
8
 71
3
 72
8
 73
4
 74
0
 40
0
 40
0
 40
0
 40
0
 40
1
 40
1
 40
1
 40
1
 10
201.962038
 20
60.467403
 30
0.0
 10
201.791779
 20
60.056360
 30
0.0
 10
201.885890
 20
59.583229
 30
0.0
 10
202.200489
 20
59.268631
 30
0.0
  0
SPLINE
  5
124
100
AcDbEntity
  8
0
 62
7
100
AcDbSpline
 70
8
 71
3
 72
8
 73
4
 74
0
 40
0
 40
0
 40
0
 40
0
 40
1
 40
1
 40
1
 40
1
 10
202.200489
 20
59.268631
 30
0.0
 10
202.515087
 20
58.954032
 30
0.0
 10
202.988218
 20
58.859921
 30
0.0
 10
203.399261
 20
59.030180
 30
0.0
  0
SPLINE
  5
125
100
AcDbEntity
  8
0
 62
7
100
AcDbSpline
 70
8
 71
3
 72
8
 73
4
 74
0
 40
0
 40
0
 40
0
 40
0
 40
1
 40
1
 40
1
 40
1
 10
203.399261
 20
59.030180
 30
0.0
 10
203.810304
 20
59.200440
 30
0.0
 10
204.078311
 20
59.601541
 30
0.0
 10
204.078311
 20
60.046450
 30
0.0
  0
SPLINE
  5
126
100
AcDbEntity
  8
0
 62
7
100
AcDbSpline
 70
8
 71
3
 72
8
 73
4
 74
0
 40
0
 40
0
 40
0
 40
0
 40
1
 40
1
 40
1
 40
1
 10
204.078311
 20
60.046450
 30
0.0
 10
204.078311
 20
60.338189
 30
0.0
 10
203.962418
 20
60.617979
 30
0.0
 10
203.756128
 20
60.824270
 30
0.0
  0
SPLINE
  5
127
100
AcDbEntity
  8
0
 62
7
100
AcDbSpline
 70
8
 71
3
 72
8
 73
4
 74
0
 40
0
 40
0
 40
0
 40
0
 40
1
 40
1
 40
1
 40
1
 10
203.756128
 20
60.824270
 30
0.0
 10
203.549837
 20
61.030560
 30
0.0
 10
203.270047
 20
61.146453
 30
0.0
 10
202.978308
 20
61.146453
 30
0.0
  0
LWPOLYLINE
  5
128
100
AcDbEntity
  8
0
 62
7
100
AcDbPolyline
 90
1
 70
1
 10
144.578162
 20
87.626519
 30
0.0
  0
SPLINE
  5
129
100
AcDbEntity
  8
0
 62
7
100
AcDbSpline
 70
8
 71
3
 72
8
 73
4
 74
0
 40
0
 40
0
 40
0
 40
0
 40
1
 40
1
 40
1
 40
1
 10
185.068263
 20
4.696312
 30
0.0
 10
184.623354
 20
4.696312
 30
0.0
 10
184.222253
 20
4.428305
 30
0.0
 10
184.051993
 20
4.017262
 30
0.0
  0
SPLINE
  5
12a
100
AcDbEntity
  8
0
 62
7
100
AcDbSpline
 70
8
 71
3
 72
8
 73
4
 74
0
 40
0
 40
0
 40
0
 40
0
 40
1
 40
1
 40
1
 40
1
 10
184.051993
 20
4.017262
 30
0.0
 10
183.881734
 20
3.606219
 30
0.0
 10
183.975845
 20
3.133088
 30
0.0
 10
184.290444
 20
2.818490
 30
0.0
  0
SPLINE
  5
12b
100
AcDbEntity
  8
0
 62
7
100
AcDbSpline
 70
8
 71
3
 72
8
 73
4
 74
0
 40
0
 40
0
 40
0
 40
0
 40
1
 40
1
 40
1
 40
1
 10
184.290444
 20
2.818490
 30
0.0
 10
184.605042
 20
2.503891
 30
0.0
 10
185.078173
 20
2.409779
 30
0.0
 10
185.489216
 20
2.580039
 30
0.0
  0
SPLINE
  5
12c
100
AcDbEntity
  8
0
 62
7
100
AcDbSpline
 70
8
 71
3
 72
8
 73
4
 74
0
 40
0
 40
0
 40
0
 40
0
 40
1
 40
1
 40
1
 40
1
 10
185.489216
 20
2.580039
 30
0.0
 10
185.900259
 20
2.750298
 30
0.0
 10
186.168266
 20
3.151399
 30
0.0
 10
186.168266
 20
3.596309
 30
0.0
  0
SPLINE
  5
12d
100
AcDbEntity
  8
0
 62
7
100
AcDbSpline
 70
8
 71
3
 72
8
 73
4
 74
0
 40
0
 40
0
 40
0
 40
0
 40
1
 40
1
 40
1
 40
1
 10
186.168266
 20
3.596309
 30
0.0
 10
186.168266
 20
3.888048
 30
0.0
 10
186.052373
 20
4.167838
 30
0.0
 10
185.846083
 20
4.374128
 30
0.0
  0
SPLINE
  5
12e
100
AcDbEntity
  8
0
 62
7
100
AcDbSpline
 70
8
 71
3
 72
8
 73
4
 74
0
 40
0
 40
0
 40
0
 40
0
 40
1
 40
1
 40
1
 40
1
 10
185.846083
 20
4.374128
 30
0.0
 10
185.639792
 20
4.580419
 30
0.0
 10
185.360002
 20
4.696312
 30
0.0
 10
185.068263
 20
4.696312
 30
0.0
  0
LWPOLYLINE
  5
12f
100
AcDbEntity
  8
0
 62
7
100
AcDbPolyline
 90
1
 70
1
 10
202.978308
 20
61.146453
 30
0.0
  0
SPLINE
  5
130
100
AcDbEntity
  8
0
 62
7
100
AcDbSpline
 70
8
 71
3
 72
8
 73
4
 74
0
 40
0
 40
0
 40
0
 40
0
 40
1
 40
1
 40
1
 40
1
 10
240.848403
 20
22.976358
 30
0.0
 10
240.403493
 20
22.976358
 30
0.0
 10
240.002392
 20
22.708350
 30
0.0
 10
239.832133
 20
22.297308
 30
0.0
  0
SPLINE
  5
131
100
AcDbEntity
  8
0
 62
7
100
AcDbSpline
 70
8
 71
3
 72
8
 73
4
 74
0
 40
0
 40
0
 40
0
 40
0
 40
1
 40
1
 40
1
 40
1
 10
239.832133
 20
22.297308
 30
0.0
 10
239.661873
 20
21.886265
 30
0.0
 10
239.755985
 20
21.413134
 30
0.0
 10
240.070584
 20
21.098535
 30
0.0
  0
SPLINE
  5
132
100
AcDbEntity
  8
0
 62
7
100
AcDbSpline
 70
8
 71
3
 72
8
 73
4
 74
0
 40
0
 40
0
 40
0
 40
0
 40
1
 40
1
 40
1
 40
1
 10
240.070584
 20
21.098535
 30
0.0
 10
240.385182
 20
20.783937
 30
0.0
 10
240.858313
 20
20.689825
 30
0.0
 10
241.269356
 20
20.860085
 30
0.0
  0
SPLINE
  5
133
100
AcDbEntity
  8
0
 62
7
100
AcDbSpline
 70
8
 71
3
 72
8
 73
4
 74
0
 40
0
 40
0
 40
0
 40
0
 40
1
 40
1
 40
1
 40
1
 10
241.269356
 20
20.860085
 30
0.0
 10
241.680399
 20
21.030344
 30
0.0
 10
241.948406
 20
21.431445
 30
0.0
 10
241.948406
 20
21.876355
 30
0.0
  0
SPLINE
  5
134
100
AcDbEntity
  8
0
 62
7
100
AcDbSpline
 70
8
 71
3
 72
8
 73
4
 74
0
 40
0
 40
0
 40
0
 40
0
 40
1
 40
1
 40
1
 40
1
 10
241.948406
 20
21.876355
 30
0.0
 10
241.948406
 20
22.168094
 30
0.0
 10
241.832513
 20
22.447884
 30
0.0
 10
241.626222
 20
22.654174
 30
0.0
  0
SPLINE
  5
135
100
AcDbEntity
  8
0
 62
7
100
AcDbSpline
 70
8
 71
3
 72
8
 73
4
 74
0
 40
0
 40
0
 40
0
 40
0
 40
1
 40
1
 40
1
 40
1
 10
241.626222
 20
22.654174
 30
0.0
 10
241.419932
 20
22.860465
 30
0.0
 10
241.140142
 20
22.976358
 30
0.0
 10
240.848403
 20
22.976358
 30
0.0
  0
LWPOLYLINE
  5
136
100
AcDbEntity
  8
0
 62
7
100
AcDbPolyline
 90
1
 70
1
 10
185.068263
 20
4.696312
 30
0.0
  0
SPLINE
  5
137
100
AcDbEntity
  8
0
 62
7
100
AcDbSpline
 70
8
 71
3
 72
8
 73
4
 74
0
 40
0
 40
0
 40
0
 40
0
 40
1
 40
1
 40
1
 40
1
 10
299.468550
 20
117.446594
 30
0.0
 10
299.023640
 20
117.446594
 30
0.0
 10
298.622539
 20
117.178587
 30
0.0
 10
298.452280
 20
116.767544
 30
0.0
  0
SPLINE
  5
138
100
AcDbEntity
  8
0
 62
7
100
AcDbSpline
 70
8
 71
3
 72
8
 73
4
 74
0
 40
0
 40
0
 40
0
 40
0
 40
1
 40
1
 40
1
 40
1
 10
298.452280
 20
116.767544
 30
0.0
 10
298.282020
 20
116.356501
 30
0.0
 10
298.376132
 20
115.883370
 30
0.0
 10
298.690730
 20
115.568772
 30
0.0
  0
SPLINE
  5
139
100
AcDbEntity
  8
0
 62
7
100
AcDbSpline
 70
8
 71
3
 72
8
 73
4
 74
0
 40
0
 40
0
 40
0
 40
0
 40
1
 40
1
 40
1
 40
1
 10
298.690730
 20
115.568772
 30
0.0
 10
299.005329
 20
115.254173
 30
0.0
 10
299.478460
 20
115.160062
 30
0.0
 10
299.889502
 20
115.330321
 30
0.0
  0
SPLINE
  5
13a
100
AcDbEntity
  8
0
 62
7
100
AcDbSpline
 70
8
 71
3
 72
8
 73
4
 74
0
 40
0
 40
0
 40
0
 40
0
 40
1
 40
1
 40
1
 40
1
 10
299.889502
 20
115.330321
 30
0.0
 10
300.300545
 20
115.500581
 30
0.0
 10
300.568552
 20
115.901682
 30
0.0
 10
300.568552
 20
116.346591
 30
0.0
  0
SPLINE
  5
13b
100
AcDbEntity
  8
0
 62
7
100
AcDbSpline
 70
8
 71
3
 72
8
 73
4
 74
0
 40
0
 40
0
 40
0
 40
0
 40
1
 40
1
 40
1
 40
1
 10
300.568552
 20
116.346591
 30
0.0
 10
300.568552
 20
116.638330
 30
0.0
 10
300.452660
 20
116.918120
 30
0.0
 10
300.246369
 20
117.124411
 30
0.0
  0
SPLINE
  5
13c
100
AcDbEntity
  8
0
 62
7
100
AcDbSpline
 70
8
 71
3
 72
8
 73
4
 74
0
 40
0
 40
0
 40
0
 40
0
 40
1
 40
1
 40
1
 40
1
 10
300.246369
 20
117.124411
 30
0.0
 10
300.040079
 20
117.330701
 30
0.0
 10
299.760289
 20
117.446594
 30
0.0
 10
299.468550
 20
117.446594
 30
0.0
  0
LWPOLYLINE
  5
13d
100
AcDbEntity
  8
0
 62
7
100
AcDbPolyline
 90
1
 70
1
 10
240.848403
 20
22.976358
 30
0.0
  0
SPLINE
  5
13e
100
AcDbEntity
  8
0
 62
7
100
AcDbSpline
 70
8
 71
3
 72
8
 73
4
 74
0
 40
0
 40
0
 40
0
 40
0
 40
1
 40
1
 40
1
 40
1
 10
299.318549
 20
5.216313
 30
0.0
 10
298.873640
 20
5.216313
 30
0.0
 10
298.472539
 20
4.948306
 30
0.0
 10
298.302279
 20
4.537263
 30
0.0
  0
SPLINE
  5
13f
100
AcDbEntity
  8
0
 62
7
100
AcDbSpline
 70
8
 71
3
 72
8
 73
4
 74
0
 40
0
 40
0
 40
0
 40
0
 40
1
 40
1
 40
1
 40
1
 10
298.302279
 20
4.537263
 30
0.0
 10
298.132020
 20
4.126220
 30
0.0
 10
298.226131
 20
3.653089
 30
0.0
 10
298.540730
 20
3.338491
 30
0.0
  0
SPLINE
  5
140
100
AcDbEntity
  8
0
 62
7
100
AcDbSpline
 70
8
 71
3
 72
8
 73
4
 74
0
 40
0
 40
0
 40
0
 40
0
 40
1
 40
1
 40
1
 40
1
 10
298.540730
 20
3.338491
 30
0.0
 10
298.855328
 20
3.023892
 30
0.0
 10
299.328459
 20
2.929781
 30
0.0
 10
299.739502
 20
3.100040
 30
0.0
  0
SPLINE
  5
141
100
AcDbEntity
  8
0
 62
7
100
AcDbSpline
 70
8
 71
3
 72
8
 73
4
 74
0
 40
0
 40
0
 40
0
 40
0
 40
1
 40
1
 40
1
 40
1
 10
299.739502
 20
3.100040
 30
0.0
 10
300.150545
 20
3.270300
 30
0.0
 10
300.418552
 20
3.671401
 30
0.0
 10
300.418552
 20
4.116310
 30
0.0
  0
SPLINE
  5
142
100
AcDbEntity
  8
0
 62
7
100
AcDbSpline
 70
8
 71
3
 72
8
 73
4
 74
0
 40
0
 40
0
 40
0
 40
0
 40
1
 40
1
 40
1
 40
1
 10
300.418552
 20
4.116310
 30
0.0
 10
300.418552
 20
4.408049
 30
0.0
 10
300.302659
 20
4.687839
 30
0.0
 10
300.096369
 20
4.894130
 30
0.0
  0
SPLINE
  5
143
100
AcDbEntity
  8
0
 62
7
100
AcDbSpline
 70
8
 71
3
 72
8
 73
4
 74
0
 40
0
 40
0
 40
0
 40
0
 40
1
 40
1
 40
1
 40
1
 10
300.096369
 20
4.894130
 30
0.0
 10
299.890078
 20
5.100420
 30
0.0
 10
299.610288
 20
5.216313
 30
0.0
 10
299.318549
 20
5.216313
 30
0.0
  0
LWPOLYLINE
  5
144
100
AcDbEntity
  8
0
 62
7
100
AcDbPolyline
 90
1
 70
1
 10
299.468550
 20
117.446594
 30
0.0
  0
SPLINE
  5
145
100
AcDbEntity
  8
0
 62
7
100
AcDbSpline
 70
8
 71
3
 72
8
 73
4
 74
0
 40
0
 40
0
 40
0
 40
0
 40
1
 40
1
 40
1
 40
1
 10
356.498692
 20
117.386594
 30
0.0
 10
356.053783
 20
117.386594
 30
0.0
 10
355.652682
 20
117.118587
 30
0.0
 10
355.482422
 20
116.707544
 30
0.0
  0
SPLINE
  5
146
100
AcDbEntity
  8
0
 62
7
100
AcDbSpline
 70
8
 71
3
 72
8
 73
4
 74
0
 40
0
 40
0
 40
0
 40
0
 40
1
 40
1
 40
1
 40
1
 10
355.482422
 20
116.707544
 30
0.0
 10
355.312163
 20
116.296501
 30
0.0
 10
355.406274
 20
115.823370
 30
0.0
 10
355.720873
 20
115.508772
 30
0.0
  0
SPLINE
  5
147
100
AcDbEntity
  8
0
 62
7
100
AcDbSpline
 70
8
 71
3
 72
8
 73
4
 74
0
 40
0
 40
0
 40
0
 40
0
 40
1
 40
1
 40
1
 40
1
 10
355.720873
 20
115.508772
 30
0.0
 10
356.035472
 20
115.194173
 30
0.0
 10
356.508602
 20
115.100062
 30
0.0
 10
356.919645
 20
115.270321
 30
0.0
  0
SPLINE
  5
148
100
AcDbEntity
  8
0
 62
7
100
AcDbSpline
 70
8
 71
3
 72
8
 73
4
 74
0
 40
0
 40
0
 40
0
 40
0
 40
1
 40
1
 40
1
 40
1
 10
356.919645
 20
115.270321
 30
0.0
 10
357.330688
 20
115.440581
 30
0.0
 10
357.598695
 20
115.841682
 30
0.0
 10
357.598695
 20
116.286591
 30
0.0
  0
SPLINE
  5
149
100
AcDbEntity
  8
0
 62
7
100
AcDbSpline
 70
8
 71
3
 72
8
 73
4
 74
0
 40
0
 40
0
 40
0
 40
0
 40
1
 40
1
 40
1
 40
1
 10
357.598695
 20
116.286591
 30
0.0
 10
357.598695
 20
116.578330
 30
0.0
 10
357.482802
 20
116.858120
 30
0.0
 10
357.276512
 20
117.064411
 30
0.0
  0
SPLINE
  5
14a
100
AcDbEntity
  8
0
 62
7
100
AcDbSpline
 70
8
 71
3
 72
8
 73
4
 74
0
 40
0
 40
0
 40
0
 40
0
 40
1
 40
1
 40
1
 40
1
 10
357.276512
 20
117.064411
 30
0.0
 10
357.070221
 20
117.270701
 30
0.0
 10
356.790431
 20
117.386594
 30
0.0
 10
356.498692
 20
117.386594
 30
0.0
  0
LWPOLYLINE
  5
14b
100
AcDbEntity
  8
0
 62
7
100
AcDbPolyline
 90
1
 70
1
 10
299.318549
 20
5.216313
 30
0.0
  0
SPLINE
  5
14c
100
AcDbEntity
  8
0
 62
7
100
AcDbSpline
 70
8
 71
3
 72
8
 73
4
 74
0
 40
0
 40
0
 40
0
 40
0
 40
1
 40
1
 40
1
 40
1
 10
355.198689
 20
22.976358
 30
0.0
 10
354.753780
 20
22.976358
 30
0.0
 10
354.352679
 20
22.708350
 30
0.0
 10
354.182419
 20
22.297308
 30
0.0
  0
SPLINE
  5
14d
100
AcDbEntity
  8
0
 62
7
100
AcDbSpline
 70
8
 71
3
 72
8
 73
4
 74
0
 40
0
 40
0
 40
0
 40
0
 40
1
 40
1
 40
1
 40
1
 10
354.182419
 20
22.297308
 30
0.0
 10
354.012160
 20
21.886265
 30
0.0
 10
354.106271
 20
21.413134
 30
0.0
 10
354.420870
 20
21.098535
 30
0.0
  0
SPLINE
  5
14e
100
AcDbEntity
  8
0
 62
7
100
AcDbSpline
 70
8
 71
3
 72
8
 73
4
 74
0
 40
0
 40
0
 40
0
 40
0
 40
1
 40
1
 40
1
 40
1
 10
354.420870
 20
21.098535
 30
0.0
 10
354.735468
 20
20.783937
 30
0.0
 10
355.208599
 20
20.689825
 30
0.0
 10
355.619642
 20
20.860085
 30
0.0
  0
SPLINE
  5
14f
100
AcDbEntity
  8
0
 62
7
100
AcDbSpline
 70
8
 71
3
 72
8
 73
4
 74
0
 40
0
 40
0
 40
0
 40
0
 40
1
 40
1
 40
1
 40
1
 10
355.619642
 20
20.860085
 30
0.0
 10
356.030685
 20
21.030344
 30
0.0
 10
356.298692
 20
21.431445
 30
0.0
 10
356.298692
 20
21.876355
 30
0.0
  0
SPLINE
  5
150
100
AcDbEntity
  8
0
 62
7
100
AcDbSpline
 70
8
 71
3
 72
8
 73
4
 74
0
 40
0
 40
0
 40
0
 40
0
 40
1
 40
1
 40
1
 40
1
 10
356.298692
 20
21.876355
 30
0.0
 10
356.298692
 20
22.168094
 30
0.0
 10
356.182799
 20
22.447884
 30
0.0
 10
355.976509
 20
22.654174
 30
0.0
  0
SPLINE
  5
151
100
AcDbEntity
  8
0
 62
7
100
AcDbSpline
 70
8
 71
3
 72
8
 73
4
 74
0
 40
0
 40
0
 40
0
 40
0
 40
1
 40
1
 40
1
 40
1
 10
355.976509
 20
22.654174
 30
0.0
 10
355.770218
 20
22.860465
 30
0.0
 10
355.490428
 20
22.976358
 30
0.0
 10
355.198689
 20
22.976358
 30
0.0
  0
LWPOLYLINE
  5
152
100
AcDbEntity
  8
0
 62
7
100
AcDbPolyline
 90
1
 70
1
 10
356.498692
 20
117.386594
 30
0.0
  0
SPLINE
  5
153
100
AcDbEntity
  8
0
 62
7
100
AcDbSpline
 70
8
 71
3
 72
8
 73
4
 74
0
 40
0
 40
0
 40
0
 40
0
 40
1
 40
1
 40
1
 40
1
 10
72.927983
 20
10.166325
 30
0.0
 10
72.483073
 20
10.166325
 30
0.0
 10
72.081972
 20
9.898318
 30
0.0
 10
71.911713
 20
9.487276
 30
0.0
  0
SPLINE
  5
154
100
AcDbEntity
  8
0
 62
7
100
AcDbSpline
 70
8
 71
3
 72
8
 73
4
 74
0
 40
0
 40
0
 40
0
 40
0
 40
1
 40
1
 40
1
 40
1
 10
71.911713
 20
9.487276
 30
0.0
 10
71.741453
 20
9.076233
 30
0.0
 10
71.835565
 20
8.603102
 30
0.0
 10
72.150163
 20
8.288503
 30
0.0
  0
SPLINE
  5
155
100
AcDbEntity
  8
0
 62
7
100
AcDbSpline
 70
8
 71
3
 72
8
 73
4
 74
0
 40
0
 40
0
 40
0
 40
0
 40
1
 40
1
 40
1
 40
1
 10
72.150163
 20
8.288503
 30
0.0
 10
72.464762
 20
7.973905
 30
0.0
 10
72.937893
 20
7.879793
 30
0.0
 10
73.348935
 20
8.050053
 30
0.0
  0
SPLINE
  5
156
100
AcDbEntity
  8
0
 62
7
100
AcDbSpline
 70
8
 71
3
 72
8
 73
4
 74
0
 40
0
 40
0
 40
0
 40
0
 40
1
 40
1
 40
1
 40
1
 10
73.348935
 20
8.050053
 30
0.0
 10
73.759978
 20
8.220312
 30
0.0
 10
74.027985
 20
8.621413
 30
0.0
 10
74.027985
 20
9.066323
 30
0.0
  0
SPLINE
  5
157
100
AcDbEntity
  8
0
 62
7
100
AcDbSpline
 70
8
 71
3
 72
8
 73
4
 74
0
 40
0
 40
0
 40
0
 40
0
 40
1
 40
1
 40
1
 40
1
 10
74.027985
 20
9.066323
 30
0.0
 10
74.027985
 20
9.358062
 30
0.0
 10
73.912092
 20
9.637852
 30
0.0
 10
73.705802
 20
9.844142
 30
0.0
  0
SPLINE
  5
158
100
AcDbEntity
  8
0
 62
7
100
AcDbSpline
 70
8
 71
3
 72
8
 73
4
 74
0
 40
0
 40
0
 40
0
 40
0
 40
1
 40
1
 40
1
 40
1
 10
73.705802
 20
9.844142
 30
0.0
 10
73.499511
 20
10.050433
 30
0.0
 10
73.219721
 20
10.166325
 30
0.0
 10
72.927983
 20
10.166325
 30
0.0
  0
LWPOLYLINE
  5
159
100
AcDbEntity
  8
0
 62
7
100
AcDbPolyline
 90
1
 70
1
 10
355.198689
 20
22.976358
 30
0.0
  0
SPLINE
  5
15a
100
AcDbEntity
  8
0
 62
7
100
AcDbSpline
 70
8
 71
3
 72
8
 73
4
 74
0
 40
0
 40
0
 40
0
 40
0
 40
1
 40
1
 40
1
 40
1
 10
123.078108
 20
99.156548
 30
0.0
 10
122.633199
 20
99.156548
 30
0.0
 10
122.232098
 20
98.888541
 30
0.0
 10
122.061838
 20
98.477498
 30
0.0
  0
SPLINE
  5
15b
100
AcDbEntity
  8
0
 62
7
100
AcDbSpline
 70
8
 71
3
 72
8
 73
4
 74
0
 40
0
 40
0
 40
0
 40
0
 40
1
 40
1
 40
1
 40
1
 10
122.061838
 20
98.477498
 30
0.0
 10
121.891579
 20
98.066455
 30
0.0
 10
121.985690
 20
97.593325
 30
0.0
 10
122.300289
 20
97.278726
 30
0.0
  0
SPLINE
  5
15c
100
AcDbEntity
  8
0
 62
7
100
AcDbSpline
 70
8
 71
3
 72
8
 73
4
 74
0
 40
0
 40
0
 40
0
 40
0
 40
1
 40
1
 40
1
 40
1
 10
122.300289
 20
97.278726
 30
0.0
 10
122.614887
 20
96.964127
 30
0.0
 10
123.088018
 20
96.870016
 30
0.0
 10
123.499061
 20
97.040275
 30
0.0
  0
SPLINE
  5
15d
100
AcDbEntity
  8
0
 62
7
100
AcDbSpline
 70
8
 71
3
 72
8
 73
4
 74
0
 40
0
 40
0
 40
0
 40
0
 40
1
 40
1
 40
1
 40
1
 10
123.499061
 20
97.040275
 30
0.0
 10
123.910104
 20
97.210535
 30
0.0
 10
124.178111
 20
97.611636
 30
0.0
 10
124.178111
 20
98.056545
 30
0.0
  0
SPLINE
  5
15e
100
AcDbEntity
  8
0
 62
7
100
AcDbSpline
 70
8
 71
3
 72
8
 73
4
 74
0
 40
0
 40
0
 40
0
 40
0
 40
1
 40
1
 40
1
 40
1
 10
124.178111
 20
98.056545
 30
0.0
 10
124.178111
 20
98.348284
 30
0.0
 10
124.062218
 20
98.628074
 30
0.0
 10
123.855928
 20
98.834365
 30
0.0
  0
SPLINE
  5
15f
100
AcDbEntity
  8
0
 62
7
100
AcDbSpline
 70
8
 71
3
 72
8
 73
4
 74
0
 40
0
 40
0
 40
0
 40
0
 40
1
 40
1
 40
1
 40
1
 10
123.855928
 20
98.834365
 30
0.0
 10
123.649637
 20
99.040655
 30
0.0
 10
123.369847
 20
99.156548
 30
0.0
 10
123.078108
 20
99.156548
 30
0.0
  0
LWPOLYLINE
  5
160
100
AcDbEntity
  8
0
 62
7
100
AcDbPolyline
 90
1
 70
1
 10
72.927983
 20
10.166325
 30
0.0
  0
SPLINE
  5
161
100
AcDbEntity
  8
0
 62
7
100
AcDbSpline
 70
8
 71
3
 72
8
 73
4
 74
0
 40
0
 40
0
 40
0
 40
0
 40
1
 40
1
 40
1
 40
1
 10
82.368006
 20
87.486519
 30
0.0
 10
81.923097
 20
87.486519
 30
0.0
 10
81.521996
 20
87.218512
 30
0.0
 10
81.351736
 20
86.807469
 30
0.0
  0
SPLINE
  5
162
100
AcDbEntity
  8
0
 62
7
100
AcDbSpline
 70
8
 71
3
 72
8
 73
4
 74
0
 40
0
 40
0
 40
0
 40
0
 40
1
 40
1
 40
1
 40
1
 10
81.351736
 20
86.807469
 30
0.0
 10
81.181477
 20
86.396426
 30
0.0
 10
81.275588
 20
85.923295
 30
0.0
 10
81.590187
 20
85.608697
 30
0.0
  0
SPLINE
  5
163
100
AcDbEntity
  8
0
 62
7
100
AcDbSpline
 70
8
 71
3
 72
8
 73
4
 74
0
 40
0
 40
0
 40
0
 40
0
 40
1
 40
1
 40
1
 40
1
 10
81.590187
 20
85.608697
 30
0.0
 10
81.904785
 20
85.294098
 30
0.0
 10
82.377916
 20
85.199987
 30
0.0
 10
82.788959
 20
85.370246
 30
0.0
  0
SPLINE
  5
164
100
AcDbEntity
  8
0
 62
7
100
AcDbSpline
 70
8
 71
3
 72
8
 73
4
 74
0
 40
0
 40
0
 40
0
 40
0
 40
1
 40
1
 40
1
 40
1
 10
82.788959
 20
85.370246
 30
0.0
 10
83.200002
 20
85.540506
 30
0.0
 10
83.468009
 20
85.941607
 30
0.0
 10
83.468009
 20
86.386516
 30
0.0
  0
SPLINE
  5
165
100
AcDbEntity
  8
0
 62
7
100
AcDbSpline
 70
8
 71
3
 72
8
 73
4
 74
0
 40
0
 40
0
 40
0
 40
0
 40
1
 40
1
 40
1
 40
1
 10
83.468009
 20
86.386516
 30
0.0
 10
83.468009
 20
86.678255
 30
0.0
 10
83.352116
 20
86.958045
 30
0.0
 10
83.145826
 20
87.164336
 30
0.0
  0
SPLINE
  5
166
100
AcDbEntity
  8
0
 62
7
100
AcDbSpline
 70
8
 71
3
 72
8
 73
4
 74
0
 40
0
 40
0
 40
0
 40
0
 40
1
 40
1
 40
1
 40
1
 10
83.145826
 20
87.164336
 30
0.0
 10
82.939535
 20
87.370626
 30
0.0
 10
82.659745
 20
87.486519
 30
0.0
 10
82.368006
 20
87.486519
 30
0.0
  0
LWPOLYLINE
  5
167
100
AcDbEntity
  8
0
 62
7
100
AcDbPolyline
 90
1
 70
1
 10
123.078108
 20
99.156548
 30
0.0
  0
SPLINE
  5
168
100
AcDbEntity
  8
0
 62
7
100
AcDbSpline
 70
8
 71
3
 72
8
 73
4
 74
0
 40
0
 40
0
 40
0
 40
0
 40
1
 40
1
 40
1
 40
1
 10
167.888220
 20
124.256611
 30
0.0
 10
167.443311
 20
124.256611
 30
0.0
 10
167.042210
 20
123.988604
 30
0.0
 10
166.871950
 20
123.577561
 30
0.0
  0
SPLINE
  5
169
100
AcDbEntity
  8
0
 62
7
100
AcDbSpline
 70
8
 71
3
 72
8
 73
4
 74
0
 40
0
 40
0
 40
0
 40
0
 40
1
 40
1
 40
1
 40
1
 10
166.871950
 20
123.577561
 30
0.0
 10
166.701691
 20
123.166518
 30
0.0
 10
166.795802
 20
122.693387
 30
0.0
 10
167.110401
 20
122.378789
 30
0.0
  0
SPLINE
  5
16a
100
AcDbEntity
  8
0
 62
7
100
AcDbSpline
 70
8
 71
3
 72
8
 73
4
 74
0
 40
0
 40
0
 40
0
 40
0
 40
1
 40
1
 40
1
 40
1
 10
167.110401
 20
122.378789
 30
0.0
 10
167.424999
 20
122.064190
 30
0.0
 10
167.898130
 20
121.970079
 30
0.0
 10
168.309173
 20
122.140338
 30
0.0
  0
SPLINE
  5
16b
100
AcDbEntity
  8
0
 62
7
100
AcDbSpline
 70
8
 71
3
 72
8
 73
4
 74
0
 40
0
 40
0
 40
0
 40
0
 40
1
 40
1
 40
1
 40
1
 10
168.309173
 20
122.140338
 30
0.0
 10
168.720216
 20
122.310598
 30
0.0
 10
168.988223
 20
122.711699
 30
0.0
 10
168.988223
 20
123.156608
 30
0.0
  0
SPLINE
  5
16c
100
AcDbEntity
  8
0
 62
7
100
AcDbSpline
 70
8
 71
3
 72
8
 73
4
 74
0
 40
0
 40
0
 40
0
 40
0
 40
1
 40
1
 40
1
 40
1
 10
168.988223
 20
123.156608
 30
0.0
 10
168.988223
 20
123.448347
 30
0.0
 10
168.872330
 20
123.728137
 30
0.0
 10
168.666040
 20
123.934428
 30
0.0
  0
SPLINE
  5
16d
100
AcDbEntity
  8
0
 62
7
100
AcDbSpline
 70
8
 71
3
 72
8
 73
4
 74
0
 40
0
 40
0
 40
0
 40
0
 40
1
 40
1
 40
1
 40
1
 10
168.666040
 20
123.934428
 30
0.0
 10
168.459749
 20
124.140718
 30
0.0
 10
168.179959
 20
124.256611
 30
0.0
 10
167.888220
 20
124.256611
 30
0.0
  0
LWPOLYLINE
  5
16e
100
AcDbEntity
  8
0
 62
7
100
AcDbPolyline
 90
1
 70
1
 10
82.368006
 20
87.486519
 30
0.0
  0
SPLINE
  5
16f
100
AcDbEntity
  8
0
 62
7
100
AcDbSpline
 70
8
 71
3
 72
8
 73
4
 74
0
 40
0
 40
0
 40
0
 40
0
 40
1
 40
1
 40
1
 40
1
 10
73.817985
 20
152.656682
 30
0.0
 10
73.373075
 20
152.656682
 30
0.0
 10
72.971974
 20
152.388675
 30
0.0
 10
72.801715
 20
151.977632
 30
0.0
  0
SPLINE
  5
170
100
AcDbEntity
  8
0
 62
7
100
AcDbSpline
 70
8
 71
3
 72
8
 73
4
 74
0
 40
0
 40
0
 40
0
 40
0
 40
1
 40
1
 40
1
 40
1
 10
72.801715
 20
151.977632
 30
0.0
 10
72.631455
 20
151.566589
 30
0.0
 10
72.725567
 20
151.093459
 30
0.0
 10
73.040165
 20
150.778860
 30
0.0
  0
SPLINE
  5
171
100
AcDbEntity
  8
0
 62
7
100
AcDbSpline
 70
8
 71
3
 72
8
 73
4
 74
0
 40
0
 40
0
 40
0
 40
0
 40
1
 40
1
 40
1
 40
1
 10
73.040165
 20
150.778860
 30
0.0
 10
73.354764
 20
150.464261
 30
0.0
 10
73.827895
 20
150.370150
 30
0.0
 10
74.238938
 20
150.540409
 30
0.0
  0
SPLINE
  5
172
100
AcDbEntity
  8
0
 62
7
100
AcDbSpline
 70
8
 71
3
 72
8
 73
4
 74
0
 40
0
 40
0
 40
0
 40
0
 40
1
 40
1
 40
1
 40
1
 10
74.238938
 20
150.540409
 30
0.0
 10
74.649980
 20
150.710669
 30
0.0
 10
74.917988
 20
151.111770
 30
0.0
 10
74.917988
 20
151.556679
 30
0.0
  0
SPLINE
  5
173
100
AcDbEntity
  8
0
 62
7
100
AcDbSpline
 70
8
 71
3
 72
8
 73
4
 74
0
 40
0
 40
0
 40
0
 40
0
 40
1
 40
1
 40
1
 40
1
 10
74.917988
 20
151.556679
 30
0.0
 10
74.917988
 20
151.848418
 30
0.0
 10
74.802095
 20
152.128208
 30
0.0
 10
74.595804
 20
152.334499
 30
0.0
  0
SPLINE
  5
174
100
AcDbEntity
  8
0
 62
7
100
AcDbSpline
 70
8
 71
3
 72
8
 73
4
 74
0
 40
0
 40
0
 40
0
 40
0
 40
1
 40
1
 40
1
 40
1
 10
74.595804
 20
152.334499
 30
0.0
 10
74.389514
 20
152.540789
 30
0.0
 10
74.109724
 20
152.656682
 30
0.0
 10
73.817985
 20
152.656682
 30
0.0
  0
LWPOLYLINE
  5
175
100
AcDbEntity
  8
0
 62
7
100
AcDbPolyline
 90
1
 70
1
 10
167.888220
 20
124.256611
 30
0.0
  0
SPLINE
  5
176
100
AcDbEntity
  8
0
 62
7
100
AcDbSpline
 70
8
 71
3
 72
8
 73
4
 74
0
 40
0
 40
0
 40
0
 40
0
 40
1
 40
1
 40
1
 40
1
 10
132.898133
 20
122.156606
 30
0.0
 10
132.453223
 20
122.156606
 30
0.0
 10
132.052122
 20
121.888599
 30
0.0
 10
131.881863
 20
121.477556
 30
0.0
  0
SPLINE
  5
177
100
AcDbEntity
  8
0
 62
7
100
AcDbSpline
 70
8
 71
3
 72
8
 73
4
 74
0
 40
0
 40
0
 40
0
 40
0
 40
1
 40
1
 40
1
 40
1
 10
131.881863
 20
121.477556
 30
0.0
 10
131.711603
 20
121.066513
 30
0.0
 10
131.805715
 20
120.593382
 30
0.0
 10
132.120313
 20
120.278784
 30
0.0
  0
SPLINE
  5
178
100
AcDbEntity
  8
0
 62
7
100
AcDbSpline
 70
8
 71
3
 72
8
 73
4
 74
0
 40
0
 40
0
 40
0
 40
0
 40
1
 40
1
 40
1
 40
1
 10
132.120313
 20
120.278784
 30
0.0
 10
132.434912
 20
119.964185
 30
0.0
 10
132.908043
 20
119.870073
 30
0.0
 10
133.319086
 20
120.040333
 30
0.0
  0
SPLINE
  5
179
100
AcDbEntity
  8
0
 62
7
100
AcDbSpline
 70
8
 71
3
 72
8
 73
4
 74
0
 40
0
 40
0
 40
0
 40
0
 40
1
 40
1
 40
1
 40
1
 10
133.319086
 20
120.040333
 30
0.0
 10
133.730128
 20
120.210593
 30
0.0
 10
133.998135
 20
120.611693
 30
0.0
 10
133.998135
 20
121.056603
 30
0.0
  0
SPLINE
  5
17a
100
AcDbEntity
  8
0
 62
7
100
AcDbSpline
 70
8
 71
3
 72
8
 73
4
 74
0
 40
0
 40
0
 40
0
 40
0
 40
1
 40
1
 40
1
 40
1
 10
133.998135
 20
121.056603
 30
0.0
 10
133.998135
 20
121.348342
 30
0.0
 10
133.882243
 20
121.628132
 30
0.0
 10
133.675952
 20
121.834422
 30
0.0
  0
SPLINE
  5
17b
100
AcDbEntity
  8
0
 62
7
100
AcDbSpline
 70
8
 71
3
 72
8
 73
4
 74
0
 40
0
 40
0
 40
0
 40
0
 40
1
 40
1
 40
1
 40
1
 10
133.675952
 20
121.834422
 30
0.0
 10
133.469662
 20
122.040713
 30
0.0
 10
133.189872
 20
122.156606
 30
0.0
 10
132.898133
 20
122.156606
 30
0.0
  0
LWPOLYLINE
  5
17c
100
AcDbEntity
  8
0
 62
7
100
AcDbPolyline
 90
1
 70
1
 10
73.817985
 20
152.656682
 30
0.0
  0
SPLINE
  5
17d
100
AcDbEntity
  8
0
 62
7
100
AcDbSpline
 70
8
 71
3
 72
8
 73
4
 74
0
 40
0
 40
0
 40
0
 40
0
 40
1
 40
1
 40
1
 40
1
 10
136.768142
 20
47.756420
 30
0.0
 10
136.323233
 20
47.756420
 30
0.0
 10
135.922132
 20
47.488412
 30
0.0
 10
135.751872
 20
47.077370
 30
0.0
  0
SPLINE
  5
17e
100
AcDbEntity
  8
0
 62
7
100
AcDbSpline
 70
8
 71
3
 72
8
 73
4
 74
0
 40
0
 40
0
 40
0
 40
0
 40
1
 40
1
 40
1
 40
1
 10
135.751872
 20
47.077370
 30
0.0
 10
135.581613
 20
46.666327
 30
0.0
 10
135.675724
 20
46.193196
 30
0.0
 10
135.990323
 20
45.878597
 30
0.0
  0
SPLINE
  5
17f
100
AcDbEntity
  8
0
 62
7
100
AcDbSpline
 70
8
 71
3
 72
8
 73
4
 74
0
 40
0
 40
0
 40
0
 40
0
 40
1
 40
1
 40
1
 40
1
 10
135.990323
 20
45.878597
 30
0.0
 10
136.304922
 20
45.563999
 30
0.0
 10
136.778052
 20
45.469887
 30
0.0
 10
137.189095
 20
45.640147
 30
0.0
  0
SPLINE
  5
180
100
AcDbEntity
  8
0
 62
7
100
AcDbSpline
 70
8
 71
3
 72
8
 73
4
 74
0
 40
0
 40
0
 40
0
 40
0
 40
1
 40
1
 40
1
 40
1
 10
137.189095
 20
45.640147
 30
0.0
 10
137.600138
 20
45.810406
 30
0.0
 10
137.868145
 20
46.211507
 30
0.0
 10
137.868145
 20
46.656417
 30
0.0
  0
SPLINE
  5
181
100
AcDbEntity
  8
0
 62
7
100
AcDbSpline
 70
8
 71
3
 72
8
 73
4
 74
0
 40
0
 40
0
 40
0
 40
0
 40
1
 40
1
 40
1
 40
1
 10
137.868145
 20
46.656417
 30
0.0
 10
137.868145
 20
46.948156
 30
0.0
 10
137.752252
 20
47.227946
 30
0.0
 10
137.545962
 20
47.434236
 30
0.0
  0
SPLINE
  5
182
100
AcDbEntity
  8
0
 62
7
100
AcDbSpline
 70
8
 71
3
 72
8
 73
4
 74
0
 40
0
 40
0
 40
0
 40
0
 40
1
 40
1
 40
1
 40
1
 10
137.545962
 20
47.434236
 30
0.0
 10
137.339671
 20
47.640527
 30
0.0
 10
137.059881
 20
47.756420
 30
0.0
 10
136.768142
 20
47.756420
 30
0.0
  0
LWPOLYLINE
  5
183
100
AcDbEntity
  8
0
 62
7
100
AcDbPolyline
 90
1
 70
1
 10
132.898133
 20
122.156606
 30
0.0
  0
SPLINE
  5
184
100
AcDbEntity
  8
0
 62
7
100
AcDbSpline
 70
8
 71
3
 72
8
 73
4
 74
0
 40
0
 40
0
 40
0
 40
0
 40
1
 40
1
 40
1
 40
1
 10
72.797982
 20
47.776420
 30
0.0
 10
72.353073
 20
47.776420
 30
0.0
 10
71.951972
 20
47.508413
 30
0.0
 10
71.781712
 20
47.097370
 30
0.0
  0
SPLINE
  5
185
100
AcDbEntity
  8
0
 62
7
100
AcDbSpline
 70
8
 71
3
 72
8
 73
4
 74
0
 40
0
 40
0
 40
0
 40
0
 40
1
 40
1
 40
1
 40
1
 10
71.781712
 20
47.097370
 30
0.0
 10
71.611453
 20
46.686327
 30
0.0
 10
71.705564
 20
46.213196
 30
0.0
 10
72.020163
 20
45.898597
 30
0.0
  0
SPLINE
  5
186
100
AcDbEntity
  8
0
 62
7
100
AcDbSpline
 70
8
 71
3
 72
8
 73
4
 74
0
 40
0
 40
0
 40
0
 40
0
 40
1
 40
1
 40
1
 40
1
 10
72.020163
 20
45.898597
 30
0.0
 10
72.334761
 20
45.583999
 30
0.0
 10
72.807892
 20
45.489887
 30
0.0
 10
73.218935
 20
45.660147
 30
0.0
  0
SPLINE
  5
187
100
AcDbEntity
  8
0
 62
7
100
AcDbSpline
 70
8
 71
3
 72
8
 73
4
 74
0
 40
0
 40
0
 40
0
 40
0
 40
1
 40
1
 40
1
 40
1
 10
73.218935
 20
45.660147
 30
0.0
 10
73.629978
 20
45.830406
 30
0.0
 10
73.897985
 20
46.231507
 30
0.0
 10
73.897985
 20
46.676417
 30
0.0
  0
SPLINE
  5
188
100
AcDbEntity
  8
0
 62
7
100
AcDbSpline
 70
8
 71
3
 72
8
 73
4
 74
0
 40
0
 40
0
 40
0
 40
0
 40
1
 40
1
 40
1
 40
1
 10
73.897985
 20
46.676417
 30
0.0
 10
73.897985
 20
46.968156
 30
0.0
 10
73.782092
 20
47.247946
 30
0.0
 10
73.575802
 20
47.454236
 30
0.0
  0
SPLINE
  5
189
100
AcDbEntity
  8
0
 62
7
100
AcDbSpline
 70
8
 71
3
 72
8
 73
4
 74
0
 40
0
 40
0
 40
0
 40
0
 40
1
 40
1
 40
1
 40
1
 10
73.575802
 20
47.454236
 30
0.0
 10
73.369511
 20
47.660527
 30
0.0
 10
73.089721
 20
47.776420
 30
0.0
 10
72.797982
 20
47.776420
 30
0.0
  0
LWPOLYLINE
  5
18a
100
AcDbEntity
  8
0
 62
7
100
AcDbPolyline
 90
1
 70
1
 10
136.768142
 20
47.756420
 30
0.0
  0
SPLINE
  5
18b
100
AcDbEntity
  8
0
 62
7
100
AcDbSpline
 70
8
 71
3
 72
8
 73
4
 74
0
 40
0
 40
0
 40
0
 40
0
 40
1
 40
1
 40
1
 40
1
 10
32.197881
 20
10.016325
 30
0.0
 10
31.590366
 20
10.016325
 30
0.0
 10
31.097878
 20
9.523837
 30
0.0
 10
31.097878
 20
8.916322
 30
0.0
  0
SPLINE
  5
18c
100
AcDbEntity
  8
0
 62
7
100
AcDbSpline
 70
8
 71
3
 72
8
 73
4
 74
0
 40
0
 40
0
 40
0
 40
0
 40
1
 40
1
 40
1
 40
1
 10
31.097878
 20
8.916322
 30
0.0
 10
31.097878
 20
8.308808
 30
0.0
 10
31.590366
 20
7.816320
 30
0.0
 10
32.197881
 20
7.816320
 30
0.0
  0
SPLINE
  5
18d
100
AcDbEntity
  8
0
 62
7
100
AcDbSpline
 70
8
 71
3
 72
8
 73
4
 74
0
 40
0
 40
0
 40
0
 40
0
 40
1
 40
1
 40
1
 40
1
 10
32.197881
 20
7.816320
 30
0.0
 10
32.805395
 20
7.816320
 30
0.0
 10
33.297883
 20
8.308808
 30
0.0
 10
33.297883
 20
8.916322
 30
0.0
  0
SPLINE
  5
18e
100
AcDbEntity
  8
0
 62
7
100
AcDbSpline
 70
8
 71
3
 72
8
 73
4
 74
0
 40
0
 40
0
 40
0
 40
0
 40
1
 40
1
 40
1
 40
1
 10
33.297883
 20
8.916322
 30
0.0
 10
33.297883
 20
9.208061
 30
0.0
 10
33.181991
 20
9.487851
 30
0.0
 10
32.975700
 20
9.694142
 30
0.0
  0
SPLINE
  5
18f
100
AcDbEntity
  8
0
 62
7
100
AcDbSpline
 70
8
 71
3
 72
8
 73
4
 74
0
 40
0
 40
0
 40
0
 40
0
 40
1
 40
1
 40
1
 40
1
 10
32.975700
 20
9.694142
 30
0.0
 10
32.769409
 20
9.900432
 30
0.0
 10
32.489619
 20
10.016325
 30
0.0
 10
32.197881
 20
10.016325
 30
0.0
  0
LWPOLYLINE
  5
190
100
AcDbEntity
  8
0
 62
7
100
AcDbPolyline
 90
1
 70
1
 10
72.797982
 20
47.776420
 30
0.0
  0
SPLINE
  5
191
100
AcDbEntity
  8
0
 62
7
100
AcDbSpline
 70
8
 71
3
 72
8
 73
4
 74
0
 40
0
 40
0
 40
0
 40
0
 40
1
 40
1
 40
1
 40
1
 10
406.488818
 20
112.146581
 30
0.0
 10
405.881303
 20
112.146581
 30
0.0
 10
405.388815
 20
111.654093
 30
0.0
 10
405.388815
 20
111.046578
 30
0.0
  0
SPLINE
  5
192
100
AcDbEntity
  8
0
 62
7
100
AcDbSpline
 70
8
 71
3
 72
8
 73
4
 74
0
 40
0
 40
0
 40
0
 40
0
 40
1
 40
1
 40
1
 40
1
 10
405.388815
 20
111.046578
 30
0.0
 10
405.388815
 20
110.439063
 30
0.0
 10
405.881303
 20
109.946575
 30
0.0
 10
406.488818
 20
109.946575
 30
0.0
  0
SPLINE
  5
193
100
AcDbEntity
  8
0
 62
7
100
AcDbSpline
 70
8
 71
3
 72
8
 73
4
 74
0
 40
0
 40
0
 40
0
 40
0
 40
1
 40
1
 40
1
 40
1
 10
406.488818
 20
109.946575
 30
0.0
 10
407.096332
 20
109.946575
 30
0.0
 10
407.588820
 20
110.439063
 30
0.0
 10
407.588820
 20
111.046578
 30
0.0
  0
SPLINE
  5
194
100
AcDbEntity
  8
0
 62
7
100
AcDbSpline
 70
8
 71
3
 72
8
 73
4
 74
0
 40
0
 40
0
 40
0
 40
0
 40
1
 40
1
 40
1
 40
1
 10
407.588820
 20
111.046578
 30
0.0
 10
407.588820
 20
111.338317
 30
0.0
 10
407.472927
 20
111.618107
 30
0.0
 10
407.266637
 20
111.824397
 30
0.0
  0
SPLINE
  5
195
100
AcDbEntity
  8
0
 62
7
100
AcDbSpline
 70
8
 71
3
 72
8
 73
4
 74
0
 40
0
 40
0
 40
0
 40
0
 40
1
 40
1
 40
1
 40
1
 10
407.266637
 20
111.824397
 30
0.0
 10
407.060346
 20
112.030688
 30
0.0
 10
406.780556
 20
112.146581
 30
0.0
 10
406.488818
 20
112.146581
 30
0.0
  0
LWPOLYLINE
  5
196
100
AcDbEntity
  8
0
 62
7
100
AcDbPolyline
 90
1
 70
1
 10
32.197881
 20
10.016325
 30
0.0
  0
SPLINE
  5
197
100
AcDbEntity
  8
0
 62
7
100
AcDbSpline
 70
8
 71
3
 72
8
 73
4
 74
0
 40
0
 40
0
 40
0
 40
0
 40
1
 40
1
 40
1
 40
1
 10
404.968814
 20
13.446334
 30
0.0
 10
404.523904
 20
13.446334
 30
0.0
 10
404.122803
 20
13.178327
 30
0.0
 10
403.952544
 20
12.767284
 30
0.0
  0
SPLINE
  5
198
100
AcDbEntity
  8
0
 62
7
100
AcDbSpline
 70
8
 71
3
 72
8
 73
4
 74
0
 40
0
 40
0
 40
0
 40
0
 40
1
 40
1
 40
1
 40
1
 10
403.952544
 20
12.767284
 30
0.0
 10
403.782284
 20
12.356241
 30
0.0
 10
403.876396
 20
11.883110
 30
0.0
 10
404.190994
 20
11.568511
 30
0.0
  0
SPLINE
  5
199
100
AcDbEntity
  8
0
 62
7
100
AcDbSpline
 70
8
 71
3
 72
8
 73
4
 74
0
 40
0
 40
0
 40
0
 40
0
 40
1
 40
1
 40
1
 40
1
 10
404.190994
 20
11.568511
 30
0.0
 10
404.505593
 20
11.253913
 30
0.0
 10
404.978724
 20
11.159801
 30
0.0
 10
405.389767
 20
11.330061
 30
0.0
  0
SPLINE
  5
19a
100
AcDbEntity
  8
0
 62
7
100
AcDbSpline
 70
8
 71
3
 72
8
 73
4
 74
0
 40
0
 40
0
 40
0
 40
0
 40
1
 40
1
 40
1
 40
1
 10
405.389767
 20
11.330061
 30
0.0
 10
405.800809
 20
11.500320
 30
0.0
 10
406.068816
 20
11.901421
 30
0.0
 10
406.068816
 20
12.346331
 30
0.0
  0
SPLINE
  5
19b
100
AcDbEntity
  8
0
 62
7
100
AcDbSpline
 70
8
 71
3
 72
8
 73
4
 74
0
 40
0
 40
0
 40
0
 40
0
 40
1
 40
1
 40
1
 40
1
 10
406.068816
 20
12.346331
 30
0.0
 10
406.068816
 20
12.638070
 30
0.0
 10
405.952924
 20
12.917860
 30
0.0
 10
405.746633
 20
13.124150
 30
0.0
  0
SPLINE
  5
19c
100
AcDbEntity
  8
0
 62
7
100
AcDbSpline
 70
8
 71
3
 72
8
 73
4
 74
0
 40
0
 40
0
 40
0
 40
0
 40
1
 40
1
 40
1
 40
1
 10
405.746633
 20
13.124150
 30
0.0
 10
405.540343
 20
13.330441
 30
0.0
 10
405.260553
 20
13.446334
 30
0.0
 10
404.968814
 20
13.446334
 30
0.0
  0
LWPOLYLINE
  5
19d
100
AcDbEntity
  8
0
 62
7
100
AcDbPolyline
 90
1
 70
1
 10
406.488818
 20
112.146581
 30
0.0
  0
LWPOLYLINE
  5
19e
100
AcDbEntity
  8
0
 62
7
100
AcDbPolyline
 90
1
 70
1
 10
404.968814
 20
13.446334
 30
0.0
  0
LWPOLYLINE
  5
19f
100
AcDbEntity
  8
0
 62
7
100
AcDbPolyline
 90
2
 70
0
 10
417.396845
 20
4.080710
 30
0.0
 10
417.396845
 20
116.695292
 30
0.0
  0
SPLINE
  5
1a0
100
AcDbEntity
  8
0
 62
7
100
AcDbSpline
 70
8
 71
3
 72
8
 73
4
 74
0
 40
0
 40
0
 40
0
 40
0
 40
1
 40
1
 40
1
 40
1
 10
175.596340
 20
122.929108
 30
0.0
 10
176.265655
 20
121.551718
 30
0.0
 10
177.662649
 20
120.677378
 30
0.0
 10
179.194049
 20
120.677402
 30
0.0
  0
SPLINE
  5
1a1
100
AcDbEntity
  8
0
 62
7
100
AcDbSpline
 70
8
 71
3
 72
8
 73
4
 74
0
 40
0
 40
0
 40
0
 40
0
 40
1
 40
1
 40
1
 40
1
 10
48.242321
 20
120.616702
 30
0.0
 10
49.773757
 20
120.616640
 30
0.0
 10
51.170799
 20
121.490985
 30
0.0
 10
51.840130
 20
122.868408
 30
0.0
  0
SPLINE
  5
1a2
100
AcDbEntity
  8
0
 62
7
100
AcDbSpline
 70
8
 71
3
 72
8
 73
4
 74
0
 40
0
 40
0
 40
0
 40
0
 40
1
 40
1
 40
1
 40
1
 10
72.249481
 20
159.716800
 30
0.0
 10
70.718102
 20
159.716752
 30
0.0
 10
69.321142
 20
158.842434
 30
0.0
 10
68.651772
 20
157.465094
 30
0.0
  0
LWPOLYLINE
  5
1a3
100
AcDbEntity
  8
0
 62
7
100
AcDbPolyline
 90
2
 70
0
 10
386.722468
 20
0.086400
 30
0.0
 10
413.362635
 20
0.080800
 30
0.0
  0
SPLINE
  5
1a4
100
AcDbEntity
  8
0
 62
7
100
AcDbSpline
 70
8
 71
3
 72
8
 73
4
 74
0
 40
0
 40
0
 40
0
 40
0
 40
1
 40
1
 40
1
 40
1
 10
417.396845
 20
116.695292
 30
0.0
 10
417.396849
 20
117.758139
 30
0.0
 10
416.973856
 20
118.777289
 30
0.0
 10
416.221241
 20
119.527764
 30
0.0
  0
SPLINE
  5
1a5
100
AcDbEntity
  8
0
 62
7
100
AcDbSpline
 70
8
 71
3
 72
8
 73
4
 74
0
 40
0
 40
0
 40
0
 40
0
 40
1
 40
1
 40
1
 40
1
 10
416.221241
 20
119.527764
 30
0.0
 10
415.468627
 20
120.278240
 30
0.0
 10
414.448277
 20
120.698331
 30
0.0
 10
413.385435
 20
120.695302
 30
0.0
  0
LWPOLYLINE
  5
1a6
100
AcDbEntity
  8
0
 62
7
100
AcDbPolyline
 90
2
 70
0
 10
0.095800
 20
116.616692
 30
0.0
 10
0.095800
 20
4.316411
 30
0.0
  0
SPLINE
  5
1a7
100
AcDbEntity
  8
0
 62
7
100
AcDbSpline
 70
8
 71
3
 72
8
 73
4
 74
0
 40
0
 40
0
 40
0
 40
0
 40
1
 40
1
 40
1
 40
1
 10
4.095810
 20
120.616702
 30
0.0
 10
1.886666
 20
120.616702
 30
0.0
 10
0.095800
 20
118.825836
 30
0.0
 10
0.095800
 20
116.616692
 30
0.0
  0
LWPOLYLINE
  5
1a8
100
AcDbEntity
  8
0
 62
7
100
AcDbPolyline
 90
2
 70
0
 10
386.542468
 20
120.696702
 30
0.0
 10
179.194049
 20
120.677402
 30
0.0
  0
SPLINE
  5
1a9
100
AcDbEntity
  8
0
 62
7
100
AcDbSpline
 70
8
 71
3
 72
8
 73
4
 74
0
 40
0
 40
0
 40
0
 40
0
 40
1
 40
1
 40
1
 40
1
 10
0.095700
 20
4.316411
 30
0.0
 10
-0.012150
 20
3.279311
 30
0.0
 10
0.303439
 20
2.242613
 30
0.0
 10
0.970867
 20
1.441523
 30
0.0
  0
SPLINE
  5
1aa
100
AcDbEntity
  8
0
 62
7
100
AcDbSpline
 70
8
 71
3
 72
8
 73
4
 74
0
 40
0
 40
0
 40
0
 40
0
 40
1
 40
1
 40
1
 40
1
 10
0.970867
 20
1.441523
 30
0.0
 10
1.638295
 20
0.640432
 30
0.0
 10
2.600980
 20
0.142861
 30
0.0
 10
3.640509
 20
0.061700
 30
0.0
  0
LWPOLYLINE
  5
1ab
100
AcDbEntity
  8
0
 62
7
100
AcDbPolyline
 90
2
 70
0
 10
3.640509
 20
0.061700
 30
0.0
 10
386.722468
 20
0.086400
 30
0.0
  0
SPLINE
  5
1ac
100
AcDbEntity
  8
0
 62
7
100
AcDbSpline
 70
8
 71
3
 72
8
 73
4
 74
0
 40
0
 40
0
 40
0
 40
0
 40
1
 40
1
 40
1
 40
1
 10
413.362635
 20
0.080800
 30
0.0
 10
414.429382
 20
0.071706
 30
0.0
 10
415.455567
 20
0.489102
 30
0.0
 10
416.213103
 20
1.240216
 30
0.0
  0
SPLINE
  5
1ad
100
AcDbEntity
  8
0
 62
7
100
AcDbSpline
 70
8
 71
3
 72
8
 73
4
 74
0
 40
0
 40
0
 40
0
 40
0
 40
1
 40
1
 40
1
 40
1
 10
416.213103
 20
1.240216
 30
0.0
 10
416.970639
 20
1.991330
 30
0.0
 10
417.396757
 20
3.013924
 30
0.0
 10
417.396745
 20
4.080710
 30
0.0
  0
LWPOLYLINE
  5
1ae
100
AcDbEntity
  8
0
 62
7
100
AcDbPolyline
 90
2
 70
0
 10
413.385435
 20
120.695302
 30
0.0
 10
386.542468
 20
120.696702
 30
0.0
  0
LWPOLYLINE
  5
1af
100
AcDbEntity
  8
0
 62
7
100
AcDbPolyline
 90
2
 70
0
 10
48.242321
 20
120.616702
 30
0.0
 10
4.095810
 20
120.616702
 30
0.0
  0
LWPOLYLINE
  5
1b0
100
AcDbEntity
  8
0
 62
7
100
AcDbPolyline
 90
2
 70
0
 10
175.596340
 20
122.929108
 30
0.0
 10
158.840398
 20
157.465094
 30
0.0
  0
LWPOLYLINE
  5
1b1
100
AcDbEntity
  8
0
 62
7
100
AcDbPolyline
 90
2
 70
0
 10
68.651772
 20
157.465094
 30
0.0
 10
51.840130
 20
122.868408
 30
0.0
  0
SPLINE
  5
1b2
100
AcDbEntity
  8
0
 62
7
100
AcDbSpline
 70
8
 71
3
 72
8
 73
4
 74
0
 40
0
 40
0
 40
0
 40
0
 40
1
 40
1
 40
1
 40
1
 10
158.840398
 20
157.465094
 30
0.0
 10
158.171067
 20
158.842516
 30
0.0
 10
156.774024
 20
159.716862
 30
0.0
 10
155.242589
 20
159.716800
 30
0.0
  0
LWPOLYLINE
  5
1b3
100
AcDbEntity
  8
0
 62
7
100
AcDbPolyline
 90
2
 70
0
 10
72.249481
 20
159.716800
 30
0.0
 10
155.242589
 20
159.716800
 30
0.0
  0
ENDSEC
  0
SECTION
  2
OBJECTS
  0
DICTIONARY
  5
C
330
0
100
AcDbDictionary
  3
ACAD_GROUP
350
D
  3
ACAD_MLINESTYLE
350
17
  0
DICTIONARY
  5
D
330
C
100
AcDbDictionary
  0
DICTIONARY
  5
1A
330
C
100
AcDbDictionary
  0
DICTIONARY
  5
17
330
C
100
AcDbDictionary
  3
STANDARD
350
18
  0
DICTIONARY
  5
19
330
C
100
AcDbDictionary
  0
ENDSEC
  0
EOF
