<?xml version="1.0" encoding="UTF-8"?>
<!-- Generated by SVGo -->
<svg width="435.677mm" height="139.001mm" viewBox="0.000 0.000 435.677 139.001" xmlns="http://www.w3.org/2000/svg" xmlns:xlink="http://www.w3.org/1999/xlink">
<polygon points="426.677,5.001 426.990,5.013 427.302,5.050 427.610,5.111 427.913,5.196 428.207,5.305 428.492,5.436 428.766,5.590 429.028,5.764 429.274,5.959 429.505,6.172 429.718,6.403 429.913,6.649 430.087,6.911 430.241,7.185 430.372,7.470 430.481,7.764 430.566,8.067 430.627,8.375 430.664,8.687 430.677,9.001 430.677,130.001 430.664,130.315 430.627,130.627 430.566,130.935 430.481,131.238 430.372,131.532 430.241,131.817 430.087,132.091 429.913,132.353 429.718,132.599 429.505,132.830 429.274,133.043 429.028,133.238 428.766,133.412 428.492,133.566 428.207,133.697 427.913,133.806 427.610,133.891 427.302,133.952 426.990,133.989 426.677,134.001 9.001,134.001 8.687,133.989 8.375,133.952 8.067,133.891 7.764,133.806 7.470,133.697 7.185,133.566 6.911,133.412 6.649,133.238 6.403,133.043 6.172,132.830 5.959,132.599 5.764,132.353 5.590,132.091 5.436,131.817 5.305,131.532 5.196,131.238 5.111,130.935 5.050,130.627 5.013,130.315 5.000,130.002 5.001,9.001 5.013,8.687 5.050,8.375 5.111,8.067 5.196,7.764 5.305,7.470 5.436,7.185 5.590,6.911 5.764,6.649 5.959,6.403 6.172,6.172 6.403,5.959 6.649,5.764 6.911,5.590 7.185,5.436 7.470,5.305 7.764,5.196 8.067,5.111 8.375,5.050 8.687,5.013 9.001,5.000" style="fill:none;stroke-width:0.050000mm;stroke:black"/>
<polygon points="15.626,110.476 15.626,111.075 14.826,111.075 14.826,123.876 15.626,123.876 15.626,124.476 29.626,124.476 29.626,123.876 30.426,123.876 30.426,111.075 29.626,111.075 29.626,110.476" style="fill:none;stroke-width:0.050000mm;stroke:black"/>
<polygon points="53.726,110.476 53.726,111.075 52.926,111.075 52.926,123.876 53.726,123.876 53.726,124.476 67.726,124.476 67.726,123.876 68.526,123.876 68.526,111.075 67.726,111.075 67.726,110.476" style="fill:none;stroke-width:0.050000mm;stroke:black"/>
<polygon points="96.588,110.476 96.588,111.075 95.788,111.075 95.788,123.876 96.588,123.876 96.588,124.476 110.588,124.476 110.588,123.876 111.388,123.876 111.388,111.075 110.588,111.075 110.588,110.476" style="fill:none;stroke-width:0.050000mm;stroke:black"/>
<polygon points="115.638,110.476 115.638,111.075 114.838,111.075 114.838,123.876 115.638,123.876 115.638,124.476 129.638,124.476 129.638,123.876 130.438,123.876 130.438,111.075 129.638,111.075 129.638,110.476" style="fill:none;stroke-width:0.050000mm;stroke:black"/>
<polygon points="134.688,110.476 134.688,111.075 133.888,111.075 133.888,123.876 134.688,123.876 134.688,124.476 148.688,124.476 148.688,123.876 149.488,123.876 149.488,111.075 148.688,111.075 148.688,110.476" style="fill:none;stroke-width:0.050000mm;stroke:black"/>
<polygon points="158.501,110.476 158.501,111.075 157.701,111.075 157.701,123.876 158.501,123.876 158.501,124.476 172.501,124.476 172.501,123.876 173.301,123.876 173.301,111.075 172.501,111.075 172.501,110.476" style="fill:none;stroke-width:0.050000mm;stroke:black"/>
<polygon points="177.551,110.476 177.551,111.075 176.751,111.075 176.751,123.876 177.551,123.876 177.551,124.476 191.551,124.476 191.551,123.876 192.351,123.876 192.351,111.075 191.551,111.075 191.551,110.476" style="fill:none;stroke-width:0.050000mm;stroke:black"/>
<polygon points="196.601,110.476 196.601,111.075 195.801,111.075 195.801,123.876 196.601,123.876 196.601,124.476 210.601,124.476 210.601,123.876 211.401,123.876 211.401,111.075 210.601,111.075 210.601,110.476" style="fill:none;stroke-width:0.050000mm;stroke:black"/>
<polygon points="215.651,110.476 215.651,111.075 214.851,111.075 214.851,123.876 215.651,123.876 215.651,124.476 229.651,124.476 229.651,123.876 230.451,123.876 230.451,111.075 229.651,111.075 229.651,110.476" style="fill:none;stroke-width:0.050000mm;stroke:black"/>
<polygon points="234.701,110.476 234.701,111.075 233.901,111.075 233.901,123.876 234.701,123.876 234.701,124.476 248.701,124.476 248.701,123.876 249.501,123.876 249.501,111.075 248.701,111.075 248.701,110.476" style="fill:none;stroke-width:0.050000mm;stroke:black"/>
<polygon points="253.751,110.476 253.751,111.075 252.951,111.075 252.951,123.876 253.751,123.876 253.751,124.476 267.751,124.476 267.751,123.876 268.551,123.876 268.551,111.075 267.751,111.075 267.751,110.476" style="fill:none;stroke-width:0.050000mm;stroke:black"/>
<polygon points="272.801,110.476 272.801,111.075 272.001,111.075 272.001,123.876 272.801,123.876 272.801,124.476 286.801,124.476 286.801,123.876 287.601,123.876 287.601,111.075 286.801,111.075 286.801,110.476" style="fill:none;stroke-width:0.050000mm;stroke:black"/>
<polygon points="291.851,110.476 291.851,111.075 291.051,111.075 291.051,123.876 291.851,123.876 291.851,124.476 305.851,124.476 305.851,123.876 306.651,123.876 306.651,111.075 305.851,111.075 305.851,110.476" style="fill:none;stroke-width:0.050000mm;stroke:black"/>
<polygon points="310.901,110.476 310.901,111.075 310.101,111.075 310.101,123.876 310.901,123.876 310.901,124.476 324.901,124.476 324.901,123.876 325.701,123.876 325.701,111.075 324.901,111.075 324.901,110.476" style="fill:none;stroke-width:0.050000mm;stroke:black"/>
<polygon points="329.951,110.476 329.951,111.075 329.151,111.075 329.151,123.876 329.951,123.876 329.951,124.476 343.951,124.476 343.951,123.876 344.751,123.876 344.751,111.075 343.951,111.075 343.951,110.476" style="fill:none;stroke-width:0.050000mm;stroke:black"/>
<polygon points="349.001,110.476 349.001,111.075 348.201,111.075 348.201,123.876 349.001,123.876 349.001,124.476 363.001,124.476 363.001,123.876 363.801,123.876 363.801,111.075 363.001,111.075 363.001,110.476" style="fill:none;stroke-width:0.050000mm;stroke:black"/>
<polygon points="368.051,110.476 368.051,111.075 367.251,111.075 367.251,123.876 368.051,123.876 368.051,124.476 382.051,124.476 382.051,123.876 382.851,123.876 382.851,111.075 382.051,111.075 382.051,110.476" style="fill:none;stroke-width:0.050000mm;stroke:black"/>
<polygon points="387.101,110.476 387.101,111.075 386.301,111.075 386.301,123.876 387.101,123.876 387.101,124.476 401.101,124.476 401.101,123.876 401.901,123.876 401.901,111.075 401.101,111.075 401.101,110.476" style="fill:none;stroke-width:0.050000mm;stroke:black"/>
<polygon points="15.626,91.426 15.626,92.025 14.826,92.025 14.826,104.826 15.626,104.826 15.626,105.426 29.626,105.426 29.626,104.826 30.426,104.826 30.426,92.025 29.626,92.025 29.626,91.426" style="fill:none;stroke-width:0.050000mm;stroke:black"/>
<polygon points="34.676,91.426 34.676,92.025 33.876,92.025 33.876,104.826 34.676,104.826 34.676,105.426 48.676,105.426 48.676,104.826 49.475,104.826 49.475,92.025 48.676,92.025 48.676,91.426" style="fill:none;stroke-width:0.050000mm;stroke:black"/>
<polygon points="53.725,91.426 53.725,92.025 52.926,92.025 52.926,104.826 53.725,104.826 53.725,105.426 67.726,105.426 67.726,104.826 68.525,104.826 68.525,92.025 67.726,92.025 67.726,91.426" style="fill:none;stroke-width:0.050000mm;stroke:black"/>
<polygon points="72.775,91.426 72.775,92.025 71.976,92.025 71.976,104.826 72.775,104.826 72.775,105.426 86.775,105.426 86.775,104.826 87.575,104.826 87.575,92.025 86.775,92.025 86.775,91.426" style="fill:none;stroke-width:0.050000mm;stroke:black"/>
<polygon points="115.638,91.426 115.638,92.025 114.838,92.025 114.838,104.826 115.638,104.826 115.638,105.426 129.638,105.426 129.638,104.826 130.438,104.826 130.438,92.025 129.638,92.025 129.638,91.426" style="fill:none;stroke-width:0.050000mm;stroke:black"/>
<polygon points="158.501,91.426 158.501,92.025 157.701,92.025 157.701,104.826 158.501,104.826 158.501,105.426 172.501,105.426 172.501,104.826 173.301,104.826 173.301,92.025 172.501,92.025 172.501,91.426" style="fill:none;stroke-width:0.050000mm;stroke:black"/>
<polygon points="177.551,91.426 177.551,92.025 176.751,92.025 176.751,104.826 177.551,104.826 177.551,105.426 191.551,105.426 191.551,104.826 192.351,104.826 192.351,92.025 191.551,92.025 191.551,91.426" style="fill:none;stroke-width:0.050000mm;stroke:black"/>
<polygon points="196.601,91.426 196.601,92.025 195.801,92.025 195.801,104.826 196.601,104.826 196.601,105.426 210.601,105.426 210.601,104.826 211.401,104.826 211.401,92.025 210.601,92.025 210.601,91.426" style="fill:none;stroke-width:0.050000mm;stroke:black"/>
<polygon points="215.651,91.426 215.651,92.025 214.851,92.025 214.851,104.826 215.651,104.826 215.651,105.426 229.651,105.426 229.651,104.826 230.451,104.826 230.451,92.025 229.651,92.025 229.651,91.426" style="fill:none;stroke-width:0.050000mm;stroke:black"/>
<polygon points="234.701,91.426 234.701,92.025 233.901,92.025 233.901,104.826 234.701,104.826 234.701,105.426 248.701,105.426 248.701,104.826 249.501,104.826 249.501,92.025 248.701,92.025 248.701,91.426" style="fill:none;stroke-width:0.050000mm;stroke:black"/>
<polygon points="253.751,91.426 253.751,92.025 252.951,92.025 252.951,104.826 253.751,104.826 253.751,105.426 267.751,105.426 267.751,104.826 268.551,104.826 268.551,92.025 267.751,92.025 267.751,91.426" style="fill:none;stroke-width:0.050000mm;stroke:black"/>
<polygon points="272.801,91.426 272.801,92.025 272.001,92.025 272.001,104.826 272.801,104.826 272.801,105.426 286.801,105.426 286.801,104.826 287.601,104.826 287.601,92.025 286.801,92.025 286.801,91.426" style="fill:none;stroke-width:0.050000mm;stroke:black"/>
<polygon points="291.851,91.426 291.851,92.025 291.051,92.025 291.051,104.826 291.851,104.826 291.851,105.426 305.851,105.426 305.851,104.826 306.651,104.826 306.651,92.025 305.851,92.025 305.851,91.426" style="fill:none;stroke-width:0.050000mm;stroke:black"/>
<polygon points="310.901,91.426 310.901,92.025 310.101,92.025 310.101,104.826 310.901,104.826 310.901,105.426 324.901,105.426 324.901,104.826 325.701,104.826 325.701,92.025 324.901,92.025 324.901,91.426" style="fill:none;stroke-width:0.050000mm;stroke:black"/>
<polygon points="329.951,91.426 329.951,92.025 329.151,92.025 329.151,104.826 329.951,104.826 329.951,105.426 343.951,105.426 343.951,104.826 344.751,104.826 344.751,92.025 343.951,92.025 343.951,91.426" style="fill:none;stroke-width:0.050000mm;stroke:black"/>
<polygon points="349.001,91.426 349.001,92.025 348.201,92.025 348.201,104.826 349.001,104.826 349.001,105.426 363.001,105.426 363.001,104.826 363.801,104.826 363.801,92.025 363.001,92.025 363.001,91.426" style="fill:none;stroke-width:0.050000mm;stroke:black"/>
<polygon points="368.051,91.426 368.051,92.025 367.251,92.025 367.251,104.826 368.051,104.826 368.051,105.426 382.051,105.426 382.051,104.826 382.851,104.826 382.851,92.025 382.051,92.025 382.051,91.426" style="fill:none;stroke-width:0.050000mm;stroke:black"/>
<polygon points="15.626,72.376 15.626,72.976 14.826,72.976 14.826,85.776 15.626,85.776 15.626,86.376 29.626,86.376 29.626,85.776 30.426,85.776 30.426,72.976 29.626,72.976 29.626,72.376" style="fill:none;stroke-width:0.050000mm;stroke:black"/>
<polygon points="34.676,72.376 34.676,72.976 33.876,72.976 33.876,85.776 34.676,85.776 34.676,86.376 48.676,86.376 48.676,85.776 49.475,85.776 49.475,72.976 48.676,72.976 48.676,72.376" style="fill:none;stroke-width:0.050000mm;stroke:black"/>
<polygon points="53.725,72.376 53.725,72.976 52.926,72.976 52.926,85.776 53.725,85.776 53.725,86.376 67.726,86.376 67.726,85.776 68.525,85.776 68.525,72.976 67.726,72.976 67.726,72.376" style="fill:none;stroke-width:0.050000mm;stroke:black"/>
<polygon points="158.501,72.376 158.501,72.976 157.701,72.976 157.701,85.776 158.501,85.776 158.501,86.376 172.501,86.376 172.501,85.776 173.301,85.776 173.301,72.976 172.501,72.976 172.501,72.376" style="fill:none;stroke-width:0.050000mm;stroke:black"/>
<polygon points="177.551,72.376 177.551,72.976 176.751,72.976 176.751,85.776 177.551,85.776 177.551,86.376 191.551,86.376 191.551,85.776 192.351,85.776 192.351,72.976 191.551,72.976 191.551,72.376" style="fill:none;stroke-width:0.050000mm;stroke:black"/>
<polygon points="196.601,72.376 196.601,72.976 195.801,72.976 195.801,85.776 196.601,85.776 196.601,86.376 210.601,86.376 210.601,85.776 211.401,85.776 211.401,72.976 210.601,72.976 210.601,72.376" style="fill:none;stroke-width:0.050000mm;stroke:black"/>
<polygon points="215.651,72.376 215.651,72.976 214.851,72.976 214.851,85.776 215.651,85.776 215.651,86.376 229.651,86.376 229.651,85.776 230.451,85.776 230.451,72.976 229.651,72.976 229.651,72.376" style="fill:none;stroke-width:0.050000mm;stroke:black"/>
<polygon points="234.701,72.376 234.701,72.976 233.901,72.976 233.901,85.776 234.701,85.776 234.701,86.376 248.701,86.376 248.701,85.776 249.501,85.776 249.501,72.976 248.701,72.976 248.701,72.376" style="fill:none;stroke-width:0.050000mm;stroke:black"/>
<polygon points="253.751,72.376 253.751,72.976 252.951,72.976 252.951,85.776 253.751,85.776 253.751,86.376 267.751,86.376 267.751,85.776 268.551,85.776 268.551,72.976 267.751,72.976 267.751,72.376" style="fill:none;stroke-width:0.050000mm;stroke:black"/>
<polygon points="272.801,72.376 272.801,72.976 272.001,72.976 272.001,85.776 272.801,85.776 272.801,86.376 286.801,86.376 286.801,85.776 287.601,85.776 287.601,72.976 286.801,72.976 286.801,72.376" style="fill:none;stroke-width:0.050000mm;stroke:black"/>
<polygon points="291.851,72.376 291.851,72.976 291.051,72.976 291.051,85.776 291.851,85.776 291.851,86.376 305.851,86.376 305.851,85.776 306.651,85.776 306.651,72.976 305.851,72.976 305.851,72.376" style="fill:none;stroke-width:0.050000mm;stroke:black"/>
<polygon points="310.901,72.376 310.901,72.976 310.101,72.976 310.101,85.776 310.901,85.776 310.901,86.376 324.901,86.376 324.901,85.776 325.701,85.776 325.701,72.976 324.901,72.976 324.901,72.376" style="fill:none;stroke-width:0.050000mm;stroke:black"/>
<polygon points="329.951,72.376 329.951,72.976 329.151,72.976 329.151,85.776 329.951,85.776 329.951,86.376 343.951,86.376 343.951,85.776 344.751,85.776 344.751,72.976 343.951,72.976 343.951,72.376" style="fill:none;stroke-width:0.050000mm;stroke:black"/>
<polygon points="349.001,72.376 349.001,72.976 348.201,72.976 348.201,85.776 349.001,85.776 349.001,86.376 363.001,86.376 363.001,85.776 363.801,85.776 363.801,72.976 363.001,72.976 363.001,72.376" style="fill:none;stroke-width:0.050000mm;stroke:black"/>
<polygon points="368.051,72.376 368.051,72.976 367.251,72.976 367.251,85.776 368.051,85.776 368.051,86.376 382.051,86.376 382.051,85.776 382.851,85.776 382.851,72.976 382.051,72.976 382.051,72.376" style="fill:none;stroke-width:0.050000mm;stroke:black"/>
<polygon points="387.101,72.376 387.101,72.976 386.301,72.976 386.301,85.776 387.101,85.776 387.101,86.376 401.101,86.376 401.101,85.776 401.901,85.776 401.901,72.976 401.101,72.976 401.101,72.376" style="fill:none;stroke-width:0.050000mm;stroke:black"/>
<polygon points="15.626,53.326 15.626,53.926 14.826,53.926 14.826,66.726 15.626,66.726 15.626,67.326 29.626,67.326 29.626,66.726 30.426,66.726 30.426,53.926 29.626,53.926 29.626,53.326" style="fill:none;stroke-width:0.050000mm;stroke:black"/>
<polygon points="34.676,53.326 34.676,53.926 33.876,53.926 33.876,66.726 34.676,66.726 34.676,67.326 48.676,67.326 48.676,66.726 49.475,66.726 49.475,53.926 48.676,53.926 48.676,53.326" style="fill:none;stroke-width:0.050000mm;stroke:black"/>
<polygon points="53.725,53.326 53.725,53.926 52.926,53.926 52.926,66.726 53.725,66.726 53.725,67.326 67.726,67.326 67.726,66.726 68.525,66.726 68.525,53.926 67.726,53.926 67.726,53.326" style="fill:none;stroke-width:0.050000mm;stroke:black"/>
<polygon points="72.775,53.326 72.775,53.926 71.976,53.926 71.976,66.726 72.775,66.726 72.775,67.326 86.775,67.326 86.775,66.726 87.575,66.726 87.575,53.926 86.775,53.926 86.775,53.326" style="fill:none;stroke-width:0.050000mm;stroke:black"/>
<polygon points="96.588,53.326 96.588,53.926 95.788,53.926 95.788,66.726 96.588,66.726 96.588,67.326 110.588,67.326 110.588,66.726 111.388,66.726 111.388,53.926 110.588,53.926 110.588,53.326" style="fill:none;stroke-width:0.050000mm;stroke:black"/>
<polygon points="115.638,53.326 115.638,53.926 114.838,53.926 114.838,66.726 115.638,66.726 115.638,67.326 129.638,67.326 129.638,66.726 130.438,66.726 130.438,53.926 129.638,53.926 129.638,53.326" style="fill:none;stroke-width:0.050000mm;stroke:black"/>
<polygon points="134.688,53.326 134.688,53.926 133.888,53.926 133.888,66.726 134.688,66.726 134.688,67.326 148.688,67.326 148.688,66.726 149.488,66.726 149.488,53.926 148.688,53.926 148.688,53.326" style="fill:none;stroke-width:0.050000mm;stroke:black"/>
<polygon points="158.501,53.326 158.501,53.926 157.701,53.926 157.701,66.726 158.501,66.726 158.501,67.326 172.501,67.326 172.501,66.726 173.301,66.726 173.301,53.926 172.501,53.926 172.501,53.326" style="fill:none;stroke-width:0.050000mm;stroke:black"/>
<polygon points="177.551,53.326 177.551,53.926 176.751,53.926 176.751,66.726 177.551,66.726 177.551,67.326 191.551,67.326 191.551,66.726 192.351,66.726 192.351,53.926 191.551,53.926 191.551,53.326" style="fill:none;stroke-width:0.050000mm;stroke:black"/>
<polygon points="196.601,53.326 196.601,53.926 195.801,53.926 195.801,66.726 196.601,66.726 196.601,67.326 210.601,67.326 210.601,66.726 211.401,66.726 211.401,53.926 210.601,53.926 210.601,53.326" style="fill:none;stroke-width:0.050000mm;stroke:black"/>
<polygon points="215.651,53.326 215.651,53.926 214.851,53.926 214.851,66.726 215.651,66.726 215.651,67.326 229.651,67.326 229.651,66.726 230.451,66.726 230.451,53.926 229.651,53.926 229.651,53.326" style="fill:none;stroke-width:0.050000mm;stroke:black"/>
<polygon points="234.701,53.326 234.701,53.926 233.901,53.926 233.901,66.726 234.701,66.726 234.701,67.326 248.701,67.326 248.701,66.726 249.501,66.726 249.501,53.926 248.701,53.926 248.701,53.326" style="fill:none;stroke-width:0.050000mm;stroke:black"/>
<polygon points="253.751,53.326 253.751,53.926 252.951,53.926 252.951,66.726 253.751,66.726 253.751,67.326 267.751,67.326 267.751,66.726 268.551,66.726 268.551,53.926 267.751,53.926 267.751,53.326" style="fill:none;stroke-width:0.050000mm;stroke:black"/>
<polygon points="272.801,53.326 272.801,53.926 272.001,53.926 272.001,66.726 272.801,66.726 272.801,67.326 286.801,67.326 286.801,66.726 287.601,66.726 287.601,53.926 286.801,53.926 286.801,53.326" style="fill:none;stroke-width:0.050000mm;stroke:black"/>
<polygon points="291.851,53.326 291.851,53.926 291.051,53.926 291.051,66.726 291.851,66.726 291.851,67.326 305.851,67.326 305.851,66.726 306.651,66.726 306.651,53.926 305.851,53.926 305.851,53.326" style="fill:none;stroke-width:0.050000mm;stroke:black"/>
<polygon points="310.901,53.326 310.901,53.926 310.101,53.926 310.101,66.726 310.901,66.726 310.901,67.326 324.901,67.326 324.901,66.726 325.701,66.726 325.701,53.926 324.901,53.926 324.901,53.326" style="fill:none;stroke-width:0.050000mm;stroke:black"/>
<polygon points="329.951,53.326 329.951,53.926 329.151,53.926 329.151,66.726 329.951,66.726 329.951,67.326 343.951,67.326 343.951,66.726 344.751,66.726 344.751,53.926 343.951,53.926 343.951,53.326" style="fill:none;stroke-width:0.050000mm;stroke:black"/>
<polygon points="349.001,53.326 349.001,53.926 348.201,53.926 348.201,66.726 349.001,66.726 349.001,67.326 363.001,67.326 363.001,66.726 363.801,66.726 363.801,53.926 363.001,53.926 363.001,53.326" style="fill:none;stroke-width:0.050000mm;stroke:black"/>
<polygon points="368.051,53.326 368.051,53.926 367.251,53.926 367.251,66.726 368.051,66.726 368.051,67.326 382.051,67.326 382.051,66.726 382.851,66.726 382.851,53.926 382.051,53.926 382.051,53.326" style="fill:none;stroke-width:0.050000mm;stroke:black"/>
<polygon points="387.101,53.326 387.101,53.926 386.301,53.926 386.301,66.726 387.101,66.726 387.101,67.326 401.101,67.326 401.101,66.726 401.901,66.726 401.901,53.926 401.101,53.926 401.101,53.326" style="fill:none;stroke-width:0.050000mm;stroke:black"/>
<polygon points="406.151,53.326 406.151,53.926 405.351,53.926 405.351,66.726 406.151,66.726 406.151,67.326 420.151,67.326 420.151,66.726 420.951,66.726 420.951,53.926 420.151,53.926 420.151,53.326" style="fill:none;stroke-width:0.050000mm;stroke:black"/>
<polygon points="15.626,34.276 15.626,34.876 14.826,34.876 14.826,47.676 15.626,47.676 15.626,48.276 29.626,48.276 29.626,47.676 30.426,47.676 30.426,34.876 29.626,34.876 29.626,34.276" style="fill:none;stroke-width:0.050000mm;stroke:black"/>
<polygon points="34.676,34.276 34.676,34.876 33.876,34.876 33.876,47.676 34.676,47.676 34.676,48.276 48.676,48.276 48.676,47.676 49.475,47.676 49.475,34.876 48.676,34.876 48.676,34.276" style="fill:none;stroke-width:0.050000mm;stroke:black"/>
<polygon points="53.725,34.276 53.725,34.876 52.926,34.876 52.926,47.676 53.725,47.676 53.725,48.276 67.726,48.276 67.726,47.676 68.525,47.676 68.525,34.876 67.726,34.876 67.726,34.276" style="fill:none;stroke-width:0.050000mm;stroke:black"/>
<polygon points="72.775,34.276 72.775,34.876 71.976,34.876 71.976,47.676 72.775,47.676 72.775,48.276 86.775,48.276 86.775,47.676 87.575,47.676 87.575,34.876 86.775,34.876 86.775,34.276" style="fill:none;stroke-width:0.050000mm;stroke:black"/>
<polygon points="96.588,34.276 96.588,34.876 95.788,34.876 95.788,47.676 96.588,47.676 96.588,48.276 110.588,48.276 110.588,47.676 111.388,47.676 111.388,34.876 110.588,34.876 110.588,34.276" style="fill:none;stroke-width:0.050000mm;stroke:black"/>
<polygon points="115.638,34.276 115.638,34.876 114.838,34.876 114.838,47.676 115.638,47.676 115.638,48.276 129.638,48.276 129.638,47.676 130.438,47.676 130.438,34.876 129.638,34.876 129.638,34.276" style="fill:none;stroke-width:0.050000mm;stroke:black"/>
<polygon points="134.688,34.276 134.688,34.876 133.888,34.876 133.888,47.676 134.688,47.676 134.688,48.276 148.688,48.276 148.688,47.676 149.488,47.676 149.488,34.876 148.688,34.876 148.688,34.276" style="fill:none;stroke-width:0.050000mm;stroke:black"/>
<polygon points="158.501,34.276 158.501,34.876 157.701,34.876 157.701,47.676 158.501,47.676 158.501,48.276 172.501,48.276 172.501,47.676 173.301,47.676 173.301,34.876 172.501,34.876 172.501,34.276" style="fill:none;stroke-width:0.050000mm;stroke:black"/>
<polygon points="177.551,34.276 177.551,34.876 176.751,34.876 176.751,47.676 177.551,47.676 177.551,48.276 191.551,48.276 191.551,47.676 192.351,47.676 192.351,34.876 191.551,34.876 191.551,34.276" style="fill:none;stroke-width:0.050000mm;stroke:black"/>
<polygon points="196.601,34.276 196.601,34.876 195.801,34.876 195.801,47.676 196.601,47.676 196.601,48.276 210.601,48.276 210.601,47.676 211.401,47.676 211.401,34.876 210.601,34.876 210.601,34.276" style="fill:none;stroke-width:0.050000mm;stroke:black"/>
<polygon points="215.651,34.276 215.651,34.876 214.851,34.876 214.851,47.676 215.651,47.676 215.651,48.276 229.651,48.276 229.651,47.676 230.451,47.676 230.451,34.876 229.651,34.876 229.651,34.276" style="fill:none;stroke-width:0.050000mm;stroke:black"/>
<polygon points="234.701,34.276 234.701,34.876 233.901,34.876 233.901,47.676 234.701,47.676 234.701,48.276 248.701,48.276 248.701,47.676 249.501,47.676 249.501,34.876 248.701,34.876 248.701,34.276" style="fill:none;stroke-width:0.050000mm;stroke:black"/>
<polygon points="253.751,34.276 253.751,34.876 252.951,34.876 252.951,47.676 253.751,47.676 253.751,48.276 267.751,48.276 267.751,47.676 268.551,47.676 268.551,34.876 267.751,34.876 267.751,34.276" style="fill:none;stroke-width:0.050000mm;stroke:black"/>
<polygon points="272.801,34.276 272.801,34.876 272.001,34.876 272.001,47.676 272.801,47.676 272.801,48.276 286.801,48.276 286.801,47.676 287.601,47.676 287.601,34.876 286.801,34.876 286.801,34.276" style="fill:none;stroke-width:0.050000mm;stroke:black"/>
<polygon points="291.851,34.276 291.851,34.876 291.051,34.876 291.051,47.676 291.851,47.676 291.851,48.276 305.851,48.276 305.851,47.676 306.651,47.676 306.651,34.876 305.851,34.876 305.851,34.276" style="fill:none;stroke-width:0.050000mm;stroke:black"/>
<polygon points="310.901,34.276 310.901,34.876 310.101,34.876 310.101,47.676 310.901,47.676 310.901,48.276 324.901,48.276 324.901,47.676 325.701,47.676 325.701,34.876 324.901,34.876 324.901,34.276" style="fill:none;stroke-width:0.050000mm;stroke:black"/>
<polygon points="329.951,34.276 329.951,34.876 329.151,34.876 329.151,47.676 329.951,47.676 329.951,48.276 343.951,48.276 343.951,47.676 344.751,47.676 344.751,34.876 343.951,34.876 343.951,34.276" style="fill:none;stroke-width:0.050000mm;stroke:black"/>
<polygon points="349.001,34.276 349.001,34.876 348.201,34.876 348.201,47.676 349.001,47.676 349.001,48.276 363.001,48.276 363.001,47.676 363.801,47.676 363.801,34.876 363.001,34.876 363.001,34.276" style="fill:none;stroke-width:0.050000mm;stroke:black"/>
<polygon points="368.051,34.276 368.051,34.876 367.251,34.876 367.251,47.676 368.051,47.676 368.051,48.276 382.051,48.276 382.051,47.676 382.851,47.676 382.851,34.876 382.051,34.876 382.051,34.276" style="fill:none;stroke-width:0.050000mm;stroke:black"/>
<polygon points="387.101,34.276 387.101,34.876 386.301,34.876 386.301,47.676 387.101,47.676 387.101,48.276 401.101,48.276 401.101,47.676 401.901,47.676 401.901,34.876 401.101,34.876 401.101,34.276" style="fill:none;stroke-width:0.050000mm;stroke:black"/>
<polygon points="406.151,34.276 406.151,34.876 405.351,34.876 405.351,47.676 406.151,47.676 406.151,48.276 420.151,48.276 420.151,47.676 420.951,47.676 420.951,34.876 420.151,34.876 420.151,34.276" style="fill:none;stroke-width:0.050000mm;stroke:black"/>
<polygon points="15.626,15.226 15.626,15.826 14.826,15.826 14.826,28.626 15.626,28.626 15.626,29.226 29.626,29.226 29.626,28.626 30.426,28.626 30.426,15.826 29.626,15.826 29.626,15.226" style="fill:none;stroke-width:0.050000mm;stroke:black"/>
<polygon points="34.676,15.226 34.676,15.826 33.876,15.826 33.876,28.626 34.676,28.626 34.676,29.226 48.676,29.226 48.676,28.626 49.475,28.626 49.475,15.826 48.676,15.826 48.676,15.226" style="fill:none;stroke-width:0.050000mm;stroke:black"/>
<polygon points="53.725,15.226 53.725,15.826 52.926,15.826 52.926,28.626 53.725,28.626 53.725,29.226 67.726,29.226 67.726,28.626 68.525,28.626 68.525,15.826 67.726,15.826 67.726,15.226" style="fill:none;stroke-width:0.050000mm;stroke:black"/>
<polygon points="72.775,15.226 72.775,15.826 71.976,15.826 71.976,28.626 72.775,28.626 72.775,29.226 86.775,29.226 86.775,28.626 87.575,28.626 87.575,15.826 86.775,15.826 86.775,15.226" style="fill:none;stroke-width:0.050000mm;stroke:black"/>
<polygon points="96.588,15.226 96.588,15.826 95.788,15.826 95.788,28.626 96.588,28.626 96.588,29.226 110.588,29.226 110.588,28.626 111.388,28.626 111.388,15.826 110.588,15.826 110.588,15.226" style="fill:none;stroke-width:0.050000mm;stroke:black"/>
<polygon points="115.638,15.226 115.638,15.826 114.838,15.826 114.838,28.626 115.638,28.626 115.638,29.226 129.638,29.226 129.638,28.626 130.438,28.626 130.438,15.826 129.638,15.826 129.638,15.226" style="fill:none;stroke-width:0.050000mm;stroke:black"/>
<polygon points="134.688,15.226 134.688,15.826 133.888,15.826 133.888,28.626 134.688,28.626 134.688,29.226 148.688,29.226 148.688,28.626 149.488,28.626 149.488,15.826 148.688,15.826 148.688,15.226" style="fill:none;stroke-width:0.050000mm;stroke:black"/>
<polygon points="158.501,15.226 158.501,15.826 157.701,15.826 157.701,28.626 158.501,28.626 158.501,29.226 172.501,29.226 172.501,28.626 173.301,28.626 173.301,15.826 172.501,15.826 172.501,15.226" style="fill:none;stroke-width:0.050000mm;stroke:black"/>
<polygon points="177.551,15.226 177.551,15.826 176.751,15.826 176.751,28.626 177.551,28.626 177.551,29.226 191.551,29.226 191.551,28.626 192.351,28.626 192.351,15.826 191.551,15.826 191.551,15.226" style="fill:none;stroke-width:0.050000mm;stroke:black"/>
<polygon points="196.601,15.226 196.601,15.826 195.801,15.826 195.801,28.626 196.601,28.626 196.601,29.226 210.601,29.226 210.601,28.626 211.401,28.626 211.401,15.826 210.601,15.826 210.601,15.226" style="fill:none;stroke-width:0.050000mm;stroke:black"/>
<polygon points="215.651,15.226 215.651,15.826 214.851,15.826 214.851,28.626 215.651,28.626 215.651,29.226 229.651,29.226 229.651,28.626 230.451,28.626 230.451,15.826 229.651,15.826 229.651,15.226" style="fill:none;stroke-width:0.050000mm;stroke:black"/>
<polygon points="234.701,15.226 234.701,15.826 233.901,15.826 233.901,28.626 234.701,28.626 234.701,29.226 248.701,29.226 248.701,28.626 249.501,28.626 249.501,15.826 248.701,15.826 248.701,15.226" style="fill:none;stroke-width:0.050000mm;stroke:black"/>
<polygon points="253.751,15.226 253.751,15.826 252.951,15.826 252.951,28.626 253.751,28.626 253.751,29.226 267.751,29.226 267.751,28.626 268.551,28.626 268.551,15.826 267.751,15.826 267.751,15.226" style="fill:none;stroke-width:0.050000mm;stroke:black"/>
<polygon points="272.801,15.226 272.801,15.826 272.001,15.826 272.001,28.626 272.801,28.626 272.801,29.226 286.801,29.226 286.801,28.626 287.601,28.626 287.601,15.826 286.801,15.826 286.801,15.226" style="fill:none;stroke-width:0.050000mm;stroke:black"/>
<polygon points="291.851,15.226 291.851,15.826 291.051,15.826 291.051,28.626 291.851,28.626 291.851,29.226 305.851,29.226 305.851,28.626 306.651,28.626 306.651,15.826 305.851,15.826 305.851,15.226" style="fill:none;stroke-width:0.050000mm;stroke:black"/>
<polygon points="310.901,15.226 310.901,15.826 310.101,15.826 310.101,28.626 310.901,28.626 310.901,29.226 324.901,29.226 324.901,28.626 325.701,28.626 325.701,15.826 324.901,15.826 324.901,15.226" style="fill:none;stroke-width:0.050000mm;stroke:black"/>
<polygon points="329.951,15.226 329.951,15.826 329.151,15.826 329.151,28.626 329.951,28.626 329.951,29.226 343.951,29.226 343.951,28.626 344.751,28.626 344.751,15.826 343.951,15.826 343.951,15.226" style="fill:none;stroke-width:0.050000mm;stroke:black"/>
<polygon points="349.001,15.226 349.001,15.826 348.201,15.826 348.201,28.626 349.001,28.626 349.001,29.226 363.001,29.226 363.001,28.626 363.801,28.626 363.801,15.826 363.001,15.826 363.001,15.226" style="fill:none;stroke-width:0.050000mm;stroke:black"/>
<polygon points="368.051,15.226 368.051,15.826 367.251,15.826 367.251,28.626 368.051,28.626 368.051,29.226 382.051,29.226 382.051,28.626 382.851,28.626 382.851,15.826 382.051,15.826 382.051,15.226" style="fill:none;stroke-width:0.050000mm;stroke:black"/>
<polygon points="387.101,15.226 387.101,15.826 386.301,15.826 386.301,28.626 387.101,28.626 387.101,29.226 401.101,29.226 401.101,28.626 401.901,28.626 401.901,15.826 401.101,15.826 401.101,15.226" style="fill:none;stroke-width:0.050000mm;stroke:black"/>
</svg>